<ttFont>
          <CharString index="0">
            -107 callgsubr
            endchar
          </CharString>
          <CharString index="1">
            rmoveto
            50 hlineto
            66 97 65 -97 rlineto
            50 6 hlineto
            -76 132 rlineto
            -78 hlineto
            -77 -132 rlineto
            return
          </CharString>
          <CharString index="2">
            6 20 37 vvcurveto
            55 -28 18 -78 -25 -38 -4 -4 -29 vhcurveto
            -44 vlineto
            3 31 33 2 21 hhcurveto
            52 8 -6 -26 -24 -10 -6 -28 -9 hvcurveto
            -14 -5 rlineto
            -28 -9 -12 -7 -34 vvcurveto
            return
          </CharString>
          <CharString index="3">
            rmoveto
            192 14 59 293 293 -14 59 -192 -192 -14 -59 -293 -293 14 -59 192 -21 callsubr
            -117 -13 11 275 275 13 11 117 117 13 -11 -275 -275 -13 -11 -117 hvcurveto
            return
          </CharString>
          <CharString index="4">
            rmoveto
            -50 hlineto
            -62 -1 -34 -62 -60 -1 34 62 vhcurveto
            -50 hlineto
            -83 5 -59 106 107 6 59 83 vhcurveto
            return
          </CharString>
          <CharString index="5">
            -265 hlineto
            -117 -3 -72 -95 -78 -12 17 -40 callgsubr
            -30 callgsubr
            -322 vlineto
            -138 18 -58 114 77 34 32 47 15 vhcurveto
            5 hlineto
            return
          </CharString>
          <CharString index="6">
            rmoveto
            169 19 73 200 hvcurveto
            436 -63 vlineto
            -4 -71 -6 callgsubr
            68 -21 -51 11 -50 hhcurveto
            -116 -30 -53 -209 -208 29 -53 116 61 40 18 52 18 hvcurveto
            5 -15 hlineto
            -153 -12 -35 -118 -37 -45 2 2 -39 vhcurveto
            -58 vlineto
            -4 37 53 -3 44 hhcurveto
            19 257 4 callgsubr
            -3 callgsubr
            12 21 88 50 27 -18 -52 12 hvcurveto
            8 -31 1 -42 -55 vvcurveto
            -58 -2 -43 -9 -34 vhcurveto
            -45 -11 -27 -18 -49 hhcurveto
            endchar
          </CharString>
          <CharString index="7">
            rmoveto
            -423 vlineto
            -101 callgsubr
            -13 callsubr
            return
          </CharString>
          <CharString index="8">
            rmoveto
            133 44 54 151 56 -3 37 -9 22 hvcurveto
            -19 48 -34 13 -50 8 -112 18 rcurveline
            -52 9 -8 11 88 vvcurveto
            40 3 31 18 22 vhcurveto
            20 17 31 10 58 hhcurveto
            43 53 -5 -7 39 hvcurveto
            62 vlineto
            10 -37 -57 6 -58 hhcurveto
            -126 -59 -49 -142 -99 9 -62 88 -14 hvcurveto
            116 -18 rlineto
            70 -12 4 -10 -102 vvcurveto
            -49 -3 -37 -20 -19 vhcurveto
            -19 -20 -30 -6 -52 hhcurveto
            -38 -63 5 7 -47 hvcurveto
            -65 vlineto
            -8 48 66 -5 57 hhcurveto
            return
          </CharString>
          <CharString index="9">
            rmoveto
            162 22 74 195 hvcurveto
            440 -71 -263 -50 callgsubr
            16 -40 callgsubr
            297 -71 -312 vlineto
            -144 16 -60 115 79 30 33 39 14 vhcurveto
            5 -20 hlineto
            -137 -9 -47 -118 -35 -46 1 2 -36 vhcurveto
            -58 vlineto
            -4 37 52 -2 42 hhcurveto
            return
          </CharString>
          <CharString index="10">
            -98 -4 27 175 175 4 27 98 98 3 -27 -175 -175 -3 -27 -98 hvcurveto
            return
          </CharString>
          <CharString index="11">
            -751 -107 callsubr
          </CharString>
          <CharString index="12">
            rmoveto
            4 vlineto
            -49 118 rlineto
            -66 -4 hlineto
            69 -118 rlineto
            179 hmoveto
            4 vlineto
            -49 118 rlineto
            -67 -4 hlineto
            70 -118 rlineto
            return
          </CharString>
          <CharString index="13">
            rmoveto
            179 5 59 241 hvcurveto
            83 -184 -64 110 -28 vlineto
            -206 -5 -19 -107 -119 -16 30 256 275 24 11 149 31 55 -6 -9 45 vhcurveto
            62 vlineto
            11 -43 -66 8 -49 hhcurveto
            -182 -39 -55 -297 -295 32 -57 180 hvcurveto
            return
          </CharString>
          <CharString index="14">
            -92 callsubr
            endchar
          </CharString>
          <CharString index="15">
            rmoveto
            -218 vlineto
            -171 -6 -35 -111 -111 -6 35 171 vhcurveto
            218 -75 -184 vlineto
            -224 13 -71 141 -10 vhcurveto
            -199 75 199 vlineto
            142 9 13 71 225 vvcurveto
            184 vlineto
            return
          </CharString>
          <CharString index="16">
            -73 callgsubr
            -47 hlineto
            6 -25 -31 2 -37 hhcurveto
            -192 -14 -59 -293 -293 14 -59 192 192 14 59 293 168 -5 91 -40 47 hvcurveto
            72 4 13 25 73 vvcurveto
            33 vlineto
            -246 -727 rmoveto
            -66 callsubr
          </CharString>
          <CharString index="17">
            rmoveto
            96 8 26 70 69 -8 28 -96 -95 -7 -28 -69 -70 7 -26 95 hvcurveto
            40 vmoveto
            -50 -3 12 44 44 3 12 50 51 3 -12 -44 -44 -3 -12 -51 hvcurveto
            return
          </CharString>
          <CharString index="18">
            rmoveto
            52 5 hlineto
            -54 -68 callgsubr
            -75 -5 hlineto
            return
          </CharString>
          <CharString index="19">
            rmoveto
            63 vlineto
            -5 -26 -41 -4 -30 hhcurveto
            -131 -11 28 258 258 11 28 131 25 38 -4 -5 31 hvcurveto
            61 vlineto
            8 -26 -46 6 -38 hhcurveto
            -175 -27 -60 -292 -295 27 -57 175 37 47 5 7 29 hvcurveto
            endchar
          </CharString>
          <CharString index="20">
            rmoveto
            59 vlineto
            -7 -26 -37 -4 -29 hhcurveto
            -93 -14 30 173 167 13 34 93 27 37 -4 -6 26 hvcurveto
            58 vlineto
            8 -25 -45 5 -36 hhcurveto
            -136 -25 -65 -198 -186 12 -77 151 37 43 5 8 27 hvcurveto
            endchar
          </CharString>
          <CharString index="21">
            rmoveto
            -34 vlineto
            85 13 23 91 hvcurveto
            78 -80 -86 33 -16 vlineto
            -44 -6 -12 -45 vhcurveto
            endchar
          </CharString>
          <CharString index="22">
            rmoveto
            -108 -420 -6 callgsubr
            -108 420 rlineto
            -74 hlineto
            140 -510 rlineto
            15 hlineto
            -53 -191 rlineto
            73 hlineto
            192 701 rlineto
            endchar
          </CharString>
          <CharString index="23">
            71 322 hlineto
            -45 callsubr
            -34 callgsubr
            vhcurveto
            -48 callgsubr
            -510 71 265 hlineto
            116 2 73 96 77 13 -17 -139 vhcurveto
            return
          </CharString>
          <CharString index="24">
            -106 callgsubr
            -31 -178 -103 callsubr
            return
          </CharString>
          <CharString index="25">
            93 hlineto
            128 688 rlineto
            -75 hlineto
            -97 -579 -27 callgsubr
            -112 579 rlineto
            -84 hlineto
            -111 -579 -6 callgsubr
            -99 579 rlineto
            -77 hlineto
            128 -688 rlineto
            94 hlineto
            109 559 rlineto
            4 hlineto
            endchar
          </CharString>
          <CharString index="26">
            305 61 -220 hlineto
            219 394 rlineto
            55 -296 -61 210 vlineto
            -218 -393 rlineto
            return
          </CharString>
          <CharString index="27">
            86 hlineto
            115 510 rlineto
            -70 hlineto
            -84 -415 -27 callgsubr
            -87 415 rlineto
            -74 hlineto
            -85 -415 -27 callgsubr
            -85 415 rlineto
            -73 hlineto
            115 -510 rlineto
            86 hlineto
            81 387 rlineto
            6 hlineto
            endchar
          </CharString>
          <CharString index="28">
            -26 callsubr
            -72 -520 -4 hlineto
            -233 520 rlineto
            -79 -688 72 529 4 hlineto
            return
          </CharString>
          <CharString index="29">
            -89 callsubr
            -101 -286 -106 callsubr
            return
          </CharString>
          <CharString index="30">
            rmoveto
            47 hlineto
            18 2 3 35 12 vhcurveto
            14 6 rlineto
            41 14 -105 callsubr
            150 -11 -103 callsubr
            return
          </CharString>
          <CharString index="31">
            367 66 -279 hlineto
            275 560 rlineto
            62 -355 -66 266 vlineto
            -274 -560 rlineto
            return
          </CharString>
          <CharString index="32">
            rmoveto
            93 22 35 70 61 -21 22 -35 8 hvcurveto
            2 vlineto
            34 9 19 25 56 vvcurveto
            71 -29 28 -82 -28 -38 -4 -5 -25 vhcurveto
            -43 vlineto
            4 25 31 2 22 hhcurveto
            53 19 -7 -55 -52 -21 -9 -29 hvcurveto
            -54 -45 54 hlineto
            39 14 -15 -51 -55 -23 -6 -48 -21 -35 2 3 -28 hvcurveto
            -42 vlineto
            -6 28 37 -3 27 hhcurveto
            return
          </CharString>
          <CharString index="33">
            71 242 hlineto
            138 27 66 106 vhcurveto
            72 vlineto
            -65 -48 -19 -84 -19 hvcurveto
            -6 hlineto
            -4 95 rlineto
            -62 hlineto
            return
          </CharString>
          <CharString index="34">
            rmoveto
            105 35 9 123 hvcurveto
            571 -71 -591 -41 callsubr
            endchar
          </CharString>
          <CharString index="35">
            -3 callsubr
            178 177 12 22 86 53 27 -19 -52 11 hvcurveto
            8 -31 1 -41 -48 vvcurveto
            -66 -1 -43 -10 -38 vhcurveto
            return
          </CharString>
          <CharString index="36">
            839 rmoveto
            -24 -10 -6 -28 -9 vhcurveto
            -14 -5 rlineto
            -28 -9 -12 -7 -34 vvcurveto
            -10 47 vlineto
            -60 callgsubr
            hvcurveto
            return
          </CharString>
          <CharString index="37">
            rmoveto
            65 -97 rlineto
            50 6 hlineto
            -76 132 rlineto
            -78 hlineto
            -77 -132 rlineto
            -6 50 vlineto
            return
          </CharString>
          <CharString index="38">
            22 225 -8 -99 callsubr
            return
          </CharString>
          <CharString index="39">
            rmoveto
            -62 hlineto
            -25 -55 rlineto
            -4 callsubr
            -35 hhcurveto
            -160 -13 -50 -213 -122 4 -69 34 -36 hvcurveto
            -38 -83 rlineto
            62 hlineto
            25 55 rlineto
            -6 23 28 -2 35 hhcurveto
            160 12 50 213 122 -4 69 -34 36 hvcurveto
            -236 -227 rmoveto
            175 4 27 98 25 19 -2 -5 14 vhcurveto
            -154 -337 rlineto
            -6 30 0 45 67 vvcurveto
            203 hmoveto
            -175 -3 -27 -98 -25 -20 1 5 -14 vhcurveto
            154 338 rlineto
            6 -30 0 -45 -67 vvcurveto
            endchar
          </CharString>
          <CharString index="40">
            -97 callsubr
            endchar
          </CharString>
          <CharString index="41">
            -117 -13 11 275 275 13 11 117 117 13 -11 -275 -275 -13 -11 -117 hvcurveto
            endchar
          </CharString>
          <CharString index="42">
            rmoveto
            5 vlineto
            -54 -68 callgsubr
            -75 -5 hlineto
            77 -136 rlineto
            return
          </CharString>
          <CharString index="43">
            -44 187 -8 -96 callgsubr
            return
          </CharString>
          <CharString index="44">
            rmoveto
            47 10 6 28 54 vvcurveto
            69 -8 28 -96 -95 -7 -28 -69 -55 4 -28 48 -9 vhcurveto
            -178 -685 rlineto
            75 hlineto
            47 191 rlineto
            211 hlineto
            48 -191 rlineto
            77 hlineto
            -230 833 rmoveto
            51 3 -13 -43 -44 -3 -12 -51 -50 -2 12 44 43 2 13 50 hvcurveto
            -88 -576 rmoveto
            85 340 rlineto
            5 hlineto
            85 -340 rlineto
            endchar
          </CharString>
          <CharString index="45">
            rmoveto
            27 0 15 5 10 vhcurveto
            3 7 5 5 10 5 28 13 28 16 26 13 rrcurveto
            36 19 15 22 63 vvcurveto
            91 -46 8 -57 -33 -41 -4 -6 -25 vhcurveto
            -42 vlineto
            4 30 35 2 20 hhcurveto
            50 15 -7 -51 -34 -5 -12 -26 -15 hvcurveto
            -26 -13 -26 -14 -25 -13 rrcurveto
            -46 -25 -1 -21 -87 vvcurveto
            -45 207 46 -156 vlineto
            endchar
          </CharString>
          <CharString index="46">
            -60 100 191 rmoveto
            67 69 hlineto
            47 4 12 54 28 vhcurveto
            20 9 rlineto
            56 30 10 62 80 vvcurveto
            112 -32 56 -119 -38 -57 -6 -9 -44 vhcurveto
            -62 vlineto
            7 42 47 4 27 hhcurveto
            85 14 -26 -85 -90 -15 -12 -43 -23 hvcurveto
            -20 -10 rlineto
            -38 -20 -20 -13 -77 vvcurveto
            -7 -274 rmoveto
            81 90 -81 hlineto
            endchar
          </CharString>
          <CharString index="47">
            71 323 hlineto
            137 -18 58 -114 -77 -31 -33 -36 -14 vhcurveto
            -5 294 -71 -743 71 265 hlineto
            116 2 73 96 77 13 -17 -139 vhcurveto
            return
          </CharString>
          <CharString index="48">
            164 hlineto
            196 14 57 287 287 -14 57 -196 hvcurveto
            -164 hlineto
            456 -688 rmoveto
            -76 callsubr
            -382 4 rmoveto
            556 87 vlineto
            123 15 -10 -268 -269 -14 -9 -124 hvcurveto
            endchar
          </CharString>
          <CharString index="49">
            -72 callsubr
            -43 -11 -27 -17 -49 hhcurveto
            endchar
          </CharString>
          <CharString index="50">
            -87 rmoveto
            -9 callsubr
            hvcurveto
            -86 callgsubr
            262 23 hlineto
            197 -6 66 -153 vhcurveto
            -1 -60 -12 callsubr
          </CharString>
          <CharString index="51">
            53 hlineto
            2 91 12 219 78 vvcurveto
            109 -82 -109 vlineto
            -78 12 -219 3 -91 vhcurveto
            return
          </CharString>
          <CharString index="52">
            37 5 8 17 10 vhcurveto
            73 43 rlineto
            35 21 15 24 60 vvcurveto
            90 -42 9 -55 -27 -39 -4 -5 -29 vhcurveto
            -46 vlineto
            4 32 34 3 18 hhcurveto
            42 13 -10 -46 -33 -7 -13 -23 -15 hvcurveto
            -25 -14 -27 -16 -24 -15 rrcurveto
            -36 -22 -2 -22 -77 vvcurveto
            -48 197 return
          </CharString>
          <CharString index="53">
            267 66 -202 hlineto
            -41 249 rlineto
            209 65 -220 hlineto
            -40 242 rlineto
            294 66 -404 hlineto
            -244 -688 rlineto
            75 hlineto
            65 191 rlineto
            209 hlineto
            -64 405 rmoveto
            54 -339 rlineto
            -175 hlineto
            116 339 rlineto
            endchar
          </CharString>
          <CharString index="54">
            -15 callgsubr
            -308 -58 -63 58 hlineto
            161 -251 rmoveto
            -87 251 104 63 -104 242 87 hlineto
            123 15 -10 -268 -269 -14 -9 -124 hvcurveto
            endchar
          </CharString>
          <CharString index="55">
            rmoveto
            -52 callgsubr
          </CharString>
          <CharString index="56">
            35 322 510 rmoveto
            -265 vlineto
            -117 -3 -72 -96 -77 -12 17 -40 callgsubr
            -30 callgsubr
            -700 70 198 vlineto
            -11 19 21 -5 24 hhcurveto
            77 32 33 46 15 hvcurveto
            5 hlineto
            4 -71 rlineto
            63 510 hlineto
            endchar
          </CharString>
          <CharString index="57">
            24 46 vvcurveto
            73 -26 30 -79 -25 -36 -4 -6 -25 vhcurveto
            -46 vlineto
            5 31 28 3 18 hhcurveto
            43 18 -9 -51 -50 -19 -10 -22 hvcurveto
            -55 -46 55 hlineto
            31 13 -17 -47 -53 -21 -8 -39 -18 -32 3 3 -33 hvcurveto
            return
          </CharString>
          <CharString index="58">
            rmoveto
            60 1 -34 -62 hvcurveto
            50 hlineto
            83 -5 59 -106 -107 -6 -59 -83 vhcurveto
            50 hlineto
            62 1 34 62 vhcurveto
            return
          </CharString>
          <CharString index="59">
            -68 callgsubr
            5 -75 vlineto
            return
          </CharString>
          <CharString index="60">
            297 68 -222 620 -75 hlineto
            return
          </CharString>
          <CharString index="61">
            -44 hlineto
            -40 return
          </CharString>
          <CharString index="62">
            138 -18 58 -114 return
          </CharString>
          <CharString index="63">
            -26 callsubr
            -75 hlineto
            return
          </CharString>
          <CharString index="64">
            510 -71 return
          </CharString>
          <CharString index="65">
            rmoveto
            77 133 rlineto
            6 -50 vlineto
            -65 -97 -66 97 rlineto
            -50 -6 hlineto
            77 -133 rlineto
            return
          </CharString>
          <CharString index="66">
            vlineto
            -35 callgsubr
            return
          </CharString>
          <CharString index="67">
            799 rmoveto
            68 76 -68 hlineto
            return
          </CharString>
          <CharString index="68">
            -26 198 -85 rmoveto
            125 268 -96 -39 rlineto
            322 vlineto
            96 -38 -125 268 -126 -268 97 38 rlineto
            -322 vlineto
            -97 39 rlineto
            return
          </CharString>
          <CharString index="69">
            60 384 hmoveto
            83 hlineto
            -183 353 181 335 rlineto
            -81 hlineto
            -162 -306 rlineto
            -77 306 -75 -688 75 316 77 hlineto
            return
          </CharString>
          <CharString index="70">
            rmoveto
            77 hlineto
            return
          </CharString>
          <CharString index="71">
            654 rmoveto
            68 76 -68 hlineto
            return
          </CharString>
          <CharString index="72">
            71 -43 callsubr
            hlineto
            return
          </CharString>
          <CharString index="73">
            63 36 24 38 114 vvcurveto
            158 -73 16 -96 -54 -70 -6 -10 -41 vhcurveto
            -61 vlineto
            6 49 62 5 35 hhcurveto
            89 24 -18 -99 -66 return
          </CharString>
          <CharString index="74">
            rmoveto
            81 90 -81 hlineto
            -1 -688 rmoveto
            83 109 hlineto
            78 -13 219 -2 91 vhcurveto
            -53 hlineto
            -3 -91 -12 -219 -78 vvcurveto
            endchar
          </CharString>
          <CharString index="75">
            51 85 41 46 -41 126 -40 hlineto
            -11 -126 rlineto
            -95 hlineto
            101 247 rlineto
            -54 hlineto
            -101 -252 rlineto
            -41 149 vlineto
            endchar
          </CharString>
          <CharString index="76">
            -8 169 hmoveto
            -19 callsubr
            return
          </CharString>
          <CharString index="77">
            93 368 -80 callgsubr
            6 return
          </CharString>
          <CharString index="78">
            31 20 21 34 42 vvcurveto
            41 -21 35 -32 20 vhcurveto
            -32 -51 rlineto
            15 -9 10 -16 -20 vvcurveto
            -20 -10 -16 -14 -9 vhcurveto
            endchar
          </CharString>
          <CharString index="79">
            775 -88 callgsubr
            return
          </CharString>
          <CharString index="80">
            660 -28 callgsubr
            return
          </CharString>
          <CharString index="81">
            75 688 return
          </CharString>
          <CharString index="82">
            90 18 39 69 52 -18 25 -30 11 hvcurveto
            return
          </CharString>
          <CharString index="83">
            99 7 rlineto
            47 vlineto
            -99 8 -7 175 rlineto
            -48 hlineto
            -7 -175 -94 -8 rlineto
            -47 vlineto
            94 -7 rlineto
            return
          </CharString>
          <CharString index="84">
            -103 callsubr
            6 return
          </CharString>
          <CharString index="85">
            3 callsubr
            178 76 3 callsubr
            return
          </CharString>
          <CharString index="86">
            hvcurveto
            66 vmoveto
            return
          </CharString>
          <CharString index="87">
            32 520 rmoveto
            -34 vlineto
            85 13 -17 callsubr
            33 -17 vlineto
            -51 -6 -13 -45 vhcurveto
            return
          </CharString>
          <CharString index="88">
            75 620 153 68 -381 -68 153 hlineto
            return
          </CharString>
          <CharString index="89">
            rmoveto
            52 hlineto
            97 203 -97 204 rlineto
            -52 hlineto
            return
          </CharString>
          <CharString index="90">
            25 97 hvcurveto
            80 -80 -87 return
          </CharString>
          <CharString index="91">
            761 rmoveto
            34 vlineto
            -85 -13 -23 -90 hvcurveto
            -79 80 86 -33 17 vlineto
            44 6 11 45 vhcurveto
            return
          </CharString>
          <CharString index="92">
            rmoveto
            33 -16 hlineto
            -44 -6 -12 -45 vhcurveto
            -34 vlineto
            85 13 23 91 hvcurveto
            78 -80 vlineto
            endchar
          </CharString>
          <CharString index="93">
            rmoveto
            65 45 45 65 65 -45 45 -65 -65 -45 -45 -65 -65 45 -45 65 hvcurveto
            60 vmoveto
            return
          </CharString>
          <CharString index="94">
            389 vlineto
            return
          </CharString>
          <CharString index="95">
            rmoveto
            72 20 -16 -145 hvcurveto
            -12 -194 vlineto
            150 11 23 91 vhcurveto
            endchar
          </CharString>
          <CharString index="96">
            -45 vlineto
            -5 29 34 -4 25 hhcurveto
            -25 callsubr
            return
          </CharString>
          <CharString index="97">
            -190 rmoveto
            70 hlineto
            41 193 rlineto
            5 -49 vlineto
            -62 -193 rlineto
            endchar
          </CharString>
          <CharString index="98">
            -164 -10 -72 -192 -201 18 -61 161 50 59 6 8 31 return
          </CharString>
          <CharString index="99">
            -8 rmoveto
            162 33 63 129 118 -32 29 -60 18 hvcurveto
            4 vlineto
            return
          </CharString>
          <CharString index="100">
            63 hmoveto
            -13 callgsubr
            return
          </CharString>
          <CharString index="101">
            -207 -145 -143 -205 -204 145 -144 207 return
          </CharString>
          <CharString index="102">
            52 3 callgsubr
            -52 hlineto
            return
          </CharString>
          <CharString index="103">
            6 -22 -28 2 return
          </CharString>
          <CharString index="104">
            -88 -12 21 return
          </CharString>
          <CharString index="105">
            144 -1 628 rmoveto
            567 60 -567 hlineto
            -688 vmoveto
            return
          </CharString>
          <CharString index="106">
            hmoveto
            75 163 72 66 -72 255 -60 hlineto
            -14 -255 rlineto
            return
          </CharString>
          <CharString index="107">
            -8 rmoveto
            153 29 54 171 169 -48 23 -120 return
          </CharString>
          <CharString index="108">
            -112 57 253 rmoveto
            195 65 -195 hlineto
            endchar
          </CharString>
          <CharString index="109">
            205 -145 143 -207 return
          </CharString>
          <CharString index="110">
            rmoveto
            -68 -76 68 hlineto
            return
          </CharString>
          <CharString index="111">
            47 vlineto
            -1 return
          </CharString>
          <CharString index="112">
            vmoveto
            -170 -7 20 296 295 7 21 170 return
          </CharString>
          <CharString index="113">
            96 19 -25 -101 -101 -22 -24 -93 hvcurveto
            -323 vmoveto
            return
          </CharString>
          <CharString index="114">
            vlineto
            -59 -185 rlineto
            -5 70 vlineto
            40 190 rlineto
            return
          </CharString>
          <CharString index="115">
            22 -34 67 11 10 0 2 14 vhcurveto
            4 callsubr
            return
          </CharString>
          <CharString index="116">
            -303 24 285 rmoveto
            49 hlineto
            21 228 rlineto
            return
          </CharString>
          <CharString index="117">
            34 -12 32 hhcurveto
            64 7 33 76 hvcurveto
            -44 hlineto
            return
          </CharString>
          <CharString index="118">
            -17 -114 -109 -28 -19 -92 hvcurveto
            endchar
          </CharString>
          <CharString index="119">
            rmoveto
            -196 -66 196 hlineto
            return
          </CharString>
          <CharString index="120">
            -227 56 420 rmoveto
            82 90 -82 hlineto
            return
          </CharString>
          <CharString index="121">
            220 -8 rmoveto
            167 5 59 221 return
          </CharString>
          <CharString index="122">
            -34 -104 -34 -59 5 6 -49 hvcurveto
            endchar
          </CharString>
        <CharString name=".notdef">
          79 0 vmoveto
          500 700 -500 hlineto
          450 -50 rmoveto
          -600 -400 600 vlineto
          179 -435 rmoveto
          53 53 hlineto
          33 21 18 23 19 vhcurveto
          30 26 37 36 67 vvcurveto
          12 -3 123 -140 -140 -11 -124 -23 -12 2 -13 2 -6 vhcurveto
          49 28 hlineto
          23 8 77 90 77 12 -59 -28 -51 -28 -24 -28 -23 vhcurveto
          -28 -23 -26 -23 -43 vvcurveto
          -4 -179 rmoveto
          60 70 -60 hlineto
          endchar
        </CharString>
        <CharString name="A">
          73 399 hmoveto
          -102 callgsubr
          endchar
        </CharString>
        <CharString name="A.ss01">
          93 374 hmoveto
          -105 callgsubr
          endchar
        </CharString>
        <CharString name="AE">
          260 376 hmoveto
          -54 callsubr
        </CharString>
        <CharString name="AEacute">
          260 309 747 -99 callgsubr
          67 -752 rmoveto
          -54 callsubr
        </CharString>
        <CharString name="Aacute">
          73 209 750 -99 callgsubr
          190 -755 rmoveto
          -102 callgsubr
          endchar
        </CharString>
        <CharString name="Aacute.ss01">
          93 223 749 -99 callgsubr
          151 -754 rmoveto
          -105 callgsubr
          endchar
        </CharString>
        <CharString name="Abreve">
          73 358 -80 callgsubr
          41 -888 rmoveto
          -102 callgsubr
          endchar
        </CharString>
        <CharString name="Abreve.ss01">
          -30 callsubr
          -888 rmoveto
          -105 callgsubr
          endchar
        </CharString>
        <CharString name="Acircumflex">
          73 131 750 -106 callsubr
          268 -756 rmoveto
          -102 callgsubr
          endchar
        </CharString>
        <CharString name="Acircumflex.ss01">
          93 142 750 -106 callsubr
          232 -756 rmoveto
          -105 callgsubr
          endchar
        </CharString>
        <CharString name="Adieresis">
          73 124 -28 callsubr
          97 -851 rmoveto
          -102 callgsubr
          endchar
        </CharString>
        <CharString name="Adieresis.ss01">
          93 137 772 -88 callgsubr
          59 -848 rmoveto
          -105 callgsubr
          endchar
        </CharString>
        <CharString name="Agrave">
          73 232 750 -89 callsubr
          244 -886 rmoveto
          -102 callgsubr
          endchar
        </CharString>
        <CharString name="Agrave.ss01">
          93 240 749 -89 callsubr
          211 -885 rmoveto
          -105 callgsubr
          endchar
        </CharString>
        <CharString name="Amacron">
          73 149 822 -62 callgsubr
          250 -888 rmoveto
          -102 callgsubr
          endchar
        </CharString>
        <CharString name="Amacron.ss01">
          93 159 822 -62 callgsubr
          215 -888 rmoveto
          -105 callgsubr
          endchar
        </CharString>
        <CharString name="Aogonek">
          73 401 -106 rmoveto
          36 31 46 25 24 vhcurveto
          19 -38 callgsubr
          688 rlineto
          -98 -38 callgsubr
          -688 rlineto
          75 hlineto
          47 191 rlineto
          211 hlineto
          47 -189 rlineto
          -34 -35 -25 -47 -40 vvcurveto
          -42 8 callsubr
          -7 -5 0 -5 hhcurveto
          -34 -11 18 24 hvcurveto
          -244 362 rmoveto
          86 341 rlineto
          5 hlineto
          85 -341 rlineto
          endchar
        </CharString>
        <CharString name="Aogonek.ss01">
          93 434 hmoveto
          15 389 hlineto
          243 -16 64 -176 -177 -16 -64 -243 vhcurveto
          -389 75 246 235 -245 vlineto
          -34 -35 -24 -46 -40 vvcurveto
          -42 22 -34 66 12 11 0 2 12 vhcurveto
          4 callsubr
          -7 -5 0 -4 hhcurveto
          -35 -11 18 24 36 31 46 26 24 hvcurveto
          -295 313 rmoveto
          110 vlineto
          171 6 36 112 111 6 -36 -171 vhcurveto
          -110 vlineto
          endchar
        </CharString>
        <CharString name="Aring">
          73 297 685 -63 callsubr
        </CharString>
        <CharString name="Aring.ss01">
          93 259 739 -90 callsubr
          115 -779 rmoveto
          -105 callgsubr
          endchar
        </CharString>
        <CharString name="Aringacute">
          73 343 1069 -69 callgsubr
          31 -248 -63 callsubr
        </CharString>
        <CharString name="Aringacute.ss01">
          93 227 949 -99 callgsubr
          29 -227 -90 callsubr
          118 -767 rmoveto
          -105 callgsubr
          endchar
        </CharString>
        <CharString name="Atilde">
          73 387 870 -106 callgsubr
          12 -870 rmoveto
          -102 callgsubr
          endchar
        </CharString>
        <CharString name="Atilde.ss01">
          93 399 870 -106 callgsubr
          -25 -870 rmoveto
          -105 callgsubr
          endchar
        </CharString>
        <CharString name="B">
          71 70 hmoveto
          205 hlineto
          140 29 84 97 86 -20 64 -88 19 hvcurveto
          4 vlineto
          72 16 30 53 93 vvcurveto
          106 -40 66 -119 vhcurveto
          -209 hlineto
          188 -306 rmoveto
          -114 240 114 hlineto
          84 21 -33 -87 -84 -35 -36 -70 hvcurveto
          3 -316 rmoveto
          -117 250 117 hlineto
          79 28 -34 -92 -89 -23 -35 -84 hvcurveto
          endchar
        </CharString>
        <CharString name="C">
          -21 368 4 -88 callsubr
        </CharString>
        <CharString name="Cacute">
          -21 168 747 -99 callgsubr
          200 -748 -88 callsubr
        </CharString>
        <CharString name="Cacute.loclPLK">
          -21 168 747 -72 callgsubr
          200 -748 -88 callsubr
        </CharString>
        <CharString name="Ccaron">
          -21 161 749 -97 callgsubr
          284 -878 -88 callsubr
        </CharString>
        <CharString name="Ccedilla">
          -21 271 58 rmoveto
          -131 -11 28 258 258 11 28 131 25 38 -4 -5 31 hvcurveto
          61 vlineto
          8 -26 -46 6 -38 hhcurveto
          -175 -27 -60 -292 -241 18 -82 102 -22 hvcurveto
          -59 -184 rlineto
          -5 70 vlineto
          39 183 rlineto
          -1 10 11 0 11 hhcurveto
          37 47 5 7 29 hvcurveto
          63 vlineto
          -5 -26 -41 -4 -30 hhcurveto
          endchar
        </CharString>
        <CharString name="Ccircumflex">
          -21 84 750 -106 callsubr
          284 -752 -88 callsubr
        </CharString>
        <CharString name="Cdotaccent">
          -21 165 -40 callsubr
          203 -871 -88 callsubr
        </CharString>
        <CharString name="D">
          76 70 hmoveto
          -76 callgsubr
          endchar
        </CharString>
        <CharString name="Dcaron">
          76 210 749 -97 callgsubr
          -63 -882 rmoveto
          -76 callgsubr
          endchar
        </CharString>
        <CharString name="Dcroat">
          -53 callsubr
        </CharString>
        <CharString name="E">
          12 70 hmoveto
          -92 callgsubr
          endchar
        </CharString>
        <CharString name="Eacute">
          11 208 750 -99 callgsubr
          -138 -755 rmoveto
          -92 callgsubr
          endchar
        </CharString>
        <CharString name="Ebreve">
          12 342 -80 callgsubr
          -272 -888 rmoveto
          -92 callgsubr
          endchar
        </CharString>
        <CharString name="Ecaron">
          12 192 749 -97 callgsubr
          -45 -882 rmoveto
          -92 callgsubr
          endchar
        </CharString>
        <CharString name="Ecircumflex">
          11 115 750 -106 callsubr
          -45 -756 rmoveto
          -92 callgsubr
          endchar
        </CharString>
        <CharString name="Edieresis">
          11 110 774 -88 callgsubr
          -218 -850 rmoveto
          -92 callgsubr
          endchar
        </CharString>
        <CharString name="Edotaccent">
          12 196 -40 callsubr
          -126 -875 rmoveto
          -92 callgsubr
          endchar
        </CharString>
        <CharString name="Egrave">
          11 220 750 -89 callsubr
          -73 -886 rmoveto
          -92 callgsubr
          endchar
        </CharString>
        <CharString name="Emacron">
          12 133 822 -62 callgsubr
          -63 -888 rmoveto
          -92 callgsubr
          endchar
        </CharString>
        <CharString name="Eng">
          107 386 688 rmoveto
          -516 -4 vlineto
          -233 516 rlineto
          -79 -688 72 529 4 hlineto
          240 -527 rlineto
          -83 -41 callsubr
          -56 vlineto
          106 35 9 123 hvcurveto
          749 vlineto
          endchar
        </CharString>
        <CharString name="Eogonek">
          11 354 -2 callgsubr
          -6 hhcurveto
          -33 -12 19 22 39 39 47 29 21 hvcurveto
          66 -249 249 216 66 -216 241 249 66 -324 -688 262 vlineto
          -39 -35 -28 -44 -44 vvcurveto
          -38 22 -35 67 vhcurveto
          endchar
        </CharString>
        <CharString name="Eth">
          -53 callsubr
        </CharString>
        <CharString name="Euro">
          25 292 -8 rmoveto
          43 46 6 6 22 hvcurveto
          63 vlineto
          -5 -20 -40 -4 -36 hhcurveto
          -110 -25 20 166 -5 hvcurveto
          195 50 -196 103 196 49 -195 hlineto
          164 5 25 20 110 hhcurveto
          30 41 -4 -5 23 hvcurveto
          61 vlineto
          7 -19 -46 7 -44 hhcurveto
          -150 -41 -46 -204 -8 hvcurveto
          -57 -49 55 -103 -55 -50 57 hlineto
          -211 7 40 -41 152 hhcurveto
          endchar
        </CharString>
        <CharString name="F">
          -13 70 hmoveto
          75 300 209 65 -209 257 235 66 -310 hlineto
          endchar
        </CharString>
        <CharString name="G">
          62 354 302 -94 callgsubr
          endchar
        </CharString>
        <CharString name="G.ss01">
          79 265 -8 -94 callsubr
          endchar
        </CharString>
        <CharString name="G_tilde.loclGUA">
          62 382 888 -106 callgsubr
          -28 -586 -94 callgsubr
          endchar
        </CharString>
        <CharString name="Gbreve">
          62 353 -80 callgsubr
          1 -586 -94 callgsubr
          endchar
        </CharString>
        <CharString name="Gbreve.ss01">
          79 361 -80 callgsubr
          -96 -896 -94 callsubr
          endchar
        </CharString>
        <CharString name="Gcaron">
          62 203 749 -97 callgsubr
          228 -580 -94 callgsubr
          endchar
        </CharString>
        <CharString name="Gcaron.ss01">
          79 211 749 -97 callgsubr
          131 -890 -94 callsubr
          endchar
        </CharString>
        <CharString name="Gcircumflex">
          62 126 750 -106 callsubr
          228 -454 -94 callgsubr
          endchar
        </CharString>
        <CharString name="Gcircumflex.ss01">
          79 134 750 -106 callsubr
          131 -764 -94 callsubr
          endchar
        </CharString>
        <CharString name="Gcommaaccent">
          62 354 302 -94 callgsubr
          -59 -522 -86 callsubr
        </CharString>
        <CharString name="Gcommaaccent.ss01">
          79 265 -8 -94 callsubr
          -64 -212 -86 callsubr
        </CharString>
        <CharString name="Gdotaccent">
          62 207 -40 callsubr
          147 -573 -94 callgsubr
          endchar
        </CharString>
        <CharString name="Gdotaccent.ss01">
          79 215 -40 callsubr
          50 -883 -94 callsubr
          endchar
        </CharString>
        <CharString name="Gtilde.loclGUA.ss01">
          79 390 888 -106 callgsubr
          -125 -896 -94 callsubr
          endchar
        </CharString>
        <CharString name="H">
          106 383 hmoveto
          -39 callgsubr
          endchar
        </CharString>
        <CharString name="Hbar">
          106 383 688 rmoveto
          -140 -239 140 -74 -688 74 285 239 -285 74 688 vlineto
          -313 -335 rmoveto
          132 239 -132 vlineto
          endchar
        </CharString>
        <CharString name="Hcircumflex">
          106 148 750 -106 callsubr
          235 -756 rmoveto
          -39 callgsubr
          endchar
        </CharString>
        <CharString name="I">
          -201 73 hmoveto
          -44 callsubr
          endchar
        </CharString>
        <CharString name="IJ">
          49 73 hmoveto
          -44 callsubr
          163 -625 -71 callgsubr
        </CharString>
        <CharString name="Iacute">
          -201 73 749 -99 callgsubr
          -754 vmoveto
          -44 callsubr
          endchar
        </CharString>
        <CharString name="Iacute_J.loclNLD">
          49 78 747 -99 callgsubr
          258 -5 -99 callgsubr
          -263 -752 rmoveto
          -44 callsubr
          163 -625 -71 callgsubr
        </CharString>
        <CharString name="Ibreve">
          -201 221 -80 callgsubr
          -148 -888 -51 callgsubr
        </CharString>
        <CharString name="Icircumflex">
          -201 -6 750 -106 callsubr
          79 -756 -51 callgsubr
        </CharString>
        <CharString name="Idieresis">
          -201 -12 774 -88 callgsubr
          -93 -850 -51 callgsubr
        </CharString>
        <CharString name="Idotaccent">
          -201 75 -40 callsubr
          -2 -875 -51 callgsubr
        </CharString>
        <CharString name="Igrave">
          -201 97 750 -89 callsubr
          53 -886 -51 callgsubr
        </CharString>
        <CharString name="Imacron">
          -201 12 822 -62 callgsubr
          61 -888 -51 callgsubr
        </CharString>
        <CharString name="Iogonek">
          -201 114 -2 callgsubr
          -5 hhcurveto
          -35 -11 18 24 37 36 48 26 21 hvcurveto
          688 -75 -688 13 vlineto
          -35 -34 -26 -46 -40 vvcurveto
          -42 22 -34 67 vhcurveto
          endchar
        </CharString>
        <CharString name="Itilde">
          -201 250 888 -106 callgsubr
          -177 -888 -51 callgsubr
        </CharString>
        <CharString name="J">
          -171 16 63 -71 callgsubr
        </CharString>
        <CharString name="Jcircumflex">
          -171 32 750 -106 callsubr
          -16 -693 -71 callgsubr
        </CharString>
        <CharString name="K">
          -38 callsubr
          endchar
        </CharString>
        <CharString name="Kcommaaccent">
          -38 callsubr
          -30 -536 -86 callsubr
        </CharString>
        <CharString name="L">
          -42 70 hmoveto
          12 callgsubr
        </CharString>
        <CharString name="Lacute">
          -42 92 747 -99 callgsubr
          -22 -752 10 callgsubr
        </CharString>
        <CharString name="Lcaron">
          -42 265 471 -41 callgsubr
          -209 -637 10 callgsubr
        </CharString>
        <CharString name="Lcommaaccent">
          -42 70 hmoveto
          -47 callsubr
          81 -908 -86 callsubr
        </CharString>
        <CharString name="Ldot">
          -42 70 hmoveto
          -47 callsubr
          198 -373 -81 callgsubr
        </CharString>
        <CharString name="Lslash">
          -42 145 68 rmoveto
          242 vlineto
          139 51 rlineto
          61 vlineto
          -139 -51 rlineto
          317 -75 -345 vlineto
          -49 -18 rlineto
          -61 vlineto
          49 18 rlineto
          -282 297 68 vlineto
          endchar
        </CharString>
        <CharString name="M">
          244 522 hmoveto
          73 688 -106 hlineto
          -153 -559 -27 callgsubr
          -152 559 rlineto
          -108 -688 71 557 4 hlineto
          152 -557 rlineto
          68 hlineto
          153 557 rlineto
          4 hlineto
          endchar
        </CharString>
        <CharString name="N">
          107 383 hmoveto
          -79 callsubr
          endchar
        </CharString>
        <CharString name="Nacute">
          107 232 747 -99 callgsubr
          151 -752 rmoveto
          -79 callsubr
          endchar
        </CharString>
        <CharString name="Nacute.loclPLK">
          107 232 747 -72 callgsubr
          151 -752 rmoveto
          -79 callsubr
          endchar
        </CharString>
        <CharString name="Ncaron">
          107 225 749 -97 callgsubr
          235 -882 rmoveto
          -79 callsubr
          endchar
        </CharString>
        <CharString name="Ncommaaccent">
          107 383 hmoveto
          -79 callsubr
          69 -749 -86 callsubr
        </CharString>
        <CharString name="Ntilde">
          107 405 871 -106 callgsubr
          -22 -871 rmoveto
          -79 callsubr
          endchar
        </CharString>
        <CharString name="O">
          97 259 -8 -104 callsubr
          endchar
        </CharString>
        <CharString name="OE">
          319 259 hmoveto
          443 66 -222 hlineto
          -19 -25 -3 -3 -15 hvcurveto
          35 40 8 78 1 137 rrcurveto
          203 66 -203 hlineto
          -1 131 -8 76 -34 39 rrcurveto
          -3 14 25 -2 19 hhcurveto
          222 66 -443 hlineto
          -192 -14 -57 -287 -287 14 -57 192 -21 callsubr
          -117 -13 11 267 267 13 11 117 117 13 -11 -267 -267 -13 -11 -117 hvcurveto
          endchar
        </CharString>
        <CharString name="Oacute">
          97 225 750 -99 callgsubr
          34 -763 -104 callsubr
          endchar
        </CharString>
        <CharString name="Oacute.loclPLK">
          97 227 747 -72 callgsubr
          32 -760 -104 callsubr
          endchar
        </CharString>
        <CharString name="Obreve">
          97 370 -80 callgsubr
          -111 -896 -104 callsubr
          endchar
        </CharString>
        <CharString name="Ocircumflex">
          97 143 750 -106 callsubr
          116 -764 -104 callsubr
          endchar
        </CharString>
        <CharString name="Odieresis">
          97 136 -28 callsubr
          -55 -859 -104 callsubr
          endchar
        </CharString>
        <CharString name="Ograve">
          97 238 750 -89 callsubr
          98 -894 -104 callsubr
          endchar
        </CharString>
        <CharString name="Ohorn">
          97 453 785 -91 callsubr
        </CharString>
        <CharString name="Ohungarumlaut">
          97 170 755 -79 callgsubr
          -44 -767 -104 callsubr
          endchar
        </CharString>
        <CharString name="Omacron">
          97 161 822 -62 callgsubr
          98 -896 -104 callsubr
          endchar
        </CharString>
        <CharString name="Oslash">
          95 422 648 -70 callgsubr
        </CharString>
        <CharString name="Oslashacute">
          95 355 883 -69 callgsubr
          144 -99 -70 callgsubr
        </CharString>
        <CharString name="Otilde">
          97 399 870 -106 callgsubr
          -140 -878 -104 callsubr
          endchar
        </CharString>
        <CharString name="P">
          44 70 hmoveto
          75 257 129 hlineto
          148 13 98 117 121 -13 95 -148 hvcurveto
          -204 hlineto
          75 -366 -7 callgsubr
        </CharString>
        <CharString name="Q">
          97 404 23 rmoveto
          55 42 6 91 188 vvcurveto
          293 -14 59 -192 -192 -14 -59 -293 -293 14 -59 192 31 26 2 3 23 vhcurveto
          61 -112 rlineto
          80 3 hlineto
          -221 170 rmoveto
          -117 -13 11 275 275 13 11 117 117 13 -11 -275 -146 -3 -72 -20 -34 hvcurveto
          -71 126 rlineto
          -77 hlineto
          87 -159 rlineto
          -1 -13 -16 0 -17 hhcurveto
          endchar
        </CharString>
        <CharString name="R">
          72 453 hmoveto
          -82 callgsubr
        </CharString>
        <CharString name="R.ss01">
          -61 callgsubr
          endchar
        </CharString>
        <CharString name="Racute">
          72 344 883 -69 callgsubr
          186 -747 rmoveto
          -82 callgsubr
        </CharString>
        <CharString name="Racute.ss01">
          76 346 883 -69 callgsubr
          168 -577 -93 callgsubr
          endchar
        </CharString>
        <CharString name="Rcaron">
          72 285 749 -42 callsubr
          245 -749 rmoveto
          -82 callgsubr
        </CharString>
        <CharString name="Rcaron.ss01">
          76 287 749 -42 callsubr
          227 -579 -93 callgsubr
          endchar
        </CharString>
        <CharString name="Rcommaaccent">
          -54 callgsubr
          -45 -490 -15 callsubr
        </CharString>
        <CharString name="Rcommaaccent.ss01">
          -61 callgsubr
          -47 -493 -15 callsubr
        </CharString>
        <CharString name="S">
          -69 callsubr
          endchar
        </CharString>
        <CharString name="Sacute">
          22 189 747 -99 callgsubr
          36 -760 -99 callsubr
          endchar
        </CharString>
        <CharString name="Sacute.loclPLK">
          22 189 747 -72 callgsubr
          36 -760 -99 callsubr
          endchar
        </CharString>
        <CharString name="Scaron">
          22 187 749 -97 callgsubr
          115 -890 -99 callsubr
          endchar
        </CharString>
        <CharString name="Scedilla">
          22 402 197 rmoveto
          56 -3 37 -9 22 vhcurveto
          -19 48 -34 13 -50 8 -112 18 rcurveline
          -52 9 -8 11 88 vvcurveto
          40 3 31 18 22 vhcurveto
          20 17 31 10 58 hhcurveto
          43 53 -5 -7 39 hvcurveto
          62 vlineto
          10 -37 -57 6 -58 hhcurveto
          -126 -59 -49 -142 -99 9 -62 88 -14 hvcurveto
          116 -18 rlineto
          70 -12 4 -10 -102 vvcurveto
          -49 -3 -37 -20 -19 vhcurveto
          -19 -20 -30 -6 -52 hhcurveto
          -38 -63 5 7 -47 hvcurveto
          -65 vlineto
          39 -6 51 -5 48 -1 -57 -178 rcurveline
          -5 70 vlineto
          39 182 rlineto
          118 5 40 56 144 vvcurveto
          endchar
        </CharString>
        <CharString name="Scircumflex">
          22 105 750 -106 callsubr
          120 -764 -99 callsubr
          endchar
        </CharString>
        <CharString name="Scommaaccent">
          -69 callsubr
          -53 -212 -86 callsubr
        </CharString>
        <CharString name="T">
          -31 callsubr
          endchar
        </CharString>
        <CharString name="Tbar">
          -8 397 620 rmoveto
          68 -381 -68 153 -248 -127 -60 127 -312 75 312 127 60 -127 248 vlineto
          endchar
        </CharString>
        <CharString name="Tcaron">
          -8 168 749 -97 callgsubr
          78 -882 rmoveto
          -19 callsubr
          endchar
        </CharString>
        <CharString name="Thorn">
          44 70 hmoveto
          75 135 129 hlineto
          148 13 99 116 121 -12 95 -149 hvcurveto
          -129 122 -75 hlineto
          75 -488 -7 callgsubr
        </CharString>
        <CharString name="U">
          93 374 688 -100 callgsubr
        </CharString>
        <CharString name="Uacute">
          93 229 750 -99 callgsubr
          145 -67 -100 callgsubr
        </CharString>
        <CharString name="Ubreve">
          -30 callsubr
          -200 -100 callgsubr
        </CharString>
        <CharString name="Ucircumflex">
          93 141 750 -106 callsubr
          233 -68 -100 callgsubr
        </CharString>
        <CharString name="Udieresis">
          93 134 -28 callsubr
          62 -163 -100 callgsubr
        </CharString>
        <CharString name="Ugrave">
          93 242 750 -89 callsubr
          209 -198 -100 callgsubr
        </CharString>
        <CharString name="Uhorn">
          93 485 785 -73 callgsubr
          -57 -423 hlineto
          -101 callgsubr
          351 vlineto
          74 3 14 25 74 vvcurveto
          33 vlineto
          endchar
        </CharString>
        <CharString name="Uhungarumlaut">
          93 168 755 -79 callgsubr
          73 -71 -100 callgsubr
        </CharString>
        <CharString name="Umacron">
          93 159 822 -62 callgsubr
          215 -200 -100 callgsubr
        </CharString>
        <CharString name="Uogonek">
          93 374 688 rmoveto
          -423 vlineto
          -172 -6 -35 -111 -111 -7 35 172 vhcurveto
          423 -75 -389 vlineto
          -244 16 -63 177 16 14 0 2 14 vhcurveto
          -32 -36 -22 -41 -37 vvcurveto
          -42 22 -34 67 11 9 0 2 15 vhcurveto
          4 callsubr
          -7 -6 0 -4 hhcurveto
          -35 -11 18 24 48 33 46 45 29 hvcurveto
          56 36 7 83 163 vvcurveto
          -13 callsubr
          endchar
        </CharString>
        <CharString name="Uring">
          93 256 727 -90 callsubr
          118 -79 -100 callgsubr
        </CharString>
        <CharString name="Utilde">
          93 397 888 -106 callgsubr
          -23 -200 -100 callgsubr
        </CharString>
        <CharString name="V">
          41 182 hmoveto
          98 hlineto
          171 688 rlineto
          -75 hlineto
          -141 -589 -27 callgsubr
          -141 589 rlineto
          -78 hlineto
          endchar
        </CharString>
        <CharString name="W">
          270 459 hmoveto
          -82 callsubr
        </CharString>
        <CharString name="Wacute">
          270 314 747 -99 callgsubr
          145 -752 rmoveto
          -82 callsubr
        </CharString>
        <CharString name="Wcircumflex">
          270 230 750 -106 callsubr
          229 -756 rmoveto
          -82 callsubr
        </CharString>
        <CharString name="Wdieresis">
          270 223 799 -88 callgsubr
          58 -875 rmoveto
          -82 callsubr
        </CharString>
        <CharString name="Wgrave">
          270 325 747 -89 callsubr
          211 -883 rmoveto
          -82 callsubr
        </CharString>
        <CharString name="X">
          63 383 hmoveto
          84 hlineto
          -177 348 175 340 rlineto
          -81 hlineto
          -138 -277 -6 callgsubr
          -138 277 rlineto
          -84 hlineto
          175 -342 -177 -346 rlineto
          81 hlineto
          139 282 rlineto
          6 hlineto
          endchar
        </CharString>
        <CharString name="Y">
          12 179 hmoveto
          -84 callgsubr
          endchar
        </CharString>
        <CharString name="Y.loclGUA">
          13 334 688 -93 callsubr
        </CharString>
        <CharString name="Yacute">
          12 191 750 -99 callgsubr
          -12 -755 rmoveto
          -84 callgsubr
          endchar
        </CharString>
        <CharString name="Yacute.loclGUA">
          13 314 883 -69 callgsubr
          97 -59 -93 callsubr
        </CharString>
        <CharString name="Ycircumflex">
          12 101 750 -106 callsubr
          78 -756 rmoveto
          -84 callgsubr
          endchar
        </CharString>
        <CharString name="Ycircumflex.loclGUA">
          13 217 847 -70 callsubr
          183 -62 -93 callsubr
        </CharString>
        <CharString name="Ydieresis">
          12 96 -28 callsubr
          -95 -851 rmoveto
          -84 callgsubr
          endchar
        </CharString>
        <CharString name="Ydieresis.loclGUA">
          13 162 875 -22 callsubr
          -6 -111 -93 callsubr
        </CharString>
        <CharString name="Ygrave">
          12 196 747 -89 callsubr
          60 -883 rmoveto
          -84 callgsubr
          endchar
        </CharString>
        <CharString name="Ygrave.loclGUA">
          13 248 747 -65 callsubr
          138 -59 -93 callsubr
        </CharString>
        <CharString name="Z">
          3 29 hmoveto
          -76 callsubr
          endchar
        </CharString>
        <CharString name="Zacute">
          3 180 747 -99 callgsubr
          -151 -752 rmoveto
          -76 callsubr
          endchar
        </CharString>
        <CharString name="Zacute.loclPLK">
          3 180 747 -72 callgsubr
          -151 -752 rmoveto
          -76 callsubr
          endchar
        </CharString>
        <CharString name="Zcaron">
          3 181 749 -97 callgsubr
          -75 -882 rmoveto
          -76 callsubr
          endchar
        </CharString>
        <CharString name="Zdotaccent">
          3 177 -40 callsubr
          -148 -875 rmoveto
          -76 callsubr
          endchar
        </CharString>
        <CharString name="a">
          4 166 -8 -107 callsubr
        </CharString>
        <CharString name="aacute">
          4 179 602 -99 callgsubr
          -13 -615 -107 callsubr
        </CharString>
        <CharString name="abreve">
          4 324 743 -103 callsubr
          -158 -96 callsubr
        </CharString>
        <CharString name="acircumflex">
          4 97 605 -106 callsubr
          69 -89 callgsubr
        </CharString>
        <CharString name="acute">
          -280 6 602 -99 callgsubr
          endchar
        </CharString>
        <CharString name="acute.case.loclPLK">
          -280 6 747 -72 callgsubr
          endchar
        </CharString>
        <CharString name="acute.loclPLK">
          -280 6 602 -72 callgsubr
          endchar
        </CharString>
        <CharString name="acutecomb">
          -135 602 -99 callgsubr
          endchar
        </CharString>
        <CharString name="acutecomb.case">
          -135 747 -99 callgsubr
          endchar
        </CharString>
        <CharString name="adieresis">
          4 91 652 -88 callgsubr
          -103 -736 -107 callsubr
        </CharString>
        <CharString name="ae">
          255 628 257 -75 callgsubr
        </CharString>
        <CharString name="aeacute">
          255 435 738 -69 callgsubr
          270 -345 -75 callgsubr
        </CharString>
        <CharString name="agrave">
          4 193 602 -89 callsubr
          50 -746 -107 callsubr
        </CharString>
        <CharString name="amacron">
          4 115 677 -62 callgsubr
          51 -96 callsubr
        </CharString>
        <CharString name="ampersand">
          108 355 379 rmoveto
          -318 vlineto
          -6 -28 -32 -2 -27 hhcurveto
          -102 -45 19 112 86 11 47 92 hvcurveto
          62 62 -62 hlineto
          -91 -7 64 62 95 18 34 141 37 58 -6 -8 44 hvcurveto
          58 vlineto
          10 -45 -67 8 -47 hhcurveto
          -173 -38 -69 -112 -100 29 -43 61 -19 hvcurveto
          -4 vlineto
          -61 -19 -34 -34 -112 vvcurveto
          -122 31 -70 185 51 67 8 9 43 vhcurveto
          308 85 62 vlineto
          endchar
        </CharString>
        <CharString name="aogonek">
          4 352 -148 rmoveto
          -35 -11 18 23 39 34 49 25 19 hvcurveto
          323 vlineto
          151 -27 44 -138 -52 -52 -6 -8 -37 vhcurveto
          -58 vlineto
          5 29 59 6 33 hhcurveto
          97 17 -12 -123 hvcurveto
          -36 vlineto
          2 -41 -65 3 -26 hhcurveto
          -99 -29 -37 -114 -116 42 -32 90 46 59 8 70 22 hvcurveto
          5 hlineto
          4 -70 rlineto
          3 hlineto
          -35 -35 -25 -44 -42 vvcurveto
          -40 22 -35 67 11 9 0 2 14 vhcurveto
          4 callsubr
          -7 -5 0 -4 hhcurveto
          -58 353 rmoveto
          -46 -4 -32 -11 -29 vhcurveto
          -41 -16 -35 -4 -39 hhcurveto
          -70 -15 16 76 81 15 12 61 hvcurveto
          114 hlineto
          endchar
        </CharString>
        <CharString name="approxequal">
          17 59 281 rmoveto
          44 hlineto
          40 4 14 27 23 26 -10 -9 26 vhcurveto
          -12 32 10 callsubr
          -41 -3 -14 -28 -22 -26 10 9 -26 vhcurveto
          12 -32 -34 13 -33 hhcurveto
          -64 -7 -34 -75 hvcurveto
          -175 vmoveto
          44 hlineto
          40 4 15 27 23 26 -10 -10 25 vhcurveto
          -12 33 10 callsubr
          -40 -3 -15 -28 -22 -26 11 8 -26 vhcurveto
          12 -32 -34 13 -33 hhcurveto
          -64 -7 -33 -76 hvcurveto
          endchar
        </CharString>
        <CharString name="aring">
          4 212 603 -90 callsubr
          -46 -651 -107 callsubr
        </CharString>
        <CharString name="aringacute">
          4 183 837 -99 callgsubr
          29 -230 -90 callsubr
          -46 -660 -107 callsubr
        </CharString>
        <CharString name="arrowboth">
          462 323 179 rmoveto
          -39 96 rlineto
          314 hlineto
          -38 -96 11 callgsubr
          -314 hlineto
          39 96 -268 -126 rlineto
          endchar
        </CharString>
        <CharString name="arrowdown">
          -26 198 -85 rmoveto
          125 268 -96 -39 rlineto
          544 -58 -544 vlineto
          -97 39 rlineto
          endchar
        </CharString>
        <CharString name="arrowdown.ss01">
          -76 173 171 rmoveto
          142 285 rlineto
          -285 hlineto
          endchar
        </CharString>
        <CharString name="arrowleft">
          462 278 275 rmoveto
          550 59 -550 hlineto
          39 96 -262 -126 262 -125 rlineto
          endchar
        </CharString>
        <CharString name="arrowleft.ss01">
          -58 315 201 rmoveto
          285 vlineto
          -285 -143 rlineto
          endchar
        </CharString>
        <CharString name="arrowright">
          462 560 179 rmoveto
          11 callgsubr
          -543 -59 543 hlineto
          endchar
        </CharString>
        <CharString name="arrowright.ss01">
          -58 48 201 rmoveto
          285 142 -285 143 rlineto
          endchar
        </CharString>
        <CharString name="arrowup">
          -26 169 -81 rmoveto
          58 542 hlineto
          96 -38 -125 268 -126 -268 97 38 rlineto
          endchar
        </CharString>
        <CharString name="arrowup.ss01">
          -76 30 231 rmoveto
          285 hlineto
          -142 285 rlineto
          endchar
        </CharString>
        <CharString name="arrowupdn">
          -39 callsubr
          endchar
        </CharString>
        <CharString name="arrowupdnbse">
          -39 callsubr
          -17 -363 rmoveto
          285 55 -285 hlineto
          endchar
        </CharString>
        <CharString name="asciicircum">
          -10 303 476 rmoveto
          62 hlineto
          -126 274 rlineto
          -67 hlineto
          -126 -274 rlineto
          62 hlineto
          98 220 rlineto
          endchar
        </CharString>
        <CharString name="asciitilde">
          17 378 362 rmoveto
          -46 callsubr
          -3 -14 -28 -22 -26 10 9 -25 vhcurveto
          11 -33 -33 13 -34 hhcurveto
          -64 -7 -33 -76 hvcurveto
          44 hlineto
          41 4 14 27 23 26 -10 -10 25 vhcurveto
          -12 33 33 -12 33 hhcurveto
          64 7 34 75 hvcurveto
          endchar
        </CharString>
        <CharString name="asterisk">
          -15 220 491 rmoveto
          113 -73 26 45 -120 60 119 60 -25 46 -113 -74 9 133 rlineto
          -52 hlineto
          7 -134 -111 74 -26 -45 119 -61 -119 -59 26 -45 111 73 -7 -132 rlineto
          52 hlineto
          endchar
        </CharString>
        <CharString name="asterisk.ss02">
          396 178 -14 rmoveto
          231 170 231 -170 -90 276 232 174 rlineto
          -288 hlineto
          -85 269 -87 -269 rlineto
          -287 hlineto
          234 -174 rlineto
          endchar
        </CharString>
        <CharString name="at">
          262 341 -108 rmoveto
          76 30 0 2 30 hvcurveto
          42 vlineto
          -2 -21 -62 -1 -52 hhcurveto
          -37 -31 1 1 -21 hvcurveto
          -144 12 -3 58 289 vvcurveto
          280 2 64 121 14 vhcurveto
          3 33 35 1 43 hhcurveto
          51 40 -2 -5 33 hvcurveto
          111 -16 2 -69 -270 vvcurveto
          -177 -12 -2 -32 vhcurveto
          -56 237 hlineto
          125 -19 41 -114 -43 -42 -4 -8 -32 vhcurveto
          -52 vlineto
          4 21 51 4 26 hhcurveto
          75 12 -10 -102 hvcurveto
          -30 vlineto
          2 -34 -52 2 -18 hhcurveto
          -80 -23 -32 -97 -99 33 -28 74 38 43 7 58 17 hvcurveto
          5 hlineto
          4 -58 rlineto
          106 hlineto
          71 25 6 213 352 -5 50 -275 -274 -6 -52 -350 -350 6 -52 274 hvcurveto
          -10 230 rmoveto
          -53 -10 14 63 69 10 9 45 hvcurveto
          89 -30 hlineto
          -98 -18 -27 -63 vhcurveto
          endchar
        </CharString>
        <CharString name="atilde">
          4 353 743 -106 callgsubr
          -187 -96 callsubr
        </CharString>
        <CharString name="b">
          29 257 -8 rmoveto
          115 31 53 210 208 -29 55 -116 -60 -40 -18 -52 -19 hvcurveto
          -5 295 -71 -743 62 hlineto
          4 70 rlineto
          6 hlineto
          -67 20 52 -11 50 hhcurveto
          -25 64 rmoveto
          -49 -27 17 44 -11 hvcurveto
          -10 36 -1 44 58 vvcurveto
          61 2 44 10 36 vhcurveto
          41 11 27 17 48 hhcurveto
          88 12 -22 -177 -178 -12 -21 -88 hvcurveto
          endchar
        </CharString>
        <CharString name="backslash">
          -131 207 -55 rmoveto
          65 hlineto
          -189 798 rlineto
          -66 hlineto
          endchar
        </CharString>
        <CharString name="bar">
          -195 80 -161 rmoveto
          66 904 -66 hlineto
          endchar
        </CharString>
        <CharString name="bar.ss02">
          77 -1 hmoveto
          500 696 -500 hlineto
          endchar
        </CharString>
        <CharString name="braceleft">
          -162 188 -150 rmoveto
          56 hlineto
          -43 43 -36 67 67 vvcurveto
          119 vlineto
          77 -22 54 -55 17 vhcurveto
          5 vlineto
          55 17 22 54 76 vvcurveto
          120 vlineto
          67 36 67 43 43 vhcurveto
          -56 hlineto
          -42 -27 -49 -75 -83 vvcurveto
          -116 vlineto
          -59 -15 -65 -61 -1 vhcurveto
          -42 vlineto
          61 -1 15 -64 -60 vvcurveto
          -116 vlineto
          -83 49 -74 42 -27 vhcurveto
          endchar
        </CharString>
        <CharString name="braceright">
          -162 14 -150 rmoveto
          56 hlineto
          42 27 49 74 83 vvcurveto
          116 vlineto
          60 14 64 62 1 vhcurveto
          42 vlineto
          -61 1 -15 65 59 vvcurveto
          116 vlineto
          83 -49 75 -42 27 vhcurveto
          -56 hlineto
          43 -44 37 -66 -67 vvcurveto
          -120 vlineto
          -76 21 -54 55 -17 vhcurveto
          -5 vlineto
          -55 -17 -21 -54 -77 vvcurveto
          -119 vlineto
          -67 -38 -68 -42 -42 vhcurveto
          endchar
        </CharString>
        <CharString name="bracketleft">
          -170 70 -150 rmoveto
          153 53 hlineto
          -86 4 rlineto
          779 vlineto
          86 4 rlineto
          53 -153 vlineto
          endchar
        </CharString>
        <CharString name="bracketleft.ss02">
          -24 397 hmoveto
          696 vlineto
          -207 -145 -143 -205 hvcurveto
          -348 vlineto
          endchar
        </CharString>
        <CharString name="bracketright">
          -170 28 -150 rmoveto
          153 893 -153 -53 hlineto
          86 -4 rlineto
          -779 vlineto
          -86 -4 rlineto
          endchar
        </CharString>
        <CharString name="bracketright.ss02">
          -24 0 vmoveto
          352 348 hlineto
          2 callsubr
          vhcurveto
          endchar
        </CharString>
        <CharString name="breve">
          -184 230 743 -103 callsubr
          endchar
        </CharString>
        <CharString name="brokenbar">
          -195 80 390 rmoveto
          66 353 -66 hlineto
          -904 vmoveto
          66 353 -66 hlineto
          endchar
        </CharString>
        <CharString name="bullet">
          -123 239 342 rmoveto
          79 -4 13 -88 -84 -4 -13 -79 -77 4 -12 84 88 4 12 77 vhcurveto
          endchar
        </CharString>
        <CharString name="bullet.ss02">
          362 392 421 rmoveto
          62 50 39 73 90 -76 73 -36 -37 -76 -73 -90 -73 50 -39 63 hvcurveto
          60 vmoveto
          -30 -23 18 34 57 36 46 17 17 35 -46 -57 -34 -23 -18 -29 hvcurveto
          -189 -250 rmoveto
          73 39 50 63 62 -39 50 -73 -90 -73 -76 -36 -37 73 -76 90 hvcurveto
          378 hmoveto
          89 73 76 37 36 -73 76 -89 -74 -39 -50 -62 -63 39 -50 74 hvcurveto
          -378 60 rmoveto
          -57 -46 36 17 17 46 35 57 34 18 -23 -29 -30 -18 -23 -34 hvcurveto
          378 hmoveto
          -35 -18 23 30 29 18 23 35 56 46 -35 -17 -17 -46 -36 -56 hvcurveto
          -189 -299 rmoveto
          36 76 73 90 73 -50 39 -62 -63 -50 -39 -73 -90 76 -73 37 hvcurveto
          60 vmoveto
          -17 -36 46 57 34 23 18 30 29 23 -18 -34 -57 -35 -46 -17 hvcurveto
          endchar
        </CharString>
        <CharString name="c">
          -70 317 5 -87 callsubr
        </CharString>
        <CharString name="cacute">
          -70 144 602 -99 callgsubr
          173 -602 -87 callsubr
        </CharString>
        <CharString name="cacute.loclPLK">
          -70 144 602 -72 callgsubr
          173 -602 -87 callsubr
        </CharString>
        <CharString name="caron">
          -177 83 604 -97 callgsubr
          endchar
        </CharString>
        <CharString name="caron.loclCSY">
          -255 34 445 -41 callgsubr
          endchar
        </CharString>
        <CharString name="ccaron">
          -70 137 604 -97 callgsubr
          257 -732 -87 callsubr
        </CharString>
        <CharString name="ccedilla">
          -70 225 53 rmoveto
          -93 -14 30 173 167 13 34 93 27 37 -4 -6 26 hvcurveto
          58 vlineto
          8 -25 -45 5 -36 hhcurveto
          -136 -25 -65 -198 -157 9 -79 93 -21 hvcurveto
          -59 -183 rlineto
          -5 70 vlineto
          39 182 rlineto
          11 hlineto
          37 43 5 8 27 hvcurveto
          59 vlineto
          -7 -26 -37 -4 -29 hhcurveto
          endchar
        </CharString>
        <CharString name="ccircumflex">
          -70 60 605 -106 callsubr
          257 -606 -87 callsubr
        </CharString>
        <CharString name="cdotaccent">
          -70 141 -36 callsubr
          176 -725 -87 callsubr
        </CharString>
        <CharString name="cedilla">
          -274 18 -10 callsubr
        </CharString>
        <CharString name="cent">
          -47 189 -8 rmoveto
          58 76 hlineto
          28 1 33 6 21 6 rrcurveto
          61 vlineto
          -6 -24 -45 -6 -26 hhcurveto
          -96 -13 37 176 175 13 37 95 34 31 -4 -6 28 hvcurveto
          61 vlineto
          -21 6 -32 5 -26 1 rrcurveto
          78 -58 -79 vlineto
          -115 -9 -24 -72 -194 vvcurveto
          -179 13 -84 126 -11 vhcurveto
          endchar
        </CharString>
        <CharString name="cent.bold">
          -47 329 142 rmoveto
          -25 -6 -27 -4 -30 -2 rrcurveto
          425 vlineto
          26 -1 29 -4 24 -5 rrcurveto
          61 vlineto
          -20 5 -28 5 -31 2 rrcurveto
          78 -58 -78 vlineto
          -106 -9 -33 -65 -202 vvcurveto
          -188 21 -77 118 -9 vhcurveto
          -76 58 76 vlineto
          33 1 24 5 25 7 rrcurveto
          -204 262 rmoveto
          147 9 48 55 13 vhcurveto
          -417 vlineto
          -54 13 -10 50 146 vvcurveto
          endchar
        </CharString>
        <CharString name="circumflex">
          -177 6 605 -106 callsubr
          endchar
        </CharString>
        <CharString name="colon">
          13 callsubr
          -510 vmoveto
          82 90 -82 hlineto
          endchar
        </CharString>
        <CharString name="comma">
          -227 36 -82 -14 callgsubr
        </CharString>
        <CharString name="copyright">
          151 286 -8 rmoveto
          6 callgsubr
          9 callgsubr
          hvcurveto
          36 5 callsubr
          170 7 -21 -295 -296 -7 -20 -170 hvcurveto
          18 126 rmoveto
          21 25 3 3 15 hvcurveto
          42 vlineto
          -3 -14 -21 -2 -17 hhcurveto
          -64 -5 14 132 133 5 14 64 15 21 -2 -3 15 hvcurveto
          41 vlineto
          4 -13 -25 3 -22 hhcurveto
          -94 -15 -33 -157 -158 14 -31 95 hvcurveto
          endchar
        </CharString>
        <CharString name="currency">
          140 90 -2 rmoveto
          90 90 rlineto
          -12 23 32 -4 45 hhcurveto
          44 33 4 13 24 hvcurveto
          90 -91 43 42 -87 87 rlineto
          22 40 3 68 111 vvcurveto
          109 -3 66 -22 40 vhcurveto
          87 87 -42 42 -91 -90 rlineto
          12 -24 -33 4 -44 hhcurveto
          -45 -32 -4 -11 -24 hvcurveto
          -90 90 -42 -43 86 -86 rlineto
          -23 -39 -3 -67 -110 vvcurveto
          -113 3 -68 23 -39 vhcurveto
          -86 -86 rlineto
          233 93 rmoveto
          -99 -3 29 184 181 3 29 99 98 3 -29 -181 -184 -3 -29 -98 hvcurveto
          endchar
        </CharString>
        <CharString name="d">
          29 -77 callgsubr
          26 64 rmoveto
          -58 callsubr
        </CharString>
        <CharString name="dagger">
          -74 147 hmoveto
          48 hlineto
          7 451 -24 callsubr
          endchar
        </CharString>
        <CharString name="daggerdbl">
          -75 147 hmoveto
          48 hlineto
          7 175 99 7 rlineto
          47 vlineto
          -99 7 rlineto
          215 vlineto
          -24 callsubr
          -215 vlineto
          -94 -7 rlineto
          -47 vlineto
          94 -7 rlineto
          endchar
        </CharString>
        <CharString name="dcaron">
          41 -77 callgsubr
          226 453 -41 callgsubr
          -214 -555 rmoveto
          -58 callsubr
        </CharString>
        <CharString name="dcroat">
          29 442 688 rmoveto
          -55 55 -71 -55 -115 -60 115 -180 -5 hlineto
          52 -19 -40 18 -61 hhcurveto
          -115 -29 -55 -209 -210 30 -52 115 51 51 11 67 21 -26 callgsubr
          628 55 hlineto
          -137 -512 rmoveto
          -43 -11 -27 -17 -49 hhcurveto
          -72 callsubr
          endchar
        </CharString>
        <CharString name="degree">
          -107 157 -23 callgsubr
          43 vmoveto
          -8 callgsubr
          endchar
        </CharString>
        <CharString name="dialog">
          384 306 -212 rmoveto
          213 212 rlineto
          227 688 -687 -688 247 60 -187 568 567 -568 -192 hlineto
          -188 -187 rlineto
          endchar
        </CharString>
        <CharString name="dieresis">
          -133 21 654 -88 callgsubr
          endchar
        </CharString>
        <CharString name="divide">
          63 209 388 rmoveto
          66 68 -66 hlineto
          -147 -233 -17 callgsubr
          147 -234 rmoveto
          66 69 -66 hlineto
          endchar
        </CharString>
        <CharString name="dollar">
          -3 184 -8 rmoveto
          57 77 hlineto
          84 7 41 40 108 vvcurveto
          115 -27 23 -69 10 vhcurveto
          -96 14 rlineto
          -40 6 -11 8 69 vvcurveto
          69 26 18 70 1 vhcurveto
          37 54 -6 -6 34 hvcurveto
          60 vlineto
          -23 7 -44 6 -36 1 rrcurveto
          77 -57 -78 vlineto
          -81 -6 -52 -33 -115 vvcurveto
          -90 19 -40 80 -12 vhcurveto
          93 -14 rlineto
          39 -6 12 -3 -78 vvcurveto
          -68 -18 -23 -78 -53 -49 5 7 -33 vhcurveto
          -61 vlineto
          30 -7 50 -5 41 -1 rrcurveto
          endchar
        </CharString>
        <CharString name="dollar.bold">
          -3 366 224 rmoveto
          115 -27 23 -68 10 vhcurveto
          -30 4 rlineto
          180 vlineto
          34 -2 41 -3 28 -6 rrcurveto
          60 vlineto
          -25 8 -38 4 -40 2 rrcurveto
          77 -57 -78 vlineto
          -90 -8 -43 -40 -106 vvcurveto
          -90 19 -40 79 -12 vhcurveto
          35 -5 rlineto
          -187 vlineto
          -49 1 -43 5 -29 6 rrcurveto
          -61 vlineto
          32 -7 48 -4 41 -2 rrcurveto
          -76 57 77 vlineto
          87 8 38 40 107 vvcurveto
          -193 162 rmoveto
          -39 6 -11 8 69 vvcurveto
          59 21 21 40 5 vhcurveto
          -170 vlineto
          57 -251 rmoveto
          176 vlineto
          4 -1 rlineto
          39 -6 10 -5 -76 vvcurveto
          -54 -13 -25 -40 -9 vhcurveto
          endchar
        </CharString>
        <CharString name="dotaccent">
          -316 18 -36 callsubr
          endchar
        </CharString>
        <CharString name="dotbelowcomb">
          -138 -152 -81 callgsubr
        </CharString>
        <CharString name="dotlessi">
          -225 63 hmoveto
          -52 callgsubr
        </CharString>
        <CharString name="e">
          7 380 255 -104 callgsubr
          endchar
        </CharString>
        <CharString name="eacute">
          7 319 738 -69 callgsubr
          138 -347 -104 callgsubr
          endchar
        </CharString>
        <CharString name="ebreve">
          7 212 601 rmoveto
          107 6 59 83 hvcurveto
          -50 hlineto
          -62 -1 -34 -62 -60 -1 34 62 vhcurveto
          -50 hlineto
          -83 5 -59 106 vhcurveto
          168 -346 -104 callgsubr
          endchar
        </CharString>
        <CharString name="ecaron">
          7 252 604 -42 callsubr
          205 -349 -104 callgsubr
          endchar
        </CharString>
        <CharString name="ecircumflex">
          7 218 702 -70 callsubr
          228 -350 -104 callgsubr
          endchar
        </CharString>
        <CharString name="edieresis">
          7 164 728 -22 callsubr
          38 -397 -104 callgsubr
          endchar
        </CharString>
        <CharString name="edotaccent">
          7 247 730 3 callsubr
          133 -399 -104 callgsubr
          endchar
        </CharString>
        <CharString name="egrave">
          7 252 602 -65 callsubr
          180 -347 -104 callgsubr
          endchar
        </CharString>
        <CharString name="eight">
          69 245 -8 callsubr
          60 15 27 47 100 vvcurveto
          127 -42 54 -148 -148 -43 -54 -127 -100 28 -47 60 -15 vhcurveto
          -4 vlineto
          -60 -18 -32 -29 -118 vvcurveto
          -129 33 -63 162 vhcurveto
          388 vmoveto
          -94 -21 24 101 101 19 25 96 6 callsubr
          -92 -28 19 109 114 23 17 97 97 23 11 callsubr
        </CharString>
        <CharString name="eight.dnom">
          -124 149 -4 -95 callgsubr
        </CharString>
        <CharString name="eight.numr">
          -124 149 304 -95 callgsubr
        </CharString>
        <CharString name="eight.tnum">
          62 242 -8 callsubr
          59 15 28 47 100 vvcurveto
          127 -43 54 -147 -149 -42 -54 -127 -100 28 -47 59 -15 vhcurveto
          -4 vlineto
          -60 -18 -31 -29 -118 vvcurveto
          -129 32 -63 163 vhcurveto
          388 vmoveto
          -94 -22 24 101 101 19 25 97 6 callsubr
          -93 -27 19 109 114 22 17 98 96 24 11 callsubr
        </CharString>
        <CharString name="ellipsis">
          161 56 hmoveto
          82 90 -82 hlineto
          194 -90 rmoveto
          82 90 -82 hlineto
          194 -90 -81 callgsubr
        </CharString>
        <CharString name="emacron">
          7 312 743 12 callsubr
          68 -422 -104 callgsubr
          endchar
        </CharString>
        <CharString name="emdash">
          403 55 274 rmoveto
          714 60 -714 hlineto
          endchar
        </CharString>
        <CharString name="endash">
          6 55 274 rmoveto
          318 60 -318 hlineto
          endchar
        </CharString>
        <CharString name="eng">
          32 261 518 rmoveto
          -34 callgsubr
          hvcurveto
          -48 callgsubr
          -510 71 265 hlineto
          116 2 73 96 77 13 -17 -139 vhcurveto
          -379 -41 callsubr
          -56 vlineto
          105 35 9 123 hvcurveto
          383 vlineto
          -45 callsubr
          vhcurveto
          endchar
        </CharString>
        <CharString name="eogonek">
          7 380 255 rmoveto
          197 -6 66 -153 -164 -10 -72 -192 -201 18 -61 161 22 23 2 1 22 vhcurveto
          -38 -34 -25 -42 -42 vvcurveto
          -38 22 -35 67 13 11 1 1 11 vhcurveto
          4 callsubr
          -7 -5 0 -5 hhcurveto
          -34 -11 19 22 40 43 51 31 22 hvcurveto
          -98 callgsubr
          endchar
        </CharString>
        <CharString name="equal">
          63 62 313 -17 callgsubr
          -240 vmoveto
          360 59 -360 hlineto
          endchar
        </CharString>
        <CharString name="estimated">
          97 128 323 rmoveto
          336 21 hlineto
          -10 callgsubr
          152 37 35 173 9 vhcurveto
          -36 hlineto
          -164 -9 -33 -10 -117 hhcurveto
          -117 -16 10 287 -1 hvcurveto
          131 339 rmoveto
          115 15 -11 -294 hvcurveto
          -261 hlineto
          294 16 11 115 vhcurveto
          endchar
        </CharString>
        <CharString name="eth">
          20 14 callsubr
          56 -3 51 -7 49 hvcurveto
          -10 76 -21 76 -28 60 56 9 rcurveline
          50 vlineto
          -83 -13 -14 22 -15 19 -14 16 rlinecurve
          -76 -4 hlineto
          16 -19 16 -21 17 -24 -73 -11 rcurveline
          -50 vlineto
          99 16 21 -42 16 -46 12 -50 rlinecurve
          -4 -2 rlineto
          18 -21 -30 10 -43 hhcurveto
          -146 -10 -63 -201 -207 10 -55 163 hvcurveto
          60 vmoveto
          -102 0 33 -1 callgsubr
          -33 -101 hvcurveto
          endchar
        </CharString>
        <CharString name="exclam">
          -212 80 191 rmoveto
          -56 callsubr
          -15 -191 -81 callgsubr
        </CharString>
        <CharString name="exclam.case">
          -212 80 191 rmoveto
          -56 callsubr
          -15 -191 -81 callgsubr
        </CharString>
        <CharString name="exclam.ss02">
          373 397 -8 rmoveto
          194 158 158 194 194 -158 158 -194 -194 -158 -158 -194 -194 158 -158 194 hvcurveto
          45 vmoveto
          -169 -138 138 169 169 138 138 169 169 138 -138 -169 -169 -138 -138 -169 hvcurveto
          -20 231 rmoveto
          40 hlineto
          7 46 7 89 77 vvcurveto
          99 -68 -99 vlineto
          -77 7 -89 7 -46 vhcurveto
          -14 -159 rmoveto
          68 82 -68 hlineto
          endchar
        </CharString>
        <CharString name="exclamdbl">
          -37 80 191 rmoveto
          -56 callsubr
          176 hmoveto
          -56 callsubr
          -191 -191 rmoveto
          82 90 -82 hlineto
          176 -90 -81 callgsubr
        </CharString>
        <CharString name="exclamdown">
          -216 62 420 -33 callsubr
        </CharString>
        <CharString name="exclamdown.case">
          -213 62 598 -33 callsubr
        </CharString>
        <CharString name="f">
          -140 94 hmoveto
          -66 callgsubr
          endchar
        </CharString>
        <CharString name="f_f">
          141 94 hmoveto
          -66 callgsubr
          281 -449 rmoveto
          -66 callgsubr
          endchar
        </CharString>
        <CharString name="fi">
          56 94 hmoveto
          -66 callgsubr
          248 211 -28 callgsubr
          2 -21 callgsubr
        </CharString>
        <CharString name="five">
          18 54 13 callgsubr
          157 35 61 158 128 -23 68 -144 -35 -41 -4 -5 -24 hvcurveto
          224 231 66 -302 -360 vlineto
          9 47 51 5 30 hhcurveto
          110 25 -18 -122 -110 -22 15 callsubr
        </CharString>
        <CharString name="five.dnom">
          -153 35 47 -67 callgsubr
          endchar
        </CharString>
        <CharString name="five.numr">
          -153 35 355 -67 callgsubr
          endchar
        </CharString>
        <CharString name="five.tnum">
          62 76 13 callgsubr
          156 35 61 158 128 -23 68 -143 -35 -42 -4 -5 -24 hvcurveto
          224 231 66 -301 -360 vlineto
          9 47 50 5 30 hhcurveto
          111 24 -18 -122 -110 -21 15 callsubr
        </CharString>
        <CharString name="fiveeighths">
          262 135 -9 callgsubr
          -432 -333 -67 callgsubr
          500 -359 -95 callgsubr
        </CharString>
        <CharString name="fl">
          56 94 hmoveto
          -66 callgsubr
          250 -449 rmoveto
          -13 callgsubr
          endchar
        </CharString>
        <CharString name="florin">
          -87 338 687 rmoveto
          12 56 rlineto
          -132 -38 -15 -209 -43 hvcurveto
          -2 -9 rlineto
          -74 hlineto
          -13 -61 rlineto
          74 hlineto
          -106 -498 rlineto
          -75 -16 -18 -12 -77 hhcurveto
          -12 -55 rlineto
          128 38 13 188 41 hvcurveto
          93 439 rlineto
          94 hlineto
          13 61 rlineto
          -94 hlineto
          3 14 rlineto
          152 31 12 11 86 hhcurveto
          endchar
        </CharString>
        <CharString name="four">
          47 287 -1 callsubr
          -177 hlineto
          182 459 rlineto
          -79 hlineto
          -182 -466 rlineto
          -59 255 vlineto
          endchar
        </CharString>
        <CharString name="four.dnom">
          -141 169 hmoveto
          -32 callsubr
        </CharString>
        <CharString name="four.numr">
          -141 169 308 rmoveto
          -32 callsubr
        </CharString>
        <CharString name="four.ss01">
          48 287 hmoveto
          75 163 73 66 -73 459 -98 hlineto
          -232 -466 rlineto
          -59 255 vlineto
          -181 66 rmoveto
          182 365 rlineto
          -365 vlineto
          endchar
        </CharString>
        <CharString name="four.tnum">
          62 302 -1 callsubr
          -189 hlineto
          194 459 rlineto
          -80 hlineto
          -193 -466 rlineto
          -59 267 vlineto
          endchar
        </CharString>
        <CharString name="fraction">
          -303 -133 -9 callgsubr
          endchar
        </CharString>
        <CharString name="g">
          29 199 -199 -101 callsubr
        </CharString>
        <CharString name="g_tilde.loclGUA">
          29 365 743 -106 callgsubr
          -166 -942 -101 callsubr
        </CharString>
        <CharString name="gbreve">
          29 336 743 -103 callsubr
          -137 -942 -101 callsubr
        </CharString>
        <CharString name="gcaron">
          29 186 604 -97 callgsubr
          90 -936 -101 callsubr
        </CharString>
        <CharString name="gcircumflex">
          29 109 605 -106 callsubr
          90 -810 -101 callsubr
        </CharString>
        <CharString name="gcommaaccent">
          29 283 -16 callsubr
          -84 -960 -101 callsubr
        </CharString>
        <CharString name="gdotaccent">
          29 190 -36 callsubr
          9 -929 -101 callsubr
        </CharString>
        <CharString name="germandbls">
          43 250 hmoveto
          142 23 65 178 132 -32 50 -66 13 hvcurveto
          4 vlineto
          64 13 28 39 89 vvcurveto
          120 -46 47 -127 -125 -48 -50 -144 vhcurveto
          -556 70 556 vlineto
          106 28 27 74 76 27 -24 -88 -79 -21 -31 -71 vhcurveto
          -23 -61 23 hlineto
          76 22 -29 -138 -164 -12 -14 -96 hvcurveto
          -33 -61 hlineto
          endchar
        </CharString>
        <CharString name="grave">
          -280 83 602 -89 callsubr
          endchar
        </CharString>
        <CharString name="gravecomb">
          -58 602 -89 callsubr
          endchar
        </CharString>
        <CharString name="gravecomb.case">
          -58 747 -89 callsubr
          endchar
        </CharString>
        <CharString name="greater">
          63 62 66 5 callgsubr
          -63 vlineto
          293 -124 -293 -124 rlineto
          endchar
        </CharString>
        <CharString name="greaterequal">
          63 62 187 5 callgsubr
          -64 vlineto
          293 -123 -293 -124 rlineto
          1 -220 rmoveto
          359 60 -359 hlineto
          endchar
        </CharString>
        <CharString name="guillemotleft">
          -59 127 103 rmoveto
          52 hlineto
          -82 203 82 204 rlineto
          -52 hlineto
          -97 -204 rlineto
          228 -203 rmoveto
          52 hlineto
          -81 203 81 204 rlineto
          -52 hlineto
          -97 -204 rlineto
          endchar
        </CharString>
        <CharString name="guillemotright">
          -59 52 103 -18 callsubr
          81 -204 rlineto
          50 -203 -18 callsubr
          82 -204 rlineto
          endchar
        </CharString>
        <CharString name="guilsinglleft">
          -190 126 103 rmoveto
          52 hlineto
          -81 203 81 204 rlineto
          -52 hlineto
          -96 -204 rlineto
          endchar
        </CharString>
        <CharString name="guilsinglright">
          -190 52 103 -18 callsubr
          81 -204 rlineto
          endchar
        </CharString>
        <CharString name="h">
          32 322 hmoveto
          -60 callsubr
          endchar
        </CharString>
        <CharString name="hbar">
          32 261 518 rmoveto
          -77 -31 -33 -36 -14 hvcurveto
          -5 179 114 60 -114 55 -71 -55 -55 -60 55 -628 71 265 hlineto
          116 2 73 96 77 13 -17 -139 vhcurveto
          -298 71 323 vlineto
          137 -18 58 -114 vhcurveto
          endchar
        </CharString>
        <CharString name="hcircumflex">
          32 -18 783 -106 callsubr
          340 -789 rmoveto
          -60 callsubr
          endchar
        </CharString>
        <CharString name="hookabovecomb">
          -161 610 rmoveto
          47 hlineto
          18 2 3 35 12 vhcurveto
          14 6 rlineto
          41 14 -105 callsubr
          endchar
        </CharString>
        <CharString name="hookabovecomb.case">
          -161 735 rmoveto
          47 hlineto
          18 2 3 35 12 vhcurveto
          14 5 rlineto
          41 15 -105 callsubr
          endchar
        </CharString>
        <CharString name="house">
          102 33 hmoveto
          457 hlineto
          1 377 -201 320 rlineto
          -57 hlineto
          -201 -320 rlineto
          63 -323 rmoveto
          311 vlineto
          166 268 167 -268 rlineto
          -311 vlineto
          endchar
        </CharString>
        <CharString name="hungarumlaut">
          -134 19 610 -79 callgsubr
          endchar
        </CharString>
        <CharString name="hyphen">
          1 callsubr
        </CharString>
        <CharString name="i">
          -12 callgsubr
          endchar
        </CharString>
        <CharString name="i.loclTRK">
          -225 63 -36 callsubr
          -730 vmoveto
          -52 callgsubr
        </CharString>
        <CharString name="iacute">
          -225 63 602 -99 callgsubr
          -607 vmoveto
          -52 callgsubr
        </CharString>
        <CharString name="iacute_j.loclNLD">
          -29 66 602 -99 callgsubr
          196 -5 -99 callgsubr
          -199 -607 rmoveto
          -35 callsubr
          127 -703 -73 callsubr
        </CharString>
        <CharString name="ibreve">
          -225 209 743 -103 callsubr
          -146 -21 callgsubr
        </CharString>
        <CharString name="icircumflex">
          -225 -17 605 -106 callsubr
          80 -611 -52 callsubr
        </CharString>
        <CharString name="idieresis">
          -225 -24 652 -88 callgsubr
          -91 -728 -52 callsubr
        </CharString>
        <CharString name="igrave">
          -225 82 602 -89 callsubr
          58 -738 -52 callsubr
        </CharString>
        <CharString name="ij">
          -29 2 callgsubr
          196 -83 -28 callgsubr
          -194 -743 rmoveto
          -35 callsubr
          127 -703 -73 callsubr
        </CharString>
        <CharString name="imacron">
          -225 677 vmoveto
          196 66 -196 hlineto
          63 -21 callgsubr
        </CharString>
        <CharString name="infinity">
          370 216 51 rmoveto
          107 45 62 74 28 hvcurveto
          -74 28 44 -62 107 hhcurveto
          129 35 73 132 131 -35 74 -129 -107 -44 -63 -73 -28 hvcurveto
          73 -28 -45 63 -107 hhcurveto
          -128 -36 -74 -131 -132 36 -73 128 hvcurveto
          3 56 rmoveto
          -85 -20 53 96 95 20 54 85 93 31 -71 -78 20 hvcurveto
          -78 -20 -31 -71 -93 hhcurveto
          353 hmoveto
          -92 -32 71 78 -20 hvcurveto
          78 20 32 71 92 hhcurveto
          85 20 -54 -95 -96 -20 -53 -85 hvcurveto
          endchar
        </CharString>
        <CharString name="integral">
          -78 50 -190 rmoveto
          117 58 6 106 6 0 13 -4 58 hvcurveto
          -34 550 rlineto
          -1 18 0 11 7 vvcurveto
          46 21 10 82 vhcurveto
          55 vlineto
          -118 -58 -7 -105 -6 1 -15 1 -18 hvcurveto
          34 -546 rlineto
          4 -61 0 -14 -5 vvcurveto
          -44 -22 -9 -81 vhcurveto
          endchar
        </CharString>
        <CharString name="iogonek">
          -225 132 730 3 callsubr
          -14 -802 rmoveto
          -34 -11 18 24 37 35 48 26 21 hvcurveto
          -43 callsubr
          -510 9 vlineto
          -35 -35 -26 -44 -42 vvcurveto
          -41 8 callsubr
          -8 -4 0 -5 hhcurveto
          endchar
        </CharString>
        <CharString name="itilde">
          -225 238 743 -106 callgsubr
          -175 -21 callgsubr
        </CharString>
        <CharString name="j">
          15 callgsubr
          -67 -936 -73 callsubr
        </CharString>
        <CharString name="jcircumflex">
          -225 -18 605 -106 callsubr
          12 -804 -73 callsubr
        </CharString>
        <CharString name="k">
          -47 callgsubr
          454 -71 -743 71 227 53 hlineto
          endchar
        </CharString>
        <CharString name="kcommaaccent">
          -47 callgsubr
          454 -71 -743 71 227 53 hlineto
          -32 -447 -86 callsubr
        </CharString>
        <CharString name="kgreenlandic">
          -47 callgsubr
          221 -71 -510 71 227 53 hlineto
          endchar
        </CharString>
        <CharString name="l">
          -225 -7 callsubr
          endchar
        </CharString>
        <CharString name="lacute">
          -225 66 780 -99 callgsubr
          -3 -785 rmoveto
          -13 callgsubr
          endchar
        </CharString>
        <CharString name="lcaron">
          -209 -7 callsubr
          102 -298 -41 callgsubr
          endchar
        </CharString>
        <CharString name="lcommaaccent">
          -225 -7 callsubr
          -14 -963 -86 callsubr
        </CharString>
        <CharString name="ldot">
          -172 -7 callsubr
          119 -489 rmoveto
          81 90 -81 hlineto
          endchar
        </CharString>
        <CharString name="leftOpenDialog">
          204 626 628 rmoveto
          60 -626 -688 626 60 -566 568 vlineto
          endchar
        </CharString>
        <CharString name="less">
          63 422 66 rmoveto
          63 vlineto
          -293 124 293 124 rlineto
          63 vlineto
          -359 -153 rlineto
          -69 vlineto
          endchar
        </CharString>
        <CharString name="lessequal">
          63 422 187 rmoveto
          63 vlineto
          -293 124 293 123 rlineto
          64 vlineto
          -359 -153 rlineto
          -69 vlineto
          -1 -309 -17 callgsubr
          endchar
        </CharString>
        <CharString name="logicalnot">
          62 360 72 rmoveto
          61 212 -359 -61 298 hlineto
          endchar
        </CharString>
        <CharString name="longs">
          -153 94 hmoveto
          71 609 hlineto
          67 17 11 78 vhcurveto
          56 vlineto
          -122 -44 -11 -136 hvcurveto
          -86 -74 -61 74 vlineto
          endchar
        </CharString>
        <CharString name="lozenge">
          13 184 hmoveto
          65 hlineto
          139 344 -139 345 rlineto
          -65 hlineto
          -139 -345 rlineto
          172 -283 rmoveto
          -110 283 110 283 109 -283 rlineto
          endchar
        </CharString>
        <CharString name="lslash">
          -218 64 hmoveto
          71 341 hlineto
          53 19 rlineto
          62 vlineto
          -53 -19 rlineto
          340 -71 -365 vlineto
          -49 -17 rlineto
          -62 vlineto
          49 17 rlineto
          endchar
        </CharString>
        <CharString name="m">
          268 558 hmoveto
          71 323 hlineto
          138 -18 57 -109 -75 -33 -33 -46 -15 vhcurveto
          -6 hlineto
          56 -13 -30 23 -75 hhcurveto
          -75 -31 -34 -45 -14 hvcurveto
          -48 callgsubr
          -510 71 265 hlineto
          117 3 72 92 71 10 -17 -139 vhcurveto
          -298 71 265 vlineto
          124 3 65 92 71 11 -17 -139 vhcurveto
          endchar
        </CharString>
        <CharString name="macron">
          -112 57 677 -62 callgsubr
          endchar
        </CharString>
        <CharString name="minus">
          63 62 223 -17 callgsubr
          endchar
        </CharString>
        <CharString name="minute">
          -255 38 385 -18 callgsubr
          endchar
        </CharString>
        <CharString name="multiply">
          13 217 210 rmoveto
          113 -113 43 42 -114 113 114 113 -42 43 -114 -114 -113 114 -43 -42 114 -114 -113 -113 42 -42 rlineto
          endchar
        </CharString>
        <CharString name="n">
          32 322 hmoveto
          -85 callgsubr
        </CharString>
        <CharString name="nacute">
          32 194 602 -99 callgsubr
          128 -607 rmoveto
          -85 callgsubr
        </CharString>
        <CharString name="nacute.loclPLK">
          32 194 602 -72 callgsubr
          128 -607 rmoveto
          -85 callgsubr
        </CharString>
        <CharString name="napostrophe">
          71 -20 callgsubr
          354 -585 rmoveto
          -85 callgsubr
        </CharString>
        <CharString name="ncaron">
          32 187 604 -97 callgsubr
          212 -737 rmoveto
          -85 callgsubr
        </CharString>
        <CharString name="ncommaaccent">
          32 322 hmoveto
          -84 callsubr
          -145 -518 -86 callsubr
        </CharString>
        <CharString name="nine">
          55 213 -8 rmoveto
          106 54 28 79 29 hvcurveto
          18 49 3 85 118 vvcurveto
          112 -2 78 -12 47 vhcurveto
          88 -24 -50 20 -109 hhcurveto
          -152 -30 -54 -171 -169 48 -23 120 89 28 26 24 14 hvcurveto
          5 hlineto
          -228 -15 -43 -133 -34 -54 5 7 -41 vhcurveto
          -61 vlineto
          -10 42 60 -7 40 hhcurveto
          19 352 rmoveto
          -96 -18 9 137 125 21 15 93 88 26 -20 -148 -88 -10 -30 -104 hvcurveto
          endchar
        </CharString>
        <CharString name="nine.dnom">
          -134 128 -4 -64 callgsubr
        </CharString>
        <CharString name="nine.numr">
          -134 128 304 -64 callgsubr
        </CharString>
        <CharString name="nine.ss01">
          55 137 hmoveto
          85 hlineto
          98 108 111 165 195 vvcurveto
          171 -39 57 -156 -157 -37 -64 -146 -152 30 -56 132 66 33 10 24 22 vhcurveto
          3 -2 -43 -139 -93 -106 -55 -60 rlinecurve
          99 338 rmoveto
          -89 -31 2 142 117 24 26 96 89 30 -15 -144 -108 -33 -20 -86 hvcurveto
          endchar
        </CharString>
        <CharString name="nine.tnum">
          62 218 -8 rmoveto
          104 54 27 69 27 hvcurveto
          21 57 4 86 120 vvcurveto
          134 -3 84 -20 46 vhcurveto
          66 -28 -51 15 -95 hhcurveto
          -153 -29 -54 -171 -169 48 -23 120 88 28 26 24 15 hvcurveto
          5 hlineto
          -228 -16 -43 -133 -34 -53 5 7 -42 vhcurveto
          -61 vlineto
          -10 43 59 -7 41 hhcurveto
          18 352 rmoveto
          -95 -19 9 137 125 22 15 92 89 26 -20 -148 -88 -10 -30 -105 hvcurveto
          endchar
        </CharString>
        <CharString name="notequal">
          63 207 133 rmoveto
          215 59 -186 hlineto
          61 121 rlineto
          125 60 -95 hlineto
          58 116 rlineto
          -56 hlineto
          -58 -116 rlineto
          -209 -60 179 hlineto
          -61 -121 rlineto
          -118 -59 89 hlineto
          -56 -112 rlineto
          56 hlineto
          endchar
        </CharString>
        <CharString name="ntilde">
          32 371 743 -106 callgsubr
          -49 -743 rmoveto
          -85 callgsubr
        </CharString>
        <CharString name="numbersign">
          105 255 hmoveto
          58 hlineto
          30 194 rlineto
          93 55 -83 hlineto
          30 183 rlineto
          79 55 -70 hlineto
          33 201 rlineto
          -57 hlineto
          -33 -201 rlineto
          -120 hlineto
          32 201 rlineto
          -57 hlineto
          -33 -201 rlineto
          -87 -55 78 hlineto
          -29 -183 rlineto
          -75 -55 65 hlineto
          -31 -194 rlineto
          57 hlineto
          31 194 rlineto
          121 hlineto
          39 238 rmoveto
          -29 -183 rlineto
          -122 hlineto
          30 183 rlineto
          endchar
        </CharString>
        <CharString name="o">
          18 220 -8 -103 callgsubr
          endchar
        </CharString>
        <CharString name="oacute">
          18 184 602 -99 callgsubr
          36 -615 -103 callgsubr
          endchar
        </CharString>
        <CharString name="oacute.loclPLK">
          18 188 602 -72 callgsubr
          32 -615 -103 callgsubr
          endchar
        </CharString>
        <CharString name="obreve">
          18 331 743 -103 callsubr
          -111 -751 -103 callgsubr
          endchar
        </CharString>
        <CharString name="ocircumflex">
          18 105 605 -106 callsubr
          115 -619 -103 callgsubr
          endchar
        </CharString>
        <CharString name="odieresis">
          18 98 652 -88 callgsubr
          -56 -736 -103 callgsubr
          endchar
        </CharString>
        <CharString name="oe">
          282 656 255 rmoveto
          197 -7 66 -152 -74 -41 -17 -40 -25 vhcurveto
          43 -23 -41 14 -74 hhcurveto
          -159 -13 -50 -213 -214 13 -49 159 76 40 14 45 23 hvcurveto
          -43 26 43 -16 75 hhcurveto
          49 58 6 8 32 hvcurveto
          -86 callgsubr
          263 hlineto
          -161 226 rmoveto
          72 20 -16 -145 hvcurveto
          -12 -194 vlineto
          149 11 24 91 vhcurveto
          -275 -405 rmoveto
          -98 -4 26 176 175 4 27 98 98 3 -27 -175 -176 -3 -26 -98 hvcurveto
          endchar
        </CharString>
        <CharString name="ogonek">
          -298 123 -194 rmoveto
          -42 callgsubr
        </CharString>
        <CharString name="ograve">
          18 201 602 -89 callsubr
          96 -746 -103 callgsubr
          endchar
        </CharString>
        <CharString name="ohorn">
          18 396 607 -90 callgsubr
        </CharString>
        <CharString name="ohungarumlaut">
          18 138 610 -79 callgsubr
          -51 -622 -103 callgsubr
          endchar
        </CharString>
        <CharString name="omacron">
          18 122 677 -62 callgsubr
          98 -751 -103 callgsubr
          endchar
        </CharString>
        <CharString name="one">
          -147 124 hmoveto
          -26 callsubr
          -54 hlineto
          -117 -69 rlineto
          -70 vlineto
          96 48 rlineto
          endchar
        </CharString>
        <CharString name="one.dnom">
          -246 76 hmoveto
          0 callgsubr
        </CharString>
        <CharString name="one.numr">
          -246 76 308 rmoveto
          0 callgsubr
        </CharString>
        <CharString name="one.tnum">
          62 85 hmoveto
          342 66 -129 622 -53 hlineto
          -156 -79 rlineto
          -68 vlineto
          134 60 rlineto
          -535 -138 vlineto
          endchar
        </CharString>
        <CharString name="oneeighth">
          191 -53 callgsubr
          51 -692 -95 callgsubr
        </CharString>
        <CharString name="onehalf">
          172 97 317 rmoveto
          53 371 -38 hlineto
          -67 -40 rlineto
          -50 vlineto
          52 26 rlineto
          296 64 rmoveto
          -332 -688 rlineto
          52 hlineto
          333 688 rlineto
          -50 -611 rmoveto
          30 3 14 20 12 vhcurveto
          73 42 rlineto
          35 21 14 24 60 vvcurveto
          90 -42 9 -54 -28 -39 -4 -5 -29 vhcurveto
          -46 vlineto
          4 33 34 3 18 hhcurveto
          42 12 -10 -46 -33 -6 -13 -24 -15 hvcurveto
          -25 -14 -27 -16 -24 -15 rrcurveto
          -35 -22 -2 -22 -77 vvcurveto
          -48 196 48 -145 vlineto
          endchar
        </CharString>
        <CharString name="onequarter">
          124 -53 callgsubr
          17 14 callgsubr
          -42 hlineto
          -10 -138 rlineto
          -85 hlineto
          94 246 rlineto
          -55 hlineto
          -95 -254 rlineto
          -39 140 vlineto
          endchar
        </CharString>
        <CharString name="ordfeminine">
          -93 128 313 rmoveto
          31 36 8 40 21 hvcurveto
          4 hlineto
          4 -43 rlineto
          52 235 hlineto
          110 -20 33 -102 -36 -40 -4 -7 -28 vhcurveto
          -47 vlineto
          5 31 38 3 19 hhcurveto
          70 11 -9 -84 hvcurveto
          -24 vlineto
          1 -29 -44 2 -21 hhcurveto
          -72 -20 -27 -82 -85 29 -25 66 hvcurveto
          18 49 rmoveto
          -47 -11 11 53 54 11 10 40 hvcurveto
          80 -22 hlineto
          -29 -2 -26 -7 -16 vhcurveto
          -25 -12 -20 -10 -32 hhcurveto
          endchar
        </CharString>
        <CharString name="ordmasculine">
          -80 171 313 rmoveto
          116 10 38 152 154 -10 39 -116 -118 -10 -39 -154 -152 10 -38 118 hvcurveto
          49 vmoveto
          -68 -2 19 122 124 2 20 68 67 2 -20 -124 -122 -2 -19 -67 hvcurveto
          endchar
        </CharString>
        <CharString name="orn.001">
          -84 289 341 rmoveto
          105 -6 17 -117 -112 -6 -17 -105 -102 6 -16 112 117 6 16 102 vhcurveto
          endchar
        </CharString>
        <CharString name="orn.002">
          128 210 -58 callgsubr
          63 101 -55 callgsubr
          121 87 -14 callsubr
          -29 -21 22 28 29 21 21 29 28 22 -21 -29 -28 -22 -22 -28 hvcurveto
          endchar
        </CharString>
        <CharString name="orn.003">
          -6 211 -58 callgsubr
          63 101 -55 callgsubr
          63 101 -33 callgsubr
          endchar
        </CharString>
        <CharString name="orn.007">
          -84 168 222 rmoveto
          67 54 53 67 67 -54 54 -67 -67 -53 -54 -67 -67 53 -53 67 hvcurveto
          endchar
        </CharString>
        <CharString name="orn.010">
          373 397 hmoveto
          352 348 hlineto
          2 callsubr
          -6 callsubr
          vhcurveto
          endchar
        </CharString>
        <CharString name="orn.015">
          -2 callsubr
          187 60 -187 hlineto
          187 -272 rmoveto
          213 212 rlineto
          167 60 -192 hlineto
          -188 -187 rlineto
          endchar
        </CharString>
        <CharString name="orn.016">
          -2 callsubr
          567 60 -567 hlineto
          endchar
        </CharString>
        <CharString name="orn.017">
          -361 0 vmoveto
          60 688 -60 hlineto
          endchar
        </CharString>
        <CharString name="orn.018">
          371 211 -58 callgsubr
          370 hmoveto
          99 62 67 110 126 vvcurveto
          125 -67 111 -99 62 vhcurveto
          -32 -51 rlineto
          82 -51 56 -92 -104 vvcurveto
          -105 -55 -91 -83 -52 vhcurveto
          -275 51 -55 callgsubr
          244 hmoveto
          65 41 44 73 83 vvcurveto
          83 -44 73 -66 41 vhcurveto
          -32 -51 rlineto
          49 -31 33 -54 -61 vvcurveto
          -62 -33 -53 -48 -31 vhcurveto
          -149 50 -33 callgsubr
          118 hmoveto
          -29 callsubr
        </CharString>
        <CharString name="orn.019">
          128 338 -56 callgsubr
          -89 36 -14 callsubr
          -28 -22 22 28 29 22 21 28 29 21 -21 -29 -28 -21 -22 -29 hvcurveto
          endchar
        </CharString>
        <CharString name="orn.020">
          -6 204 -56 callgsubr
          -31 50 rmoveto
          -29 callsubr
        </CharString>
        <CharString name="orn.021">
          332 376 -116 rmoveto
          117 61 215 189 230 vvcurveto
          188 -149 144 -183 -183 -148 -144 -188 -229 214 -190 117 -61 vhcurveto
          endchar
        </CharString>
        <CharString name="orn.022">
          -32 171 220 rmoveto
          98 80 83 40 40 -80 83 -98 -81 -42 -55 -68 -68 42 -55 81 hvcurveto
          endchar
        </CharString>
        <CharString name="oslash">
          18 392 565 -68 callsubr
        </CharString>
        <CharString name="oslashacute">
          18 317 738 -69 callgsubr
          152 -37 -68 callsubr
        </CharString>
        <CharString name="otilde">
          18 361 743 -106 callgsubr
          -141 -751 -103 callgsubr
          endchar
        </CharString>
        <CharString name="p">
          29 63 -193 rmoveto
          71 255 8 callgsubr
          209 210 -31 52 -115 -50 -52 -11 -68 -20 hvcurveto
          -48 callgsubr
          hlineto
          169 -454 rmoveto
          -51 -27 19 55 -12 hvcurveto
          -7 28 -1 41 56 vvcurveto
          56 1 43 8 35 vhcurveto
          47 12 27 -5 callgsubr
        </CharString>
        <CharString name="paragraph">
          12 202 -144 rmoveto
          58 832 -58 hlineto
          -156 -8 -31 -203 -203 8 -29 156 hvcurveto
          107 -366 rmoveto
          57 832 -57 hlineto
          endchar
        </CharString>
        <CharString name="parenleft">
          -175 174 -150 rmoveto
          57 hlineto
          -66 111 -33 51 285 vvcurveto
          284 33 51 66 111 vhcurveto
          -57 hlineto
          -83 -126 -29 -58 -262 vvcurveto
          -263 28 -55 84 -129 vhcurveto
          endchar
        </CharString>
        <CharString name="parenleft.ss02">
          -24 397 hmoveto
          696 vlineto
          -6 callsubr
          hvcurveto
          endchar
        </CharString>
        <CharString name="parenright">
          -175 14 -150 rmoveto
          57 hlineto
          84 129 29 55 263 vvcurveto
          262 -30 58 -83 126 vhcurveto
          -57 hlineto
          66 -111 34 -51 -284 vvcurveto
          -285 -34 -51 -66 -111 vhcurveto
          endchar
        </CharString>
        <CharString name="parenright.ss02">
          -24 0 vmoveto
          207 145 144 204 2 callsubr
          hvcurveto
          endchar
        </CharString>
        <CharString name="partialdiff">
          18 14 callsubr
          58 -4 52 -9 66 hvcurveto
          -15 110 -47 117 -64 68 rrcurveto
          -76 -4 hlineto
          58 -66 41 -82 25 -99 -4 -2 rcurveline
          18 -22 -33 10 -40 hhcurveto
          -145 -10 -62 -202 -207 10 -55 163 hvcurveto
          61 vmoveto
          -102 0 32 -1 callgsubr
          -32 -101 hvcurveto
          endchar
        </CharString>
        <CharString name="percent">
          215 158 311 rmoveto
          96 11 34 158 157 -11 36 -96 -96 -12 -36 -157 -158 12 -34 96 hvcurveto
          -33 -311 rmoveto
          52 hlineto
          334 688 rlineto
          -52 hlineto
          -301 -332 rmoveto
          -50 -6 8 139 139 6 8 50 49 6 -8 -139 -139 -6 -8 -49 hvcurveto
          321 -364 rmoveto
          96 12 34 158 157 -12 36 -96 -96 -11 -36 -157 -158 11 -34 96 hvcurveto
          45 vmoveto
          -49 -6 8 139 139 6 8 49 50 6 -8 -139 -139 -6 -8 -50 hvcurveto
          endchar
        </CharString>
        <CharString name="period">
          -227 56 hmoveto
          82 90 -82 hlineto
          endchar
        </CharString>
        <CharString name="periodcentered">
          -227 56 254 -81 callgsubr
        </CharString>
        <CharString name="perthousand">
          342 145 359 rmoveto
          85 10 31 137 138 -10 31 -85 -84 -11 -31 -138 -137 11 -31 84 hvcurveto
          -70 -359 rmoveto
          51 hlineto
          337 688 rlineto
          -51 hlineto
          -267 -287 -19 callgsubr
          248 -409 rmoveto
          85 10 30 138 137 -10 32 -85 -84 -11 -32 -137 -138 11 -30 84 hvcurveto
          225 hmoveto
          85 11 30 138 137 -11 32 -85 -83 -12 -32 -137 -138 12 -30 83 hvcurveto
          -225 42 -19 callgsubr
          225 hmoveto
          -42 -5 5 121 121 5 6 42 43 5 -6 -121 -121 -5 -5 -43 hvcurveto
          endchar
        </CharString>
        <CharString name="pi">
          29 316 hmoveto
          71 510 -324 -510 71 450 182 hlineto
          endchar
        </CharString>
        <CharString name="plus">
          63 212 73 rmoveto
          59 150 151 60 -151 149 -59 -149 -150 -60 150 hlineto
          endchar
        </CharString>
        <CharString name="plusminus">
          63 212 195 rmoveto
          59 150 151 60 -151 150 -59 -150 -150 -60 150 hlineto
          -150 -315 -17 callgsubr
          endchar
        </CharString>
        <CharString name="product">
          107 383 -190 rmoveto
          75 878 -388 -878 74 812 239 hlineto
          endchar
        </CharString>
        <CharString name="q">
          29 316 -193 rmoveto
          71 703 -63 hlineto
          -4 -71 -6 callgsubr
          68 -21 -51 11 -51 hhcurveto
          -115 -30 -53 -210 -209 29 -54 115 61 40 18 52 19 hvcurveto
          5 hlineto
          -98 -6 4 callgsubr
          178 178 12 21 88 48 28 -17 -42 11 hvcurveto
          10 -38 1 -44 -58 vvcurveto
          -57 -1 -42 -8 -32 vhcurveto
          -49 -12 -27 -19 -50 hhcurveto
          endchar
        </CharString>
        <CharString name="question">
          -61 callsubr
        </CharString>
        <CharString name="question.case">
          -61 callsubr
        </CharString>
        <CharString name="questiondown">
          -98 184 420 -59 callgsubr
        </CharString>
        <CharString name="questiondown.case">
          -65 185 598 -59 callgsubr
        </CharString>
        <CharString name="quotedbl">
          -127 1 callgsubr
          139 -166 rmoveto
          49 hlineto
          10 166 rlineto
          77 -70 -77 vlineto
          endchar
        </CharString>
        <CharString name="quotedblbase">
          -92 37 -81 rmoveto
          -22 callgsubr
          -50 -5 -14 -45 vhcurveto
          137 hmoveto
          -34 vlineto
          84 15 -4 callgsubr
          -50 -6 -14 -45 vhcurveto
          endchar
        </CharString>
        <CharString name="quotedblleft">
          -108 -16 callgsubr
          138 -80 rmoveto
          80 87 -33 17 hlineto
          50 6 14 45 vhcurveto
          34 vlineto
          -84 -14 -25 -97 hvcurveto
          endchar
        </CharString>
        <CharString name="quotedblright">
          -108 -20 callsubr
          138 hmoveto
          -22 callgsubr
          -51 -6 -13 -44 vhcurveto
          endchar
        </CharString>
        <CharString name="quoteleft">
          -245 -16 callgsubr
          endchar
        </CharString>
        <CharString name="quoteright">
          -245 -20 callsubr
          endchar
        </CharString>
        <CharString name="quotesinglbase">
          -230 37 -81 rmoveto
          -22 callgsubr
          -50 -5 -14 -45 vhcurveto
          endchar
        </CharString>
        <CharString name="quotesingle">
          -255 1 callgsubr
          endchar
        </CharString>
        <CharString name="r">
          -29 callgsubr
          endchar
        </CharString>
        <CharString name="racute">
          -136 111 602 -99 callgsubr
          -48 -607 rmoveto
          -74 callsubr
          endchar
        </CharString>
        <CharString name="radical">
          66 208 -106 rmoveto
          87 hlineto
          167 876 rlineto
          -69 hlineto
          -146 -796 -122 352 -109 -50 17 -46 46 21 rlineto
          endchar
        </CharString>
        <CharString name="rcaron">
          -136 104 604 -97 callgsubr
          36 -737 rmoveto
          -74 callsubr
          endchar
        </CharString>
        <CharString name="rcommaaccent">
          -29 callgsubr
          -14 -730 -86 callsubr
        </CharString>
        <CharString name="registered">
          151 286 696 rmoveto
          9 callgsubr
          6 callgsubr
          hvcurveto
          -668 5 callsubr
          169 8 -21 -295 -296 -8 -20 -169 hvcurveto
          104 389 rmoveto
          62 -6 50 -82 vhcurveto
          -113 -372 48 146 61 hlineto
          3 hlineto
          45 -146 rlineto
          50 hlineto
          -49 155 rlineto
          38 16 5 44 45 vvcurveto
          -101 -71 rmoveto
          -52 139 54 hlineto
          46 4 -20 -48 -48 -2 -23 -50 hvcurveto
          endchar
        </CharString>
        <CharString name="rightCloseDialog">
          202 624 688 rmoveto
          -625 -60 565 -568 -190 hlineto
          -188 -187 rlineto
          -85 vlineto
          213 212 rlineto
          225 hlineto
          -438 60 rmoveto
          -187 -60 187 hlineto
          endchar
        </CharString>
        <CharString name="rightOpenDialog">
          203 625 688 rmoveto
          -626 -60 566 -568 -566 -60 626 hlineto
          endchar
        </CharString>
        <CharString name="ring">
          -201 109 612 -90 callsubr
          endchar
        </CharString>
        <CharString name="s">
          -64 callsubr
          endchar
        </CharString>
        <CharString name="sacute">
          -44 157 602 -99 callgsubr
          30 -615 -96 callgsubr
          endchar
        </CharString>
        <CharString name="sacute.loclPLK">
          -44 157 602 -72 callgsubr
          30 -615 -96 callgsubr
          endchar
        </CharString>
        <CharString name="scaron">
          -44 153 604 -97 callgsubr
          111 -745 -96 callgsubr
          endchar
        </CharString>
        <CharString name="scedilla">
          -44 340 141 rmoveto
          111 -27 22 -60 8 vhcurveto
          -97 13 rlineto
          -40 6 -9 8 65 vvcurveto
          71 31 13 58 43 49 -5 -7 30 vhcurveto
          58 vlineto
          8 -28 -52 6 -42 hhcurveto
          -96 -62 -24 -125 -87 17 -37 65 -9 hvcurveto
          100 -15 rlineto
          40 -6 10 -3 -73 vvcurveto
          -55 -10 -32 -78 -47 -50 5 6 -35 vhcurveto
          -59 vlineto
          28 -6 43 -4 39 -1 -57 -178 rcurveline
          -5 70 vlineto
          39 183 rlineto
          86 5 42 37 106 vvcurveto
          endchar
        </CharString>
        <CharString name="scircumflex">
          -44 73 605 -106 callsubr
          114 -619 -96 callgsubr
          endchar
        </CharString>
        <CharString name="scommaaccent">
          -64 callsubr
          -47 -212 -86 callsubr
        </CharString>
        <CharString name="second">
          -133 38 385 -18 callgsubr
          104 -303 -18 callgsubr
          endchar
        </CharString>
        <CharString name="section">
          87 236 -171 rmoveto
          104 69 28 131 53 -9 31 -24 22 hvcurveto
          64 15 21 53 85 vvcurveto
          121 -35 16 -79 28 vhcurveto
          -122 42 rlineto
          -40 14 -12 9 64 vvcurveto
          73 33 16 74 48 54 -5 -6 24 vhcurveto
          63 vlineto
          7 -23 -55 7 -56 hhcurveto
          -104 -69 -29 -130 -54 8 -31 25 -22 hvcurveto
          -64 -15 -21 -52 -86 vvcurveto
          -121 35 -16 78 -27 vhcurveto
          125 -42 rlineto
          38 -14 12 -9 -64 vvcurveto
          -74 -33 -16 -74 -49 -53 6 6 -24 vhcurveto
          -63 vlineto
          -7 23 55 -7 56 hhcurveto
          98 303 rmoveto
          -6 -9 3 5 -16 hvcurveto
          -140 47 rlineto
          -31 11 -14 12 79 vvcurveto
          74 28 29 28 6 9 -3 -6 19 vhcurveto
          142 -48 rlineto
          25 -9 15 -12 -80 vvcurveto
          -74 -28 -28 -28 vhcurveto
          endchar
        </CharString>
        <CharString name="semicolon">
          13 callsubr
          -20 -592 -14 callgsubr
        </CharString>
        <CharString name="seven">
          -18 88 hmoveto
          80 hlineto
          205 629 rlineto
          59 -348 -66 269 vlineto
          endchar
        </CharString>
        <CharString name="seven.dnom">
          -175 52 hmoveto
          -25 callgsubr
          endchar
        </CharString>
        <CharString name="seven.numr">
          -175 52 308 rmoveto
          -25 callgsubr
          endchar
        </CharString>
        <CharString name="seven.tnum">
          62 124 hmoveto
          81 hlineto
          222 629 rlineto
          59 -372 -66 292 vlineto
          endchar
        </CharString>
        <CharString name="seveneighths">
          205 78 -9 callgsubr
          -358 -380 rmoveto
          -25 callgsubr
          306 -644 -95 callgsubr
        </CharString>
        <CharString name="six">
          55 250 0 callsubr
          -89 -28 -26 -24 -14 hvcurveto
          -5 hlineto
          228 15 43 133 35 53 -5 -7 41 vhcurveto
          61 vlineto
          10 -43 -60 7 -39 hhcurveto
          -115 -53 -33 -92 -25 hvcurveto
          -14 -49 -3 -79 -106 vvcurveto
          -115 2 -77 12 -39 vhcurveto
          -95 26 51 -19 106 hhcurveto
          -6 66 rmoveto
          -88 -26 20 148 88 10 30 104 96 19 -9 -137 -125 -22 -15 -93 hvcurveto
          endchar
        </CharString>
        <CharString name="six.dnom">
          -134 151 -4 -63 callgsubr
        </CharString>
        <CharString name="six.numr">
          -134 151 304 -63 callgsubr
        </CharString>
        <CharString name="six.ss01">
          55 239 -8 rmoveto
          157 38 64 146 152 -31 56 -131 -67 -33 -11 -23 -21 hvcurveto
          -4 2 38 114 75 102 78 88 rlinecurve
          6 -86 vlineto
          -102 -114 -106 -166 -188 vvcurveto
          -171 39 -57 156 vhcurveto
          66 vmoveto
          -89 -30 15 144 108 34 20 85 89 32 -3 -141 -118 -25 -25 -96 hvcurveto
          endchar
        </CharString>
        <CharString name="six.tnum">
          62 252 0 callsubr
          -79 -35 -21 -29 -17 hvcurveto
          -5 hlineto
          228 16 43 133 34 53 -5 -7 42 vhcurveto
          61 vlineto
          10 -43 -59 7 -41 hhcurveto
          -101 -53 -25 -72 -31 hvcurveto
          -21 -50 -3 -87 -125 vvcurveto
          -117 2 -78 13 -43 vhcurveto
          -88 25 51 -19 105 hhcurveto
          -5 66 rmoveto
          -89 -25 20 148 88 10 30 104 95 19 -9 -137 -125 -21 -15 -93 hvcurveto
          endchar
        </CharString>
        <CharString name="slash">
          -131 17 -55 rmoveto
          65 hlineto
          190 798 rlineto
          -65 hlineto
          endchar
        </CharString>
        <CharString name="space">
          -229 endchar
        </CharString>
        <CharString name="sterling">
          20 171 66 rmoveto
          258 165 65 -165 49 vlineto
          92 8 53 32 26 vhcurveto
          16 19 28 5 41 hhcurveto
          25 38 -4 -5 27 hvcurveto
          62 vlineto
          7 -25 -44 6 -35 hhcurveto
          -145 -44 -69 -194 hvcurveto
          -44 -55 -65 55 -258 -55 -66 356 66 vlineto
          endchar
        </CharString>
        <CharString name="summation">
          100 67 -190 rmoveto
          388 66 -300 hlineto
          223 373 -223 373 rlineto
          300 66 -388 -62 hlineto
          223 -377 -223 -377 rlineto
          endchar
        </CharString>
        <CharString name="t">
          -148 94 hmoveto
          -44 callgsubr
          endchar
        </CharString>
        <CharString name="tbar">
          -148 253 449 rmoveto
          61 -88 148 -71 -148 -74 -61 74 -168 -67 -60 67 -221 71 221 84 60 -84 168 vlineto
          endchar
        </CharString>
        <CharString name="tcaron">
          -117 282 445 -41 callgsubr
          -202 -611 rmoveto
          -44 callgsubr
          endchar
        </CharString>
        <CharString name="thorn">
          29 63 -190 rmoveto
          71 252 8 callgsubr
          208 211 -31 52 -115 -57 -43 -17 -56 -18 hvcurveto
          -5 -30 callgsubr
          hlineto
          169 -687 rmoveto
          -52 -27 20 60 -12 hvcurveto
          -6 25 -1 40 54 vvcurveto
          55 1 42 7 32 vhcurveto
          52 12 28 -5 callgsubr
        </CharString>
        <CharString name="three">
          2 181 -8 rmoveto
          159 33 70 122 112 -36 -37 callgsubr
          34 -15 -110 -103 -39 -36 callgsubr
        </CharString>
        <CharString name="three.dnom">
          -163 111 -4 -75 callsubr
          endchar
        </CharString>
        <CharString name="three.numr">
          -163 111 304 -75 callsubr
          endchar
        </CharString>
        <CharString name="three.tnum">
          62 217 -8 rmoveto
          159 34 70 122 112 -37 -37 callgsubr
          35 -15 -110 -103 -40 -36 callgsubr
        </CharString>
        <CharString name="threeeighths">
          252 111 304 -75 callsubr
          14 -304 rmoveto
          -5 callsubr
          68 -692 -95 callgsubr
        </CharString>
        <CharString name="threequarters">
          185 47 363 rmoveto
          -45 vlineto
          -6 29 35 -3 24 hhcurveto
          7 callgsubr
          31 14 14 23 47 vvcurveto
          73 -26 30 -79 -25 -36 -4 -6 -25 vhcurveto
          -46 vlineto
          5 32 27 3 18 hhcurveto
          43 18 -10 -51 -50 -19 -9 -21 hvcurveto
          -56 -46 56 hlineto
          30 13 -18 -46 -53 -21 -8 -39 -18 -32 2 4 -33 hvcurveto
          76 -363 rmoveto
          52 hlineto
          333 688 rlineto
          -53 hlineto
          16 14 callgsubr
          -41 hlineto
          -11 -138 rlineto
          -84 hlineto
          94 246 rlineto
          -56 hlineto
          -94 -254 rlineto
          -39 139 vlineto
          endchar
        </CharString>
        <CharString name="tilde">
          -128 287 743 -106 callgsubr
          endchar
        </CharString>
        <CharString name="tildecomb">
          -6 743 -106 callgsubr
          endchar
        </CharString>
        <CharString name="tildecomb.case">
          -6 888 -106 callgsubr
          endchar
        </CharString>
        <CharString name="trademark">
          137 105 384 rmoveto
          40 268 68 36 -176 -36 68 hlineto
          149 -268 rmoveto
          37 236 4 hlineto
          62 -236 rlineto
          34 hlineto
          61 236 rlineto
          4 -236 38 304 -55 hlineto
          -62 -240 rlineto
          -4 hlineto
          -63 240 rlineto
          -56 hlineto
          endchar
        </CharString>
        <CharString name="two">
          15 119 116 rmoveto
          55 1 29 8 19 vhcurveto
          6 14 10 9 16 9 143 83 rcurveline
          -34 callsubr
          -8 -28 -48 -24 callgsubr
        </CharString>
        <CharString name="two.dnom">
          -155 81 69 -62 callsubr
        </CharString>
        <CharString name="two.numr">
          -155 81 377 -62 callsubr
        </CharString>
        <CharString name="two.tnum">
          62 146 116 rmoveto
          50 1 29 7 19 vhcurveto
          6 17 10 10 16 10 49 28 49 28 46 27 rrcurveto
          -34 callsubr
          -7 -28 -49 -24 callgsubr
        </CharString>
        <CharString name="u">
          32 327 hmoveto
          63 -43 callsubr
          -102 callsubr
          endchar
        </CharString>
        <CharString name="uacute">
          32 198 602 -99 callgsubr
          129 -607 rmoveto
          63 -43 callsubr
          -102 callsubr
          endchar
        </CharString>
        <CharString name="ubreve">
          32 337 743 -103 callsubr
          -10 -743 rmoveto
          63 -43 callsubr
          -102 callsubr
          endchar
        </CharString>
        <CharString name="ucircumflex">
          32 110 605 -106 callsubr
          217 -611 rmoveto
          63 -43 callsubr
          -102 callsubr
          endchar
        </CharString>
        <CharString name="udieresis">
          32 102 652 -88 callgsubr
          47 -728 rmoveto
          63 -43 callsubr
          -102 callsubr
          endchar
        </CharString>
        <CharString name="ugrave">
          32 208 602 -89 callsubr
          196 -738 rmoveto
          63 -43 callsubr
          -102 callsubr
          endchar
        </CharString>
        <CharString name="uhorn">
          32 424 607 -73 callgsubr
          -51 -102 callsubr
          4 -71 rlineto
          63 472 hlineto
          -57 callgsubr
          endchar
        </CharString>
        <CharString name="uhungarumlaut">
          32 144 610 -79 callgsubr
          50 -614 rmoveto
          63 -43 callsubr
          -102 callsubr
          endchar
        </CharString>
        <CharString name="umacron">
          32 128 677 -62 callgsubr
          199 -743 rmoveto
          63 -43 callsubr
          -102 callsubr
          endchar
        </CharString>
        <CharString name="underscore">
          -104 -169 vmoveto
          317 59 -317 hlineto
          endchar
        </CharString>
        <CharString name="underscoredbl">
          -104 -159 vmoveto
          317 58 -317 hlineto
          -166 vmoveto
          317 58 -317 hlineto
          endchar
        </CharString>
        <CharString name="uni00AD">
          1 callsubr
        </CharString>
        <CharString name="uni00B2">
          -128 100 394 rmoveto
          -55 callsubr
          48 -145 vlineto
          endchar
        </CharString>
        <CharString name="uni00B3">
          -130 134 309 rmoveto
          7 callgsubr
          30 14 15 23 47 vvcurveto
          73 -26 30 -79 -25 -36 -4 -6 -26 vhcurveto
          -46 vlineto
          5 32 28 3 18 hhcurveto
          43 18 -10 -51 -50 -19 -9 -22 hvcurveto
          -55 -46 55 hlineto
          31 13 -18 -46 -53 -21 -8 -39 -18 -32 2 4 -33 hvcurveto
          -45 vlineto
          -6 29 34 -3 25 hhcurveto
          endchar
        </CharString>
        <CharString name="uni00B5">
          -51 callsubr
        </CharString>
        <CharString name="uni00B9">
          -210 97 317 rmoveto
          53 371 -39 hlineto
          -67 -40 rlineto
          -50 vlineto
          53 26 rlineto
          endchar
        </CharString>
        <CharString name="uni0162">
          -8 16 688 rmoveto
          -68 153 -620 11 7 callsubr
          13 620 153 68 hlineto
          endchar
        </CharString>
        <CharString name="uni0163">
          -148 165 510 rmoveto
          148 -71 -148 -74 -61 74 -449 9 7 callsubr
          11 449 88 61 hlineto
          endchar
        </CharString>
        <CharString name="uni018F">
          91 246 696 rmoveto
          -49 -54 -6 -8 -34 hvcurveto
          -62 vlineto
          5 31 49 5 36 hhcurveto
          138 19 -26 -223 1 hvcurveto
          -330 -37 hlineto
          -294 14 -58 189 188 15 58 294 295 -29 57 -184 vhcurveto
          10 -639 rmoveto
          -109 -17 11 247 -2 hvcurveto
          256 hlineto
          -247 -2 -17 -11 -109 hhcurveto
          endchar
        </CharString>
        <CharString name="uni019D">
          107 386 688 rmoveto
          -520 -4 vlineto
          -233 520 rlineto
          -79 -769 hlineto
          -43 -6 -13 -63 vhcurveto
          -56 vlineto
          106 35 9 123 hvcurveto
          590 4 vlineto
          237 -529 rlineto
          -26 callsubr
          hlineto
          endchar
        </CharString>
        <CharString name="uni01C4">
          500 669 749 -97 callgsubr
          -522 -882 rmoveto
          -59 callsubr
        </CharString>
        <CharString name="uni01C5">
          449 652 604 -97 callgsubr
          -505 -737 rmoveto
          -76 callgsubr
          300 -66 rmoveto
          -81 callsubr
          endchar
        </CharString>
        <CharString name="uni01C6">
          402 -77 callgsubr
          402 612 -97 callgsubr
          -33 -737 rmoveto
          -81 callsubr
          -266 hmoveto
          -58 callsubr
        </CharString>
        <CharString name="uni01C7">
          208 70 hmoveto
          -47 callsubr
          325 -625 -71 callgsubr
        </CharString>
        <CharString name="uni01C8">
          154 440 -27 callsubr
          -370 -743 rmoveto
          -47 callsubr
          303 -881 -73 callsubr
        </CharString>
        <CharString name="uni01C9">
          -29 -7 callsubr
          194 -83 -28 callgsubr
          -67 -936 -73 callsubr
        </CharString>
        <CharString name="uni01CA">
          357 383 hmoveto
          -79 callsubr
          398 -466 -71 callgsubr
        </CharString>
        <CharString name="uni01CB">
          303 589 -27 callsubr
          -206 -743 rmoveto
          -79 callsubr
          376 -722 -73 callsubr
        </CharString>
        <CharString name="uni01CC">
          228 514 -27 callsubr
          -192 -743 rmoveto
          -84 callsubr
          125 -491 -73 callsubr
        </CharString>
        <CharString name="uni01CD">
          73 208 749 -97 callgsubr
          268 -882 rmoveto
          -102 callgsubr
          endchar
        </CharString>
        <CharString name="uni01CD.ss01">
          93 218 749 -97 callgsubr
          233 -882 rmoveto
          -105 callgsubr
          endchar
        </CharString>
        <CharString name="uni01CE">
          4 174 604 -97 callgsubr
          69 -745 -107 callsubr
        </CharString>
        <CharString name="uni01CF">
          -201 71 749 -97 callgsubr
          79 -882 -51 callgsubr
        </CharString>
        <CharString name="uni01D0">
          -225 59 604 -97 callgsubr
          81 -737 -52 callsubr
        </CharString>
        <CharString name="uni01D1">
          97 220 749 -97 callgsubr
          116 -890 -104 callsubr
          endchar
        </CharString>
        <CharString name="uni01D2">
          18 181 604 -97 callgsubr
          116 -745 -103 callgsubr
          endchar
        </CharString>
        <CharString name="uni01D3">
          93 218 749 -97 callgsubr
          233 -194 -100 callgsubr
        </CharString>
        <CharString name="uni01D4">
          32 187 604 -97 callgsubr
          217 -737 rmoveto
          63 -43 callsubr
          -102 callsubr
          endchar
        </CharString>
        <CharString name="uni01D5">
          93 161 948 rmoveto
          196 65 -196 hlineto
          -27 -214 -88 callgsubr
          62 -187 -100 callgsubr
        </CharString>
        <CharString name="uni01D6">
          32 130 837 -62 callgsubr
          -27 -249 -88 callgsubr
          46 -730 rmoveto
          63 -43 callsubr
          -102 callsubr
          endchar
        </CharString>
        <CharString name="uni01D7">
          93 227 874 -99 callgsubr
          -93 -80 -88 callgsubr
          62 -187 -100 callgsubr
        </CharString>
        <CharString name="uni01D8">
          32 196 762 -99 callgsubr
          -93 -113 -88 callgsubr
          46 -730 rmoveto
          63 -43 callsubr
          -102 callsubr
          endchar
        </CharString>
        <CharString name="uni01D9">
          93 220 876 -97 callgsubr
          -9 -210 -88 callgsubr
          62 -187 -100 callgsubr
        </CharString>
        <CharString name="uni01DA">
          32 189 764 -97 callgsubr
          -9 -243 -88 callgsubr
          46 -730 rmoveto
          63 -43 callsubr
          -102 callsubr
          endchar
        </CharString>
        <CharString name="uni01DB">
          93 238 874 -89 callsubr
          -27 -211 -88 callgsubr
          62 -187 -100 callgsubr
        </CharString>
        <CharString name="uni01DC">
          32 204 762 -89 callsubr
          -24 -244 -88 callgsubr
          46 -730 rmoveto
          63 -43 callsubr
          -102 callsubr
          endchar
        </CharString>
        <CharString name="uni01EA">
          97 350 -196 rmoveto
          11 9 0 2 14 hvcurveto
          4 callsubr
          -7 -4 0 -6 hhcurveto
          -34 -11 18 23 45 34 54 41 26 hvcurveto
          61 38 6 91 197 vvcurveto
          -10 callgsubr
          20 18 1 2 16 vhcurveto
          -31 -36 -21 -42 -39 vvcurveto
          -39 22 -35 67 vhcurveto
          -91 254 rmoveto
          -117 -14 10 276 276 14 10 117 117 13 -10 -276 -276 -13 -10 -117 hvcurveto
          endchar
        </CharString>
        <CharString name="uni01EB">
          18 220 518 rmoveto
          -160 -13 -50 -213 -214 13 -49 159 15 14 0 1 12 hvcurveto
          -30 -34 -20 -42 -38 vvcurveto
          -41 22 -34 67 13 11 1 1 10 vhcurveto
          4 callsubr
          -6 -5 0 -6 hhcurveto
          -34 -11 18 24 44 36 55 33 23 hvcurveto
          47 31 5 69 139 vvcurveto
          213 -12 50 -160 vhcurveto
          -465 vmoveto
          -67 callsubr
        </CharString>
        <CharString name="uni01F1">
          500 70 hmoveto
          -59 callsubr
        </CharString>
        <CharString name="uni01F2">
          449 70 hmoveto
          -76 callgsubr
          300 -66 rmoveto
          -81 callsubr
          endchar
        </CharString>
        <CharString name="uni01F3">
          402 -77 callgsubr
          292 8 rmoveto
          -81 callsubr
          -266 hmoveto
          -58 callsubr
        </CharString>
        <CharString name="uni01F4">
          62 210 747 -99 callgsubr
          144 -450 -94 callgsubr
          endchar
        </CharString>
        <CharString name="uni01F4.ss01">
          79 218 747 -99 callgsubr
          47 -760 -94 callsubr
          endchar
        </CharString>
        <CharString name="uni01F5">
          29 193 602 -99 callgsubr
          6 -806 -101 callsubr
        </CharString>
        <CharString name="uni0200">
          73 208 755 -95 callsubr
          104 -755 rmoveto
          -102 callgsubr
          endchar
        </CharString>
        <CharString name="uni0200.ss01">
          93 218 755 -95 callsubr
          69 -755 rmoveto
          -105 callgsubr
          endchar
        </CharString>
        <CharString name="uni0201">
          4 174 610 -95 callsubr
          -95 -618 -107 callsubr
        </CharString>
        <CharString name="uni0202">
          73 135 752 -87 callgsubr
          264 -752 rmoveto
          -102 callgsubr
          endchar
        </CharString>
        <CharString name="uni0202.ss01">
          93 145 752 -87 callgsubr
          229 -752 rmoveto
          -105 callgsubr
          endchar
        </CharString>
        <CharString name="uni0203">
          4 101 607 -87 callgsubr
          65 -615 -107 callsubr
        </CharString>
        <CharString name="uni0204">
          12 192 755 -95 callsubr
          -209 -755 rmoveto
          -92 callgsubr
          endchar
        </CharString>
        <CharString name="uni0205">
          7 175 610 -95 callsubr
          118 -355 -104 callgsubr
          endchar
        </CharString>
        <CharString name="uni0206">
          12 119 752 -87 callgsubr
          -49 -752 rmoveto
          -92 callgsubr
          endchar
        </CharString>
        <CharString name="uni0207">
          7 215 703 -49 callsubr
          165 -448 -104 callgsubr
          endchar
        </CharString>
        <CharString name="uni0208">
          -201 71 755 -95 callsubr
          -85 -755 -51 callgsubr
        </CharString>
        <CharString name="uni0209">
          -225 59 610 -95 callsubr
          -83 -610 -52 callsubr
        </CharString>
        <CharString name="uni020A">
          -201 -2 752 -87 callgsubr
          75 -752 -51 callgsubr
        </CharString>
        <CharString name="uni020B">
          -225 -14 607 -87 callgsubr
          77 -607 -52 callsubr
        </CharString>
        <CharString name="uni020C">
          97 220 755 -95 callsubr
          -48 -763 -104 callsubr
          endchar
        </CharString>
        <CharString name="uni020D">
          18 181 610 -95 callsubr
          -48 -618 -103 callgsubr
          endchar
        </CharString>
        <CharString name="uni020E">
          97 147 752 -87 callgsubr
          112 -760 -104 callsubr
          endchar
        </CharString>
        <CharString name="uni020F">
          18 108 607 -87 callgsubr
          112 -615 -103 callgsubr
          endchar
        </CharString>
        <CharString name="uni0210">
          72 208 755 -95 callsubr
          158 -755 rmoveto
          -82 callgsubr
        </CharString>
        <CharString name="uni0210.ss01">
          76 210 755 -95 callsubr
          140 -585 -93 callgsubr
          endchar
        </CharString>
        <CharString name="uni0211">
          -136 104 610 -95 callsubr
          -128 -610 rmoveto
          -74 callsubr
          endchar
        </CharString>
        <CharString name="uni0212">
          72 248 848 -49 callsubr
          205 -848 rmoveto
          -82 callgsubr
        </CharString>
        <CharString name="uni0212.ss01">
          76 250 848 -49 callsubr
          187 -678 -93 callgsubr
          endchar
        </CharString>
        <CharString name="uni0213">
          -136 31 607 -87 callgsubr
          32 -607 rmoveto
          -74 callsubr
          endchar
        </CharString>
        <CharString name="uni0214">
          93 218 755 -95 callsubr
          69 -67 -100 callgsubr
        </CharString>
        <CharString name="uni0215">
          32 187 610 -95 callsubr
          53 -610 rmoveto
          63 -43 callsubr
          -102 callsubr
          endchar
        </CharString>
        <CharString name="uni0216">
          93 145 752 -87 callgsubr
          229 -64 -100 callgsubr
        </CharString>
        <CharString name="uni0217">
          32 114 607 -87 callgsubr
          213 -607 rmoveto
          63 -43 callsubr
          -102 callsubr
          endchar
        </CharString>
        <CharString name="uni021A">
          -31 callsubr
          -11 -840 -86 callsubr
        </CharString>
        <CharString name="uni021B">
          -148 94 hmoveto
          -44 callgsubr
          -13 -669 -86 callsubr
        </CharString>
        <CharString name="uni0232">
          12 119 822 -62 callgsubr
          60 -888 rmoveto
          -84 callgsubr
          endchar
        </CharString>
        <CharString name="uni0232.loclGUA">
          13 315 888 12 callsubr
          19 -134 -93 callsubr
        </CharString>
        <CharString name="uni0233">
          32 128 677 -62 callgsubr
          78 -942 -98 callsubr
          endchar
        </CharString>
        <CharString name="uni0233.loclGUA">
          -16 303 743 12 callsubr
          11 -167 -85 callsubr
        </CharString>
        <CharString name="uni0237">
          -225 -6 -193 -73 callsubr
        </CharString>
        <CharString name="uni0259">
          7 202 518 rmoveto
          -50 -59 -6 -8 -31 hvcurveto
          -58 vlineto
          7 38 52 4 36 hhcurveto
          113 9 -30 -149 hvcurveto
          -262 -23 hlineto
          -197 6 -66 153 164 10 72 192 201 -18 61 -161 vhcurveto
          6 -466 rmoveto
          -72 -20 16 145 hvcurveto
          12 194 vlineto
          -150 -11 -23 -91 vhcurveto
          endchar
        </CharString>
        <CharString name="uni0272">
          32 -6 -193 rmoveto
          105 35 9 123 hvcurveto
          327 vlineto
          116 2 72 96 77 13 -17 -139 vhcurveto
          -298 71 322 vlineto
          -45 callsubr
          -34 callgsubr
          vhcurveto
          -48 callgsubr
          -591 hlineto
          -35 callgsubr
          endchar
        </CharString>
        <CharString name="uni02BC">
          -304 -20 callgsubr
          endchar
        </CharString>
        <CharString name="uni02C9">
          -112 57 677 -62 callgsubr
          endchar
        </CharString>
        <CharString name="uni0302">
          -238 605 -106 callsubr
          endchar
        </CharString>
        <CharString name="uni0302.case">
          -238 750 -106 callsubr
          endchar
        </CharString>
        <CharString name="uni03020300">
          -60 755 -78 callsubr
          endchar
        </CharString>
        <CharString name="uni03020300.case">
          -60 888 -78 callsubr
          endchar
        </CharString>
        <CharString name="uni03020301">
          -78 755 -99 callgsubr
          -160 -155 -106 callsubr
          endchar
        </CharString>
        <CharString name="uni03020301.case">
          -78 893 -99 callgsubr
          -160 -155 -106 callsubr
          endchar
        </CharString>
        <CharString name="uni03020303">
          20 916 -106 callgsubr
          -258 -311 -106 callsubr
          endchar
        </CharString>
        <CharString name="uni03020303.case">
          20 1050 -106 callgsubr
          -258 -311 -106 callsubr
          endchar
        </CharString>
        <CharString name="uni03020309">
          -87 751 rmoveto
          47 hlineto
          18 2 3 35 12 vhcurveto
          14 6 rlineto
          41 14 -105 callsubr
          -151 -156 -106 callsubr
          endchar
        </CharString>
        <CharString name="uni03020309.case">
          -87 885 rmoveto
          47 hlineto
          18 2 3 35 12 vhcurveto
          14 6 rlineto
          41 14 -105 callsubr
          -151 -156 -106 callsubr
          endchar
        </CharString>
        <CharString name="uni0304">
          -252 677 -62 callgsubr
          endchar
        </CharString>
        <CharString name="uni0304.case">
          -252 822 -62 callgsubr
          endchar
        </CharString>
        <CharString name="uni0306">
          -7 743 -103 callsubr
          endchar
        </CharString>
        <CharString name="uni0306.case">
          -7 -80 callgsubr
          endchar
        </CharString>
        <CharString name="uni03060300">
          -140 775 -89 callsubr
          210 -168 -103 callsubr
          endchar
        </CharString>
        <CharString name="uni03060300.case">
          -140 920 -89 callsubr
          210 -168 -103 callsubr
          endchar
        </CharString>
        <CharString name="uni03060301">
          -147 775 -45 callgsubr
        </CharString>
        <CharString name="uni03060301.case">
          -147 920 -45 callgsubr
        </CharString>
        <CharString name="uni03060303">
          24 921 -83 callsubr
          endchar
        </CharString>
        <CharString name="uni03060303.case">
          24 1066 -83 callsubr
          endchar
        </CharString>
        <CharString name="uni03060309">
          -157 744 -77 callsubr
          endchar
        </CharString>
        <CharString name="uni03060309.case">
          -157 889 -77 callsubr
          endchar
        </CharString>
        <CharString name="uni0307">
          -87 -36 callsubr
          endchar
        </CharString>
        <CharString name="uni0307.case">
          -87 -40 callsubr
          endchar
        </CharString>
        <CharString name="uni0308">
          -267 654 -88 callgsubr
          endchar
        </CharString>
        <CharString name="uni0308.case">
          -267 799 -88 callgsubr
          endchar
        </CharString>
        <CharString name="uni030A">
          -111 612 -90 callsubr
          endchar
        </CharString>
        <CharString name="uni030A.case">
          -111 727 -90 callsubr
          endchar
        </CharString>
        <CharString name="uni030B">
          -268 610 -79 callgsubr
          endchar
        </CharString>
        <CharString name="uni030B.case">
          -268 755 -79 callgsubr
          endchar
        </CharString>
        <CharString name="uni030C">
          -161 604 -97 callgsubr
          endchar
        </CharString>
        <CharString name="uni030C.case">
          -161 749 -97 callgsubr
          endchar
        </CharString>
        <CharString name="uni030F">
          -152 610 -95 callsubr
          endchar
        </CharString>
        <CharString name="uni030F.case">
          -152 755 -95 callsubr
          endchar
        </CharString>
        <CharString name="uni0311">
          -230 607 -87 callgsubr
          endchar
        </CharString>
        <CharString name="uni0311.case">
          -230 752 -87 callgsubr
          endchar
        </CharString>
        <CharString name="uni0312">
          -288 -16 callsubr
          endchar
        </CharString>
        <CharString name="uni031B">
          -174 510 rmoveto
          -48 -38 48 hlineto
          90 16 22 80 hvcurveto
          33 -52 -45 vlineto
          -38 -5 -14 -49 vhcurveto
          endchar
        </CharString>
        <CharString name="uni0326">
          -144 -220 -86 callsubr
        </CharString>
        <CharString name="uni0327">
          -129 -10 callsubr
        </CharString>
        <CharString name="uni0328">
          -194 vmoveto
          -42 callgsubr
        </CharString>
        <CharString name="uni0335">
          -246 317 rmoveto
          233 63 -233 hlineto
          endchar
        </CharString>
        <CharString name="uni0336">
          -70 485 rmoveto
          63 -387 -63 vlineto
          endchar
        </CharString>
        <CharString name="uni0394">
          -32 callgsubr
        </CharString>
        <CharString name="uni03A9">
          -65 callgsubr
        </CharString>
        <CharString name="uni03BC">
          -51 callsubr
        </CharString>
        <CharString name="uni1E0C">
          76 70 hmoveto
          -76 callgsubr
          -23 -218 -81 callgsubr
        </CharString>
        <CharString name="uni1E0D">
          29 -77 callgsubr
          26 64 rmoveto
          -72 callsubr
          -43 -11 -27 -17 -49 hhcurveto
          -34 -208 -81 callgsubr
        </CharString>
        <CharString name="uni1E24">
          106 383 hmoveto
          -39 callgsubr
          -160 -465 -81 callgsubr
        </CharString>
        <CharString name="uni1E25">
          32 322 hmoveto
          -60 callsubr
          -137 -450 -81 callgsubr
        </CharString>
        <CharString name="uni1E44">
          107 229 -40 callsubr
          154 -875 rmoveto
          -79 callsubr
          endchar
        </CharString>
        <CharString name="uni1E45">
          32 191 -36 callsubr
          131 -730 rmoveto
          -85 callgsubr
        </CharString>
        <CharString name="uni1E5A">
          -54 callgsubr
          -55 -494 -81 callgsubr
        </CharString>
        <CharString name="uni1E5A.ss01">
          -61 callgsubr
          -57 -497 -81 callgsubr
        </CharString>
        <CharString name="uni1E5B">
          -29 callgsubr
          -6 -662 -81 callgsubr
        </CharString>
        <CharString name="uni1E62">
          -69 callsubr
          -45 -144 -81 callgsubr
        </CharString>
        <CharString name="uni1E63">
          -64 callsubr
          -39 -144 -81 callgsubr
        </CharString>
        <CharString name="uni1E6C">
          -31 callsubr
          -3 -772 -81 callgsubr
        </CharString>
        <CharString name="uni1E6D">
          -148 94 hmoveto
          -44 callgsubr
          -5 -601 -81 callgsubr
        </CharString>
        <CharString name="uni1E92">
          3 29 hmoveto
          -76 callsubr
          142 -214 -81 callgsubr
        </CharString>
        <CharString name="uni1E93">
          -48 34 hmoveto
          -81 callsubr
          111 -208 -81 callgsubr
        </CharString>
        <CharString name="uni1E9E">
          134 348 374 rmoveto
          -9 hlineto
          134 232 rlineto
          56 vlineto
          18 -49 -79 16 -85 hhcurveto
          -168 -28 -64 -258 hvcurveto
          -374 75 374 vlineto
          229 13 27 119 43 43 -5 -10 41 vhcurveto
          -141 -244 rlineto
          -55 87 vlineto
          64 24 -34 -97 -109 -36 -18 -79 -28 -46 5 6 -38 hvcurveto
          -61 vlineto
          -9 34 50 -7 36 hhcurveto
          145 37 67 124 136 -49 55 -110 hvcurveto
          endchar
        </CharString>
        <CharString name="uni1EA0">
          73 399 hmoveto
          -102 callgsubr
          -37 -749 -81 callgsubr
        </CharString>
        <CharString name="uni1EA0.ss01">
          93 374 hmoveto
          -105 callgsubr
          -158 -575 -81 callgsubr
        </CharString>
        <CharString name="uni1EA1">
          4 166 -8 -107 callgsubr
          -17 -205 -81 callgsubr
        </CharString>
        <CharString name="uni1EA2">
          73 201 735 rmoveto
          47 hlineto
          18 2 3 35 12 vhcurveto
          14 5 rlineto
          41 15 -105 callsubr
          198 -745 rmoveto
          -102 callgsubr
          endchar
        </CharString>
        <CharString name="uni1EA2.ss01">
          93 211 735 rmoveto
          47 hlineto
          18 2 3 35 12 vhcurveto
          14 5 rlineto
          41 15 -105 callsubr
          163 -745 rmoveto
          -105 callgsubr
          endchar
        </CharString>
        <CharString name="uni1EA3">
          4 167 610 rmoveto
          47 hlineto
          18 2 3 35 12 vhcurveto
          14 6 rlineto
          41 14 -105 callsubr
          -1 -628 -107 callsubr
        </CharString>
        <CharString name="uni1EA4">
          73 290 893 -99 callgsubr
          -160 -155 -106 callsubr
          269 -749 rmoveto
          -102 callgsubr
          endchar
        </CharString>
        <CharString name="uni1EA4.ss01">
          93 300 893 -99 callgsubr
          -160 -155 -106 callsubr
          234 -749 rmoveto
          -105 callgsubr
          endchar
        </CharString>
        <CharString name="uni1EA5">
          4 256 755 -99 callgsubr
          -160 -155 -106 callsubr
          70 -89 callgsubr
        </CharString>
        <CharString name="uni1EA6">
          73 307 888 -78 callsubr
          270 -744 rmoveto
          -102 callgsubr
          endchar
        </CharString>
        <CharString name="uni1EA6.ss01">
          93 317 888 -78 callsubr
          235 -744 rmoveto
          -105 callgsubr
          endchar
        </CharString>
        <CharString name="uni1EA7">
          4 273 755 -78 callsubr
          71 -89 callgsubr
        </CharString>
        <CharString name="uni1EA8">
          73 282 885 rmoveto
          47 hlineto
          18 2 3 35 12 vhcurveto
          14 6 rlineto
          41 14 -105 callsubr
          -151 -156 -106 callsubr
          268 -745 rmoveto
          -102 callgsubr
          endchar
        </CharString>
        <CharString name="uni1EA8.ss01">
          93 292 885 rmoveto
          47 hlineto
          18 2 3 35 12 vhcurveto
          14 6 rlineto
          41 14 -105 callsubr
          -151 -156 -106 callsubr
          233 -745 rmoveto
          -105 callgsubr
          endchar
        </CharString>
        <CharString name="uni1EA9">
          4 248 751 rmoveto
          47 hlineto
          18 2 3 35 12 vhcurveto
          14 6 rlineto
          41 14 -105 callsubr
          -151 -156 -106 callsubr
          69 -89 callgsubr
        </CharString>
        <CharString name="uni1EAA">
          73 387 1050 -106 callgsubr
          -258 -311 -106 callsubr
          270 -745 rmoveto
          -102 callgsubr
          endchar
        </CharString>
        <CharString name="uni1EAA.ss01">
          93 397 1050 -106 callgsubr
          -258 -311 -106 callsubr
          235 -745 rmoveto
          -105 callgsubr
          endchar
        </CharString>
        <CharString name="uni1EAB">
          4 353 916 -106 callgsubr
          -258 -311 -106 callsubr
          71 -89 callgsubr
        </CharString>
        <CharString name="uni1EAC">
          73 131 750 -106 callsubr
          268 -756 rmoveto
          -102 callgsubr
          -37 -749 -81 callgsubr
        </CharString>
        <CharString name="uni1EAC.ss01">
          93 141 750 -106 callsubr
          233 -756 rmoveto
          -105 callgsubr
          -158 -575 -81 callgsubr
        </CharString>
        <CharString name="uni1EAD">
          4 97 605 -106 callsubr
          69 -619 -107 callgsubr
          -17 -205 -81 callgsubr
        </CharString>
        <CharString name="uni1EAE">
          73 218 920 -43 callgsubr
          41 -888 rmoveto
          -102 callgsubr
          endchar
        </CharString>
        <CharString name="uni1EAE.ss01">
          93 228 920 -43 callgsubr
          6 -888 rmoveto
          -105 callgsubr
          endchar
        </CharString>
        <CharString name="uni1EAF">
          4 182 775 -43 callgsubr
          -156 -96 callsubr
        </CharString>
        <CharString name="uni1EB0">
          73 227 920 -89 callsubr
          210 -168 -103 callsubr
          39 -888 rmoveto
          -102 callgsubr
          endchar
        </CharString>
        <CharString name="uni1EB0.ss01">
          93 237 920 -89 callsubr
          210 -168 -103 callsubr
          4 -888 rmoveto
          -105 callgsubr
          endchar
        </CharString>
        <CharString name="uni1EB1">
          4 193 775 -89 callsubr
          210 -168 -103 callsubr
          -160 -96 callsubr
        </CharString>
        <CharString name="uni1EB2">
          73 208 889 -77 callsubr
          41 -888 rmoveto
          -102 callgsubr
          endchar
        </CharString>
        <CharString name="uni1EB2.ss01">
          93 213 875 rmoveto
          47 hlineto
          18 2 3 35 12 vhcurveto
          14 5 rlineto
          41 15 -105 callsubr
          155 3 -23 callsubr
          -888 rmoveto
          -105 callgsubr
          endchar
        </CharString>
        <CharString name="uni1EB3">
          4 174 744 -77 callsubr
          -158 -96 callsubr
        </CharString>
        <CharString name="uni1EB4">
          73 387 1066 -83 callsubr
          43 -888 rmoveto
          -102 callgsubr
          endchar
        </CharString>
        <CharString name="uni1EB4.ss01">
          93 397 1066 -83 callsubr
          8 -888 rmoveto
          -105 callgsubr
          endchar
        </CharString>
        <CharString name="uni1EB5">
          4 353 921 -83 callsubr
          -156 -96 callsubr
        </CharString>
        <CharString name="uni1EB6">
          73 358 -80 callgsubr
          41 -888 rmoveto
          -102 callgsubr
          -37 -749 -81 callgsubr
        </CharString>
        <CharString name="uni1EB6.ss01">
          -30 callsubr
          -888 rmoveto
          -105 callgsubr
          -158 -575 -81 callgsubr
        </CharString>
        <CharString name="uni1EB7">
          4 324 743 -103 callsubr
          -158 -751 -107 callgsubr
          -17 -205 -81 callgsubr
        </CharString>
        <CharString name="uni1EB8">
          12 70 hmoveto
          -92 callgsubr
          120 -840 -81 callgsubr
        </CharString>
        <CharString name="uni1EB9">
          7 380 255 -104 callgsubr
          -47 -610 -81 callgsubr
        </CharString>
        <CharString name="uni1EBA">
          12 185 735 rmoveto
          47 hlineto
          18 2 3 35 12 vhcurveto
          14 5 rlineto
          41 15 -105 callsubr
          -115 -745 rmoveto
          -92 callgsubr
          endchar
        </CharString>
        <CharString name="uni1EBB">
          7 260 714 -83 callgsubr
          120 -459 -104 callgsubr
          endchar
        </CharString>
        <CharString name="uni1EBC">
          12 371 888 -106 callgsubr
          -301 -888 rmoveto
          -92 callgsubr
          endchar
        </CharString>
        <CharString name="uni1EBD">
          7 140 678 -91 callgsubr
          240 -423 -104 callgsubr
          endchar
        </CharString>
        <CharString name="uni1EBE">
          12 274 893 -99 callgsubr
          -160 -155 -106 callsubr
          -44 -749 rmoveto
          -92 callgsubr
          endchar
        </CharString>
        <CharString name="uni1EBF">
          7 311 896 rmoveto
          -54 -136 rlineto
          -5 52 vlineto
          77 -68 callgsubr
          5 vlineto
          -173 -194 -70 callsubr
          74 -57 callsubr
        </CharString>
        <CharString name="uni1EC0">
          12 291 888 -78 callsubr
          -43 -744 rmoveto
          -92 callgsubr
          endchar
        </CharString>
        <CharString name="uni1EC1">
          7 326 755 -65 callsubr
          -62 -53 -70 callsubr
          234 -350 -104 callgsubr
          endchar
        </CharString>
        <CharString name="uni1EC2">
          12 266 885 rmoveto
          47 hlineto
          18 2 3 35 12 vhcurveto
          14 6 rlineto
          41 14 -105 callsubr
          -151 -156 -106 callsubr
          -45 -745 rmoveto
          -92 callgsubr
          endchar
        </CharString>
        <CharString name="uni1EC3">
          7 341 855 -83 callgsubr
          -127 -153 -70 callsubr
          73 -57 callsubr
        </CharString>
        <CharString name="uni1EC4">
          12 371 1050 -106 callgsubr
          -258 -311 -106 callsubr
          -43 -745 rmoveto
          -92 callgsubr
          endchar
        </CharString>
        <CharString name="uni1EC5">
          7 140 851 -91 callgsubr
          33 -108 rmoveto
          -77 -132 rlineto
          -6 50 vlineto
          66 97 65 -97 rlineto
          50 6 hlineto
          -76 132 rlineto
          129 -488 -104 callgsubr
          endchar
        </CharString>
        <CharString name="uni1EC6">
          12 115 750 -106 callsubr
          -45 -756 rmoveto
          -92 callgsubr
          120 -840 -81 callgsubr
        </CharString>
        <CharString name="uni1EC7">
          7 214 702 -70 callsubr
          232 -350 -104 callgsubr
          -47 -610 -81 callgsubr
        </CharString>
        <CharString name="uni1EC8">
          -201 64 735 rmoveto
          47 hlineto
          18 2 3 35 12 vhcurveto
          14 5 rlineto
          41 15 -105 callsubr
          9 -745 -51 callgsubr
        </CharString>
        <CharString name="uni1EC9">
          -225 52 610 rmoveto
          47 hlineto
          18 2 3 35 12 vhcurveto
          14 6 rlineto
          41 14 -105 callsubr
          11 -620 -52 callsubr
        </CharString>
        <CharString name="uni1ECA">
          -201 73 hmoveto
          -44 callsubr
          -4 -840 -81 callgsubr
        </CharString>
        <CharString name="uni1ECB">
          -12 callgsubr
          -7 -662 -81 callgsubr
        </CharString>
        <CharString name="uni1ECC">
          97 259 -8 -104 callsubr
          -41 -210 -81 callgsubr
        </CharString>
        <CharString name="uni1ECD">
          18 220 -8 -103 callgsubr
          -41 -205 -81 callgsubr
        </CharString>
        <CharString name="uni1ECE">
          97 213 735 rmoveto
          47 hlineto
          18 2 3 35 12 vhcurveto
          14 5 rlineto
          41 15 -105 callsubr
          46 -753 -104 callsubr
          endchar
        </CharString>
        <CharString name="uni1ECF">
          18 174 610 rmoveto
          47 hlineto
          18 2 3 35 12 vhcurveto
          14 6 rlineto
          41 14 -105 callsubr
          46 -628 -103 callgsubr
          endchar
        </CharString>
        <CharString name="uni1ED0">
          97 302 893 -99 callgsubr
          -160 -155 -106 callsubr
          117 -757 -104 callsubr
          endchar
        </CharString>
        <CharString name="uni1ED1">
          18 263 755 -99 callgsubr
          -160 -155 -106 callsubr
          117 -619 -103 callgsubr
          endchar
        </CharString>
        <CharString name="uni1ED2">
          97 319 888 -78 callsubr
          118 -752 -104 callsubr
          endchar
        </CharString>
        <CharString name="uni1ED3">
          18 280 755 -78 callsubr
          118 -619 -103 callgsubr
          endchar
        </CharString>
        <CharString name="uni1ED4">
          97 294 885 rmoveto
          47 hlineto
          18 2 3 35 12 vhcurveto
          14 6 rlineto
          41 14 -105 callsubr
          -151 -156 -106 callsubr
          116 -753 -104 callsubr
          endchar
        </CharString>
        <CharString name="uni1ED5">
          18 255 751 rmoveto
          47 hlineto
          18 2 3 35 12 vhcurveto
          14 6 rlineto
          41 14 -105 callsubr
          -151 -156 -106 callsubr
          116 -619 -103 callgsubr
          endchar
        </CharString>
        <CharString name="uni1ED6">
          97 399 1050 -106 callgsubr
          -258 -311 -106 callsubr
          118 -753 -104 callsubr
          endchar
        </CharString>
        <CharString name="uni1ED7">
          18 360 916 -106 callgsubr
          -258 -311 -106 callsubr
          118 -619 -103 callgsubr
          endchar
        </CharString>
        <CharString name="uni1ED8">
          97 143 750 -106 callsubr
          116 -764 -104 callsubr
          -41 -210 -81 callgsubr
        </CharString>
        <CharString name="uni1ED9">
          18 104 605 -106 callsubr
          116 -619 -103 callgsubr
          -41 -205 -81 callgsubr
        </CharString>
        <CharString name="uni1EDA">
          97 356 883 -69 callgsubr
          174 38 -91 callsubr
        </CharString>
        <CharString name="uni1EDB">
          18 317 738 -69 callgsubr
          156 5 -90 callgsubr
        </CharString>
        <CharString name="uni1EDC">
          97 290 747 -65 callsubr
          215 38 -91 callsubr
        </CharString>
        <CharString name="uni1EDD">
          18 248 602 -65 callsubr
          200 5 -90 callgsubr
        </CharString>
        <CharString name="uni1EDE">
          97 305 -71 callsubr
          148 -54 -91 callsubr
        </CharString>
        <CharString name="uni1EDF">
          18 266 714 -83 callgsubr
          130 -107 -90 callgsubr
        </CharString>
        <CharString name="uni1EE0">
          97 185 823 -91 callgsubr
          268 -38 -91 callsubr
        </CharString>
        <CharString name="uni1EE1">
          18 146 678 -91 callgsubr
          250 -71 -90 callgsubr
        </CharString>
        <CharString name="uni1EE2">
          97 453 785 -73 callgsubr
          -47 hlineto
          6 -25 -31 2 -37 hhcurveto
          -192 -14 -59 -293 -293 14 -59 192 192 14 59 293 168 -5 91 -40 47 hvcurveto
          72 4 13 25 73 vvcurveto
          33 vlineto
          -246 -727 rmoveto
          -117 -13 11 275 275 13 11 117 117 13 -11 -275 -275 -13 -11 -117 hvcurveto
          -41 -210 -81 callgsubr
        </CharString>
        <CharString name="uni1EE3">
          18 396 607 -73 callgsubr
          -38 hlineto
          -4 callsubr
          -34 hhcurveto
          -160 -13 -50 -213 -213 13 -50 160 160 12 50 213 112 -3 67 -27 38 hvcurveto
          -57 callgsubr
          -228 -554 rmoveto
          -97 callsubr
          -41 -205 -81 callgsubr
        </CharString>
        <CharString name="uni1EE4">
          93 374 688 -100 callsubr
          -233 -840 -81 callgsubr
        </CharString>
        <CharString name="uni1EE5">
          32 327 hmoveto
          63 -43 callsubr
          -102 callsubr
          -150 -223 -81 callgsubr
        </CharString>
        <CharString name="uni1EE6">
          93 211 735 rmoveto
          47 hlineto
          18 2 3 35 12 vhcurveto
          14 5 rlineto
          41 15 -105 callsubr
          163 -57 -100 callgsubr
        </CharString>
        <CharString name="uni1EE7">
          32 180 610 rmoveto
          47 hlineto
          18 2 3 35 12 vhcurveto
          14 6 rlineto
          41 14 -105 callsubr
          147 -620 rmoveto
          63 -43 callsubr
          -102 callsubr
          endchar
        </CharString>
        <CharString name="uni1EE8">
          93 354 883 -69 callgsubr
          208 38 -73 callgsubr
          -57 -423 hlineto
          -101 callgsubr
          351 vlineto
          74 3 14 25 74 vvcurveto
          33 vlineto
          endchar
        </CharString>
        <CharString name="uni1EE9">
          32 323 738 -69 callgsubr
          178 5 -73 callgsubr
          -51 -102 callsubr
          4 -71 rlineto
          63 472 hlineto
          -57 callgsubr
          endchar
        </CharString>
        <CharString name="uni1EEA">
          93 288 747 -65 callsubr
          249 38 -73 callgsubr
          -57 -423 hlineto
          -101 callgsubr
          351 vlineto
          74 3 14 25 74 vvcurveto
          33 vlineto
          endchar
        </CharString>
        <CharString name="uni1EEB">
          32 254 602 -65 callsubr
          222 5 -73 callgsubr
          -51 -102 callsubr
          4 -71 rlineto
          63 472 hlineto
          -57 callgsubr
          endchar
        </CharString>
        <CharString name="uni1EEC">
          93 303 -71 callsubr
          182 -54 -73 callgsubr
          -57 -423 hlineto
          -101 callgsubr
          351 vlineto
          74 3 14 25 74 vvcurveto
          33 vlineto
          endchar
        </CharString>
        <CharString name="uni1EED">
          32 272 714 -83 callgsubr
          152 -107 -73 callgsubr
          -51 -102 callsubr
          4 -71 rlineto
          63 472 hlineto
          -57 callgsubr
          endchar
        </CharString>
        <CharString name="uni1EEE">
          93 183 823 -91 callgsubr
          302 -38 -73 callgsubr
          -57 -423 hlineto
          -101 callgsubr
          351 vlineto
          74 3 14 25 74 vvcurveto
          33 vlineto
          endchar
        </CharString>
        <CharString name="uni1EEF">
          32 152 678 -91 callgsubr
          272 -71 -73 callgsubr
          -51 -102 callsubr
          4 -71 rlineto
          63 472 hlineto
          -57 callgsubr
          endchar
        </CharString>
        <CharString name="uni1EF0">
          93 485 785 -73 callgsubr
          -57 -423 hlineto
          -101 callgsubr
          351 vlineto
          74 3 14 25 74 vvcurveto
          33 vlineto
          -321 -937 -81 callgsubr
        </CharString>
        <CharString name="uni1EF1">
          32 424 607 -73 callgsubr
          -51 -102 callsubr
          4 -71 rlineto
          63 472 hlineto
          -57 callgsubr
          -303 -759 -81 callgsubr
        </CharString>
        <CharString name="uni1EF4">
          12 179 hmoveto
          -84 callgsubr
          -3 -417 -81 callgsubr
        </CharString>
        <CharString name="uni1EF4.loclGUA">
          13 334 688 -92 callsubr
          -233 -840 -81 callgsubr
        </CharString>
        <CharString name="uni1EF5">
          32 206 -199 -98 callsubr
          -41 -152 -81 callgsubr
        </CharString>
        <CharString name="uni1EF5.loclGUA">
          -16 194 -191 rmoveto
          192 701 rlineto
          -72 hlineto
          -108 -420 -6 callgsubr
          -108 420 rlineto
          -74 hlineto
          140 -510 rlineto
          15 hlineto
          -53 -191 rlineto
          45 -152 -81 callgsubr
        </CharString>
        <CharString name="uni1EF6">
          12 171 735 rmoveto
          47 hlineto
          18 2 3 35 12 vhcurveto
          14 5 rlineto
          41 15 -105 callsubr
          8 -745 rmoveto
          -84 callgsubr
          endchar
        </CharString>
        <CharString name="uni1EF6.loclGUA">
          13 263 -71 callsubr
          71 -151 -93 callsubr
        </CharString>
        <CharString name="uni1EF7">
          32 180 610 rmoveto
          47 hlineto
          18 2 3 35 12 vhcurveto
          14 6 rlineto
          41 14 -105 callsubr
          26 -819 -98 callsubr
          endchar
        </CharString>
        <CharString name="uni1EF7.loclGUA">
          -16 251 714 -83 callgsubr
          63 -204 -85 callsubr
        </CharString>
        <CharString name="uni1EF8">
          12 357 888 -106 callgsubr
          -178 -888 rmoveto
          -84 callgsubr
          endchar
        </CharString>
        <CharString name="uni1EF8.loclGUA">
          13 143 823 -91 callgsubr
          191 -135 -93 callsubr
        </CharString>
        <CharString name="uni1EF9">
          32 366 743 -106 callgsubr
          -160 -942 -98 callsubr
          endchar
        </CharString>
        <CharString name="uni1EF9.loclGUA">
          -16 131 678 -91 callgsubr
          183 -168 -85 callsubr
        </CharString>
        <CharString name="uni2002">
          -121 endchar
        </CharString>
        <CharString name="uni20B2">
          57 248 374 rmoveto
          -62 104 -22 vlineto
          -140 -8 -13 -99 -101 -16 23 184 199 19 8 131 32 54 -7 -8 45 vhcurveto
          -46 callgsubr
          endchar
        </CharString>
        <CharString name="uni20B2.bold">
          57 278 374 rmoveto
          177 vlineto
          32 54 -7 -8 45 hvcurveto
          -46 callgsubr
          -297 -30 rmoveto
          165 13 34 79 6 vhcurveto
          -411 vlineto
          -79 4 -13 34 168 vvcurveto
          224 -54 rmoveto
          -123 -6 -25 -68 -4 vhcurveto
          174 74 vlineto
          endchar
        </CharString>
        <CharString name="uni2113">
          -63 138 217 rmoveto
          106 76 64 141 122 vvcurveto
          84 -33 55 -72 -104 -37 -103 -264 -29 0 -27 1 -25 vhcurveto
          -16 -8 -17 -6 -17 -4 rrcurveto
          -66 vlineto
          19 3 18 5 18 7 rrcurveto
          -138 13 39 -46 80 hhcurveto
          37 32 10 21 34 hvcurveto
          73 vlineto
          -29 -43 -27 -10 -25 hhcurveto
          -42 -21 31 127 -7 hvcurveto
          63 412 rmoveto
          26 12 -26 -47 -88 -38 -100 -65 -67 hvcurveto
          32 vlineto
          219 19 77 46 vhcurveto
          endchar
        </CharString>
        <CharString name="uni2116">
          375 633 -23 callgsubr
          -250 -397 rmoveto
          -79 callsubr
          487 -89 rmoveto
          -8 callgsubr
          -96 -217 rmoveto
          199 60 -199 hlineto
          endchar
        </CharString>
        <CharString name="uni2126">
          -65 callgsubr
        </CharString>
        <CharString name="uni2153">
          175 -53 callgsubr
          -45 -642 rmoveto
          -11 callsubr
          4 vlineto
          31 14 14 -50 callsubr
          endchar
        </CharString>
        <CharString name="uni2154">
          224 244 365 rmoveto
          -145 29 hlineto
          -55 callsubr
          vlineto
          211 371 rmoveto
          -333 -688 rlineto
          53 3 callgsubr
          39 -500 rmoveto
          4 vlineto
          30 14 15 -50 callsubr
          -11 callsubr
          endchar
        </CharString>
        <CharString name="uni2206">
          -32 callgsubr
        </CharString>
        <CharString name="uniA78B">
          9 callsubr
          175 -70 vlineto
          endchar
        </CharString>
        <CharString name="uniA78C">
          9 callsubr
          230 -70 vlineto
          endchar
        </CharString>
        <CharString name="uniF8FF">
          420 72 hmoveto
          697 698 -697 hlineto
          546 -316 rmoveto
          -66 vlineto
          -100 -72 -81 -124 -125 -73 81 100 vhcurveto
          66 vlineto
          100 73 81 125 124 72 -81 -100 vhcurveto
          -135 -92 rmoveto
          118 vlineto
          33 -27 27 -34 -35 -27 -27 -33 vhcurveto
          -118 vlineto
          -33 27 -27 35 34 27 27 33 vhcurveto
          endchar
        </CharString>
        <CharString name="uogonek">
          32 374 -148 rmoveto
          -34 -11 18 23 38 35 48 26 21 hvcurveto
          -43 callsubr
          -265 -50 callgsubr
          17 -40 callgsubr
          -30 callgsubr
          -322 vlineto
          -138 18 -58 114 77 34 32 47 15 vhcurveto
          5 hlineto
          5 -71 rlineto
          -35 -35 -25 -45 -41 vvcurveto
          -41 22 -34 66 13 9 0 2 13 vhcurveto
          4 callsubr
          -7 -5 0 -5 hhcurveto
          endchar
        </CharString>
        <CharString name="uring">
          32 225 612 -90 callsubr
          102 -652 rmoveto
          63 -43 callsubr
          -102 callsubr
          endchar
        </CharString>
        <CharString name="utilde">
          32 366 743 -106 callgsubr
          -39 -743 rmoveto
          63 -43 callsubr
          -102 callsubr
          endchar
        </CharString>
        <CharString name="v">
          -16 159 hmoveto
          87 hlineto
          140 510 rlineto
          -72 hlineto
          -107 -420 -27 callgsubr
          -108 420 rlineto
          -74 hlineto
          endchar
        </CharString>
        <CharString name="w">
          191 390 hmoveto
          -80 callsubr
        </CharString>
        <CharString name="wacute">
          191 274 602 -99 callgsubr
          116 -607 rmoveto
          -80 callsubr
        </CharString>
        <CharString name="wcircumflex">
          191 190 605 -106 callsubr
          200 -611 rmoveto
          -80 callsubr
        </CharString>
        <CharString name="wdieresis">
          191 183 654 -88 callgsubr
          29 -730 rmoveto
          -80 callsubr
        </CharString>
        <CharString name="wgrave">
          191 282 602 -89 callsubr
          185 -738 rmoveto
          -80 callsubr
        </CharString>
        <CharString name="x">
          -10 314 hmoveto
          79 hlineto
          -144 261 138 249 rlineto
          -75 hlineto
          -103 -191 -6 callgsubr
          -102 191 rlineto
          -79 hlineto
          139 -251 -144 -259 rlineto
          76 hlineto
          108 200 rlineto
          5 hlineto
          endchar
        </CharString>
        <CharString name="y">
          32 206 -199 -98 callsubr
          endchar
        </CharString>
        <CharString name="y.loclGUA">
          -16 314 510 -85 callsubr
        </CharString>
        <CharString name="yacute">
          32 199 602 -99 callgsubr
          7 -806 -98 callsubr
          endchar
        </CharString>
        <CharString name="yacute.loclGUA">
          -16 302 738 -69 callgsubr
          89 -92 -85 callsubr
        </CharString>
        <CharString name="ycircumflex">
          32 110 605 -106 callsubr
          96 -810 -98 callsubr
          endchar
        </CharString>
        <CharString name="ycircumflex.loclGUA">
          -16 205 702 -70 callsubr
          175 -95 -85 callsubr
        </CharString>
        <CharString name="ydieresis">
          32 102 652 -88 callgsubr
          -74 -927 -98 callsubr
          endchar
        </CharString>
        <CharString name="ydieresis.loclGUA">
          -16 150 730 -22 callsubr
          -14 -144 -85 callsubr
        </CharString>
        <CharString name="yen">
          55 200 hmoveto
          75 259 150 50 -135 hlineto
          43 104 rlineto
          92 49 -71 hlineto
          92 226 rlineto
          -75 hlineto
          -129 -335 -27 callgsubr
          -129 335 rlineto
          -77 hlineto
          91 -226 rlineto
          -71 -49 91 hlineto
          43 -104 rlineto
          -134 -50 150 hlineto
          endchar
        </CharString>
        <CharString name="yen.bold">
          55 446 688 rmoveto
          -75 hlineto
          -91 -240 rlineto
          -82 hlineto
          -91 240 rlineto
          -77 hlineto
          98 -240 rlineto
          -78 -50 98 hlineto
          42 -103 rlineto
          -140 -49 150 -246 75 246 150 49 -140 hlineto
          42 103 rlineto
          98 50 -77 hlineto
          -106 -100 rmoveto
          -6 hlineto
          -19 50 rlineto
          44 hlineto
          endchar
        </CharString>
        <CharString name="ygrave">
          32 202 602 -89 callsubr
          81 -937 -98 callsubr
          endchar
        </CharString>
        <CharString name="ygrave.loclGUA">
          -16 233 602 -65 callsubr
          133 -92 -85 callsubr
        </CharString>
        <CharString name="z">
          -48 34 hmoveto
          -81 callsubr
          endchar
        </CharString>
        <CharString name="zacute">
          -48 154 602 -99 callgsubr
          -120 -607 rmoveto
          -81 callsubr
          endchar
        </CharString>
        <CharString name="zacute.loclPLK">
          -48 154 602 -72 callgsubr
          -120 -607 rmoveto
          -81 callsubr
          endchar
        </CharString>
        <CharString name="zcaron">
          -48 153 604 -97 callgsubr
          -42 -737 rmoveto
          -81 callsubr
          endchar
        </CharString>
        <CharString name="zdotaccent">
          -48 151 -36 callsubr
          -117 -730 rmoveto
          -81 callsubr
          endchar
        </CharString>
        <CharString name="zero">
          63 242 -8 rmoveto
          177 12 57 295 295 -6 57 -183 -178 -11 -57 -295 -295 11 -57 178 -21 callsubr
          -106 -8 12 274 274 8 12 106 105 9 -12 -274 -274 -9 -12 -105 hvcurveto
          endchar
        </CharString>
        <CharString name="zero.dnom">
          -129 146 -4 -49 callgsubr
        </CharString>
        <CharString name="zero.numr">
          -129 146 304 -49 callgsubr
        </CharString>
        <CharString name="zero.tnum">
          -31 callgsubr
          65 vmoveto
          -104 -8 13 274 274 8 12 104 103 8 -12 -274 -274 -8 -13 -103 hvcurveto
          endchar
        </CharString>
        <CharString name="zero.zero">
          -31 callgsubr
          -113 385 rmoveto
          240 1 12 13 100 hhcurveto
          98 13 -13 -240 hvcurveto
          -111 -319 rmoveto
          -100 -12 12 243 -1 hvcurveto
          224 hlineto
          -243 -1 -11 -12 -99 hhcurveto
          endchar
        </CharString>
      <CharString index="0">
        rmoveto
        46 59 8 70 22 -26 callgsubr
        323 hlineto
        151 -27 44 -138 -52 -52 -6 -8 -37 vhcurveto
        -58 vlineto
        5 31 57 6 33 hhcurveto
        97 17 -12 -123 hvcurveto
        -36 vlineto
        2 -41 -65 3 -26 hhcurveto
        -99 -29 -37 -114 -116 42 -32 90 hvcurveto
        23 61 rmoveto
        -70 -15 16 76 81 15 12 61 hvcurveto
        114 -33 hlineto
        -46 -4 -32 -11 -29 vhcurveto
        -41 -16 -35 -4 -39 hhcurveto
        return
      </CharString>
      <CharString index="1">
        rmoveto
        -46 callsubr
        -2 -15 -21 -19 -22 10 10 -24 vhcurveto
        12 -28 -30 12 -29 hhcurveto
        -55 -7 -33 -76 hvcurveto
        44 hlineto
        40 2 15 21 20 23 -11 -10 24 vhcurveto
        -12 28 28 -11 29 hhcurveto
        55 7 33 76 hvcurveto
        return
      </CharString>
      <CharString index="2">
        75 389 hlineto
        243 -16 64 -176 -177 -16 -64 -243 vhcurveto
        -389 75 246 235 vlineto
        177 vmoveto
        -110 -235 110 vlineto
        171 6 36 112 111 6 -36 -171 vhcurveto
        return
      </CharString>
      <CharString index="3">
        rmoveto
        197 -6 66 -153 -9 callsubr
        vhcurveto
        -98 callgsubr
        return
      </CharString>
      <CharString index="4">
        rmoveto
        160 12 50 213 213 -12 50 -160 -160 -13 -50 -213 -213 13 -50 160 hvcurveto
        61 vmoveto
        -97 callsubr
        return
      </CharString>
      <CharString index="5">
        77 -38 callgsubr
        688 rlineto
        -98 -38 callgsubr
        -688 rlineto
        75 hlineto
        47 191 rlineto
        211 hlineto
        -103 406 rmoveto
        85 -340 rlineto
        -175 hlineto
        85 340 rlineto
        return
      </CharString>
      <CharString index="6">
        -172 -6 -35 -111 -111 -7 35 172 vhcurveto
        423 -75 -389 vlineto
        -244 16 -63 -3 callgsubr
        15 63 244 vhcurveto
        return
      </CharString>
      <CharString index="7">
        -100 callsubr
        endchar
      </CharString>
      <CharString index="8">
        rmoveto
        52 hlineto
        77 -48 callsubr
        -54 -136 rlineto
        return
      </CharString>
      <CharString index="9">
        -86 callgsubr
        262 -11 callgsubr
        226 rmoveto
        72 20 -16 -145 hvcurveto
        -12 -194 vlineto
        150 11 23 91 vhcurveto
        return
      </CharString>
      <CharString index="10">
        -37 callsubr
        77 133 rlineto
        6 -50 vlineto
        -65 -97 -66 97 rlineto
        -50 -6 hlineto
        return
      </CharString>
      <CharString index="11">
        rmoveto
        103 50 33 116 111 -27 22 -60 8 hvcurveto
        -97 13 rlineto
        -40 6 -9 8 65 vvcurveto
        71 31 13 58 43 49 -5 -7 30 vhcurveto
        58 vlineto
        8 -28 -52 6 -42 hhcurveto
        -96 -62 -24 -125 -87 17 -37 65 -9 hvcurveto
        100 -15 rlineto
        40 -6 10 -3 -73 vvcurveto
        -55 -10 -32 -78 -47 -50 5 6 -35 vhcurveto
        -59 vlineto
        -7 34 58 -5 45 hhcurveto
        return
      </CharString>
      <CharString index="12">
        rmoveto
        94 22 33 72 64 -19 17 -36 10 hvcurveto
        2 vlineto
        36 9 16 26 55 vvcurveto
        71 -28 28 -85 -86 -28 -28 -71 -55 17 -26 35 -9 vhcurveto
        -2 vlineto
        -36 -10 -19 -17 -64 vvcurveto
        -72 22 -33 95 vhcurveto
        217 vmoveto
        -51 -11 11 51 52 10 11 52 51 10 -11 -52 -51 -11 -11 -50 hvcurveto
        -172 vmoveto
        -50 -15 8 55 57 13 8 52 52 12 -8 -57 -55 -15 -8 -49 hvcurveto
        endchar
      </CharString>
      <CharString index="13">
        rmoveto
        -237 vlineto
        -5 -22 -38 -3 -27 hhcurveto
        -124 -14 43 244 277 25 9 144 33 60 -8 -7 34 hvcurveto
        62 vlineto
        9 -33 -68 10 -57 hhcurveto
        -177 -37 -61 -291 -298 39 -54 174 47 67 8 11 47 hvcurveto
        355 -175 -64 vlineto
        return
      </CharString>
      <CharString index="14">
        rmoveto
        -5 102 -27 28 -56 16 rrcurveto
        4 vlineto
        61 17 32 41 123 vvcurveto
        123 -34 64 -120 vhcurveto
        -218 -688 74 280 122 hlineto
        91 2 -61 -69 4 hvcurveto
        8 -150 rlineto
        74 -38 callgsubr
        345 rmoveto
        -121 277 122 hlineto
        94 6 -48 -91 -88 -13 -50 -88 hvcurveto
        return
      </CharString>
      <CharString index="15">
        325 66 -250 249 217 66 -217 241 250 66 -325 hlineto
        return
      </CharString>
      <CharString index="16">
        rmoveto
        20 23 -11 -10 24 hvcurveto
        -12 28 28 -11 29 hhcurveto
        55 7 33 76 hvcurveto
        -46 callsubr
        -2 -15 -21 -19 -22 10 10 -24 vhcurveto
        12 -28 -30 12 -29 hhcurveto
        -55 -7 -33 -76 hvcurveto
        44 hlineto
        40 2 15 21 vhcurveto
        return
      </CharString>
      <CharString index="17">
        -73 callgsubr
        -38 hlineto
        -4 callsubr
        -34 hhcurveto
        -160 -13 -50 -213 -213 13 -50 160 160 12 50 213 112 -3 67 -27 38 hvcurveto
        -57 callgsubr
        -228 -554 rmoveto
        -67 callsubr
      </CharString>
      <CharString index="18">
        -619 -107 callsubr
      </CharString>
      <CharString index="19">
        rmoveto
        68 76 -68 hlineto
        178 -76 rmoveto
        68 76 -68 hlineto
        return
      </CharString>
      <CharString index="20">
        rmoveto
        50 hlineto
        62 1 34 62 60 1 -34 -62 vhcurveto
        50 hlineto
        83 -5 59 -106 -107 -6 -59 -83 vhcurveto
        return
      </CharString>
      <CharString index="21">
        58 vlineto
        -7 -38 -52 -4 -36 hhcurveto
        -113 -9 30 149 hvcurveto
        return
      </CharString>
      <CharString index="22">
        -84 callsubr
        endchar
      </CharString>
      <CharString index="23">
        74 265 hlineto
        178 423 rlineto
        -76 hlineto
        -134 -334 -27 callgsubr
        -134 334 rlineto
        -79 hlineto
        177 -423 rlineto
        return
      </CharString>
      <CharString index="24">
        rmoveto
        -24 -10 -6 -28 -9 vhcurveto
        -14 -5 rlineto
        -28 -9 -12 -7 -34 vvcurveto
        -10 47 vlineto
        -74 callgsubr
        hvcurveto
        return
      </CharString>
      <CharString index="25">
        -93 290 rlineto
        75 29 7 83 80 vvcurveto
        115 -12 91 -150 vhcurveto
        -210 -688 75 277 129 hlineto
        14 hlineto
        86 -277 rlineto
        -113 342 rmoveto
        -116 280 117 hlineto
        98 7 -46 -94 -93 -8 -47 -98 hvcurveto
        endchar
      </CharString>
      <CharString index="26">
        rmoveto
        82 90 -82 hlineto
        endchar
      </CharString>
      <CharString index="27">
        888 -103 callsubr
        return
      </CharString>
      <CharString index="28">
        rmoveto
        46 hlineto
        70 118 rlineto
        4 -67 vlineto
        -49 -118 rlineto
        133 -4 rmoveto
        46 hlineto
        69 118 rlineto
        4 -66 vlineto
        -49 -118 rlineto
        return
      </CharString>
      <CharString index="29">
        18 2 3 35 12 vhcurveto
        14 return
      </CharString>
      <CharString index="30">
        192 -8 rmoveto
        51 51 11 67 21 -26 callgsubr
        743 -71 -295 -5 hlineto
        52 -19 -40 18 -61 hhcurveto
        -115 -29 -55 -209 -210 30 -52 115 hvcurveto
        return
      </CharString>
      <CharString index="31">
        164 hlineto
        196 14 57 287 287 -14 57 -196 hvcurveto
        -164 hlineto
        74 -622 rmoveto
        556 87 vlineto
        123 15 -10 -268 -269 -14 -9 -124 hvcurveto
        return
      </CharString>
      <CharString index="32">
        rmoveto
        195 -7 66 -151 -72 -41 -17 -38 -25 vhcurveto
        41 -23 -40 14 -70 hhcurveto
        -53 -49 -6 -8 -38 hvcurveto
        -58 vlineto
        6 30 58 5 32 hhcurveto
        98 17 -12 -123 hvcurveto
        -35 vlineto
        -132 1 rlineto
        -99 -29 -36 -112 -116 43 -32 99 52 63 7 68 31 hvcurveto
        -56 23 44 -19 85 hhcurveto
        50 58 6 8 32 hvcurveto
        58 vlineto
        -7 -39 -51 -4 -37 hhcurveto
        -112 -10 31 150 hvcurveto
        263 hlineto
        -161 224 rmoveto
        73 19 -16 -145 hvcurveto
        -10 -194 vlineto
        148 1 10 23 91 hhcurveto
        -173 -253 rmoveto
        -43 -3 -30 -9 -28 vhcurveto
        -47 -16 -36 -5 -42 hhcurveto
        -70 -15 17 76 79 15 11 61 hvcurveto
        115 hlineto
        endchar
      </CharString>
      <CharString index="33">
        -78 callgsubr
        6 rlineto
        41 14 6 20 37 vvcurveto
        55 -28 18 -78 -25 -38 -4 -4 -29 vhcurveto
        -44 vlineto
        3 31 33 2 21 hhcurveto
        52 8 -6 -26 return
      </CharString>
      <CharString index="34">
        rmoveto
        -45 vlineto
        -38 -5 -14 -49 vhcurveto
        return
      </CharString>
      <CharString index="35">
        rmoveto
        52 hlineto
        48 -48 callsubr
        -25 -136 rlineto
        return
      </CharString>
      <CharString index="36">
        rmoveto
        -63 vlineto
        162 2 7 12 242 vvcurveto
        432 -75 -451 vlineto
        -166 0 -5 -94 -3 vhcurveto
        endchar
      </CharString>
      <CharString index="37">
        rmoveto
        41 95 rlineto
        -65 hlineto
        -26 -61 rlineto
        10 -28 -37 4 -48 hhcurveto
        -192 -14 -59 -293 -164 4 -90 38 -49 hvcurveto
        -42 -96 rlineto
        65 hlineto
        26 61 rlineto
        -10 29 37 -4 49 hhcurveto
        192 14 59 293 166 -4 90 -39 48 hvcurveto
        -293 -304 rmoveto
        275 13 11 117 39 27 -1 -9 20 vhcurveto
        -208 -482 rlineto
        -7 43 -1 64 99 vvcurveto
        130 -286 rmoveto
        -40 -28 1 10 -19 hvcurveto
        209 484 rlineto
        7 -42 1 -65 -102 vvcurveto
        -275 -13 -11 -117 vhcurveto
        endchar
      </CharString>
      <CharString index="38">
        rmoveto
        5 -75 vlineto
        -54 -136 rlineto
        -5 52 vlineto
        return
      </CharString>
      <CharString index="39">
        136 rlineto
        return
      </CharString>
      <CharString index="40">
        rmoveto
        -42 vlineto
        -6 27 38 -3 27 hhcurveto
        94 21 36 87 70 -15 40 -83 -20 -24 -2 -3 -13 hvcurveto
        108 134 46 -183 -201 vlineto
        4 25 31 2 19 hhcurveto
        62 15 -9 -61 -56 -12 -15 -61 -19 -35 2 3 -28 hvcurveto
        return
      </CharString>
      <CharString index="41">
        71 449 95 61 -95 99 hlineto
        67 17 11 78 vhcurveto
        56 vlineto
        -122 -44 -11 -136 hvcurveto
        -86 -74 -61 74 vlineto
        return
      </CharString>
      <CharString index="42">
        104 58 hmoveto
        172 60 hlineto
        -88 20 -10 61 218 vvcurveto
        244 10 27 120 121 9 -28 -243 -218 -9 -61 -88 -20 vhcurveto
        -60 172 65 -5 vlineto
        -29 -4 -28 -7 -29 -5 rrcurveto
        6 vlineto
        77 36 15 102 172 vvcurveto
        255 -13 76 -193 -192 -13 -76 -255 -172 15 -102 77 -36 vhcurveto
        -6 vlineto
        -29 5 -28 7 -29 4 rrcurveto
        -5 hlineto
        endchar
      </CharString>
      <CharString index="43">
        rmoveto
        66 33 17 47 15 hvcurveto
        9 29 2 44 59 vvcurveto
        59 -2 42 -6 27 vhcurveto
        53 -13 -31 10 -65 hhcurveto
        -91 -18 -30 -96 -96 30 -12 66 51 16 15 12 9 hvcurveto
        2 hlineto
        -114 -7 -20 -75 -20 -32 2 4 -25 vhcurveto
        -42 vlineto
        -7 25 37 -3 24 hhcurveto
        11 198 rmoveto
        -51 -10 5 68 65 12 5 49 48 13 -8 -74 -48 -5 -13 -56 hvcurveto
        endchar
      </CharString>
      <CharString index="44">
        rmoveto
        90 19 29 97 95 -30 12 -66 -51 -16 -15 -12 -8 hvcurveto
        -3 hlineto
        114 7 21 75 20 31 -3 -3 26 vhcurveto
        42 vlineto
        6 -26 -37 4 -24 hhcurveto
        -69 -32 -19 -55 -14 hvcurveto
        -7 -28 -2 -41 -54 vvcurveto
        -53 0 -38 5 -24 vhcurveto
        -64 14 30 -11 68 hhcurveto
        -3 45 rmoveto
        -48 -13 8 75 47 5 12 56 51 10 -3 -69 -65 -12 -5 -49 hvcurveto
        endchar
      </CharString>
      <CharString index="45">
        rmoveto
        196 66 -196 hlineto
        return
      </CharString>
      <CharString index="46">
        76 437 170 -93 callgsubr
        return
      </CharString>
      <CharString index="47">
        -78 callgsubr
        5 rlineto
        41 15 6 20 37 vvcurveto
        55 -28 18 -78 -25 -38 -4 -4 -29 vhcurveto
        -44 vlineto
        3 31 33 2 21 hhcurveto
        52 8 -6 -26 return
      </CharString>
      <CharString index="48">
        rmoveto
        82 90 -82 hlineto
        15 -696 rmoveto
        39 58 6 9 41 hvcurveto
        62 vlineto
        -6 -40 -48 -5 -28 hhcurveto
        -85 -14 25 86 90 16 12 44 23 hvcurveto
        18 9 rlineto
        39 21 20 13 77 vvcurveto
        83 -68 -69 vlineto
        -47 -4 -11 -39 -20 vhcurveto
        -35 -18 rlineto
        -54 -28 -12 -60 -84 vvcurveto
        -116 35 -52 117 vhcurveto
        endchar
      </CharString>
      <CharString index="49">
        46 rmoveto
        32 50 rlineto
        -83 52 -55 91 105 vvcurveto
        104 56 92 82 51 vhcurveto
        -32 51 rlineto
        -99 -62 -67 -111 -125 vvcurveto
        -126 67 -110 99 -62 vhcurveto
        return
      </CharString>
      <CharString index="50">
        72 4 14 24 74 vvcurveto
        33 vlineto
        return
      </CharString>
      <CharString index="51">
        46 rmoveto
        99 62 67 110 126 vvcurveto
        125 -67 111 -99 62 vhcurveto
        -32 -51 rlineto
        82 -51 56 -92 -104 vvcurveto
        -105 -55 -91 -83 -52 vhcurveto
        -31 51 rmoveto
        65 41 44 73 83 vvcurveto
        83 -44 73 -66 41 vhcurveto
        -32 -51 rlineto
        49 -31 33 -54 -61 vvcurveto
        -62 -33 -53 -48 -31 vhcurveto
        return
      </CharString>
      <CharString index="52">
        rmoveto
        32 51 rlineto
        -48 31 -33 53 62 vvcurveto
        61 33 54 49 31 vhcurveto
        -32 51 rlineto
        -66 -41 -44 -73 -83 vvcurveto
        -83 44 -73 65 -41 vhcurveto
        return
      </CharString>
      <CharString index="53">
        72 360 290 rmoveto
        75 29 7 83 80 vvcurveto
        115 -12 91 -150 vhcurveto
        -210 -688 75 277 129 hlineto
        14 hlineto
        86 -277 rlineto
        79 hlineto
        -192 342 rmoveto
        -116 280 117 hlineto
        98 7 -46 -94 -93 -8 -47 -98 hvcurveto
        return
      </CharString>
      <CharString index="54">
        97 317 rmoveto
        53 371 -38 hlineto
        -67 -40 rlineto
        -50 vlineto
        52 26 rlineto
        -36 -624 rmoveto
        52 hlineto
        333 688 rlineto
        -53 hlineto
        return
      </CharString>
      <CharString index="55">
        -35 callsubr
        endchar
      </CharString>
      <CharString index="56">
        rmoveto
        -44 callsubr
        endchar
      </CharString>
      <CharString index="57">
        vlineto
        -117 -3 -72 -95 -78 -12 return
      </CharString>
      <CharString index="58">
        rmoveto
        107 6 34 159 159 -4 35 -109 -107 -5 -35 -159 -159 5 -34 107 hvcurveto
        46 vmoveto
        -57 -4 5 142 143 4 5 57 57 4 -5 -143 -142 -4 -5 -57 hvcurveto
        endchar
      </CharString>
      <CharString index="59">
        -6 hlineto
        -4 71 rlineto
        -62 return
      </CharString>
      <CharString index="60">
        -13 310 hmoveto
        79 hlineto
        -144 263 141 247 rlineto
        -77 hlineto
        -122 -221 rlineto
        -53 return
      </CharString>
      <CharString index="61">
        61 vlineto
        -36 9 -51 7 -44 2 rrcurveto
        81 -58 -81 vlineto
        -136 -6 -31 -52 -213 vvcurveto
        -215 30 -51 137 -6 vhcurveto
        -80 58 81 vlineto
        138 5 9 51 170 vvcurveto
        75 vlineto
        return
      </CharString>
      <CharString index="62">
        -43 callgsubr
        endchar
      </CharString>
      <CharString index="63">
        71 449 88 61 -88 148 -71 -148 -74 -61 74 hlineto
        return
      </CharString>
      <CharString index="64">
        -99 callgsubr
        140 -37 -103 callsubr
        return
      </CharString>
      <CharString index="65">
        4 callsubr
        -7 -5 0 -4 hhcurveto
        -35 -11 18 24 38 35 50 26 22 hvcurveto
        -61 hlineto
        -36 -35 -25 -48 -41 vvcurveto
        -42 22 -34 66 12 11 0 2 12 vhcurveto
        endchar
      </CharString>
      <CharString index="66">
        rmoveto
        49 hlineto
        35 166 rlineto
        77 -70 -77 vlineto
        return
      </CharString>
      <CharString index="67">
        139 vhcurveto
        return
      </CharString>
      <CharString index="68">
        74 688 -74 -307 -239 307 -74 -688 74 313 239 hlineto
        return
      </CharString>
      <CharString index="69">
        hlineto
        -180 return
      </CharString>
      <CharString index="70">
        40 -58 14 hvcurveto
        4 vlineto
        57 15 32 46 100 vvcurveto
        127 -46 54 -140 -45 -62 -7 -9 -42 vhcurveto
        -62 vlineto
        7 40 56 5 38 hhcurveto
        91 return
      </CharString>
      <CharString index="71">
        -21 -48 hvcurveto
        -90 -65 90 hlineto
        68 25 -34 -98 -111 -42 -15 -82 -35 -60 5 6 -49 hvcurveto
        -61 vlineto
        -9 44 62 -7 45 hhcurveto
        endchar
      </CharString>
      <CharString index="72">
        -43 -5 -13 -64 vhcurveto
        return
      </CharString>
      <CharString index="73">
        -78 -33 -33 -46 -15 return
      </CharString>
      <CharString index="74">
        rmoveto
        32 51 rlineto
        -14 9 -10 16 20 vvcurveto
        20 10 16 15 9 vhcurveto
        -32 51 rlineto
        -32 -20 -21 -35 -41 vvcurveto
        -42 21 -34 31 -20 vhcurveto
        return
      </CharString>
      <CharString index="75">
        73 18 hmoveto
        458 -38 callgsubr
        688 rlineto
        -98 hlineto
        50 -88 rmoveto
        136 -536 rlineto
        -276 hlineto
        136 536 rlineto
        endchar
      </CharString>
      <CharString index="76">
        62 242 -8 rmoveto
        177 10 57 295 295 -5 57 -182 -178 -10 -57 -295 -295 10 -57 178 hvcurveto
        return
      </CharString>
      <CharString index="77">
        298 -71 return
      </CharString>
      <CharString index="78">
        -136 63 hmoveto
        -74 callsubr
        return
      </CharString>
      <CharString index="79">
        rmoveto
        75 83 -75 hlineto
        return
      </CharString>
      <CharString index="80">
        rlineto
        -6 hlineto
        return
      </CharString>
      <CharString index="81">
        hvcurveto
        5 hlineto
        4 -70 rlineto
        63 return
      </CharString>
      <CharString index="82">
        55 hlineto
        120 338 rlineto
        40 -210 -46 155 vlineto
        return
      </CharString>
      <CharString index="83">
        -28 hvcurveto
        -44 -26 -46 -27 -40 -25 rrcurveto
        -81 -46 -2 -35 -153 vvcurveto
        -79 344 66 -271 vlineto
        endchar
      </CharString>
      <CharString index="84">
        397 rmoveto
        101 6 34 115 115 -6 35 -101 -101 -6 -35 -115 -115 6 -34 101 hvcurveto
        return
      </CharString>
      <CharString index="85">
        -34 vlineto
        84 14 -4 callgsubr
        return
      </CharString>
</ttFont>
